<?xml version="1.0" encoding="utf-8"?>
<!-- Generator: Adobe Illustrator 18.1.1, SVG Export Plug-In . SVG Version: 6.00 Build 0)  -->
<svg version="1.1" id="Layer_1" xmlns="http://www.w3.org/2000/svg" xmlns:xlink="http://www.w3.org/1999/xlink" x="0px" y="0px"
	 viewBox="-12 26 56 52" enable-background="new -12 26 56 52" xml:space="preserve">
<polygon fill="#CBDBC3" points="44,78 -12,78 9,26 44,26 "/>
<path opacity="0.5" fill="#747D87" d="M31.7,49.1h-0.5v-5.7c0-3.2-2.6-5.7-5.7-5.7h-3.8c-3.2,0-5.7,2.6-5.7,5.7v5.7h-0.5
	c-0.8,0-1.4,0.6-1.4,1.4v14.3c0,0.8,0.6,1.4,1.4,1.4h16.2c0.8,0,1.4-0.6,1.4-1.4V50.6C33.1,49.8,32.5,49.1,31.7,49.1z M19.8,43.4
	c0-1.1,0.9-1.9,1.9-1.9h3.8c1.1,0,1.9,0.9,1.9,1.9v5.7h-7.6V43.4z"/>
</svg>
