<?xml version="1.0" encoding="utf-8"?>
<!-- Generator: Adobe Illustrator 20.0.0, SVG Export Plug-In . SVG Version: 6.00 Build 0)  -->
<svg version="1.1" id="Layer_1" xmlns="http://www.w3.org/2000/svg" xmlns:xlink="http://www.w3.org/1999/xlink" x="0px" y="0px"
	 viewBox="0 0 122 87" style="enable-background:new 0 0 122 87;" xml:space="preserve">
<style type="text/css">
	.st0{fill:#FED82B;}
	.st1{fill:#F9D231;}
</style>
<g id="Layer_2">
	<path class="st0" d="M76.9,26.9L76.9,26.9c0-0.1-0.1-0.1-0.2-0.2l-0.1-0.1c-2.5-2.8-7.7-9.5-8.7-11.1c-0.4-0.6-1.8-1.8-3.1-2.6
		c-0.6-1.1-1.7-1.8-3-1.8c-1.9,0-3.4,1.5-3.4,3.4c0,0.9,0.4,1.8,1,2.4l0,0c0.8,2.5,2.4,3.4,2.4,7.6c0,0.4,0,0.9,0,1.2h-7.4H53H34.9
		c-2.7,0-4.9,2.2-4.9,4.9c0,2.7,2.2,4.9,4.9,4.9h9.4c0.4,6.3,0.8,15.3,2,16.4l0,0c0.3,2.6,2.5,4.7,5.2,4.7c0.3,0,0.5,0,0.8-0.1
		c0.2,0,0.4,0.1,0.7,0.1h21.5c1.7,0,3-1.3,3-3V28.7C77.5,28.1,77.3,27.4,76.9,26.9z"/>
	<path class="st1" d="M88.9,25.8h-5.3c-1.7,0-3,1.3-3,3v24.9c0,1.7,1.3,3,3,3h5.3c1.7,0,3-1.3,3-3V28.8
		C91.9,27.1,90.6,25.8,88.9,25.8z M86.3,35.2c-2,0-3.6-1.6-3.6-3.6s1.6-3.6,3.6-3.6s3.6,1.6,3.6,3.6C89.9,33.6,88.3,35.2,86.3,35.2z
		"/>
</g>
</svg>
