<?xml version="1.0" encoding="utf-8"?><svg xmlns="http://www.w3.org/2000/svg" xmlns:xlink="http://www.w3.org/1999/xlink"><defs><svg viewBox="0 0 24 24" id="attach_file"><path d="M16.5 6v11.5c0 2.21-1.79 4-4 4s-4-1.79-4-4V5c0-1.38 1.12-2.5 2.5-2.5s2.5 1.12 2.5 2.5v10.5c0 .55-.45 1-1 1s-1-.45-1-1V6H10v9.5c0 1.38 1.12 2.5 2.5 2.5s2.5-1.12 2.5-2.5V5c0-2.21-1.79-4-4-4S7 2.79 7 5v12.5c0 3.04 2.46 5.5 5.5 5.5s5.5-2.46 5.5-5.5V6h-1.5z"/></svg><svg viewBox="0 0 24 24" id="attach_money"><path d="M11.8 10.9c-2.27-.59-3-1.2-3-2.15 0-1.09 1.01-1.85 2.7-1.85 1.78 0 2.44.85 2.5 2.1h2.21c-.07-1.72-1.12-3.3-3.21-3.81V3h-3v2.16c-1.94.42-3.5 1.68-3.5 3.61 0 2.31 1.91 3.46 4.7 4.13 2.5.6 3 1.48 3 2.41 0 .69-.49 1.79-2.7 1.79-2.06 0-2.87-.92-2.98-2.1h-2.2c.12 2.19 1.76 3.42 3.68 3.83V21h3v-2.15c1.95-.37 3.5-1.5 3.5-3.55 0-2.84-2.43-3.81-4.7-4.4z"/></svg><svg viewBox="0 0 24 24" id="border_all"><path d="M3 3v18h18V3H3zm8 16H5v-6h6v6zm0-8H5V5h6v6zm8 8h-6v-6h6v6zm0-8h-6V5h6v6z"/></svg><svg viewBox="0 0 24 24" id="border_bottom"><path d="M9 11H7v2h2v-2zm4 4h-2v2h2v-2zM9 3H7v2h2V3zm4 8h-2v2h2v-2zM5 3H3v2h2V3zm8 4h-2v2h2V7zm4 4h-2v2h2v-2zm-4-8h-2v2h2V3zm4 0h-2v2h2V3zm2 10h2v-2h-2v2zm0 4h2v-2h-2v2zM5 7H3v2h2V7zm14-4v2h2V3h-2zm0 6h2V7h-2v2zM5 11H3v2h2v-2zM3 21h18v-2H3v2zm2-6H3v2h2v-2z"/></svg><svg viewBox="0 0 24 24" id="border_clear"><path d="M7 5h2V3H7v2zm0 8h2v-2H7v2zm0 8h2v-2H7v2zm4-4h2v-2h-2v2zm0 4h2v-2h-2v2zm-8 0h2v-2H3v2zm0-4h2v-2H3v2zm0-4h2v-2H3v2zm0-4h2V7H3v2zm0-4h2V3H3v2zm8 8h2v-2h-2v2zm8 4h2v-2h-2v2zm0-4h2v-2h-2v2zm0 8h2v-2h-2v2zm0-12h2V7h-2v2zm-8 0h2V7h-2v2zm8-6v2h2V3h-2zm-8 2h2V3h-2v2zm4 16h2v-2h-2v2zm0-8h2v-2h-2v2zm0-8h2V3h-2v2z"/></svg><svg viewBox="0 0 24 24" id="border_color"><path d="M17.75 7L14 3.25l-10 10V17h3.75l10-10zm2.96-2.96c.39-.39.39-1.02 0-1.41L18.37.29c-.39-.39-1.02-.39-1.41 0L15 2.25 18.75 6l1.96-1.96z"/><path fill-opacity=".36" d="M0 20h24v4H0z"/></svg><svg viewBox="0 0 24 24" id="border_horizontal"><path d="M3 21h2v-2H3v2zM5 7H3v2h2V7zM3 17h2v-2H3v2zm4 4h2v-2H7v2zM5 3H3v2h2V3zm4 0H7v2h2V3zm8 0h-2v2h2V3zm-4 4h-2v2h2V7zm0-4h-2v2h2V3zm6 14h2v-2h-2v2zm-8 4h2v-2h-2v2zm-8-8h18v-2H3v2zM19 3v2h2V3h-2zm0 6h2V7h-2v2zm-8 8h2v-2h-2v2zm4 4h2v-2h-2v2zm4 0h2v-2h-2v2z"/></svg><svg viewBox="0 0 24 24" id="border_inner"><path d="M3 21h2v-2H3v2zm4 0h2v-2H7v2zM5 7H3v2h2V7zM3 17h2v-2H3v2zM9 3H7v2h2V3zM5 3H3v2h2V3zm12 0h-2v2h2V3zm2 6h2V7h-2v2zm0-6v2h2V3h-2zm-4 18h2v-2h-2v2zM13 3h-2v8H3v2h8v8h2v-8h8v-2h-8V3zm6 18h2v-2h-2v2zm0-4h2v-2h-2v2z"/></svg><svg viewBox="0 0 24 24" id="border_left"><path d="M11 21h2v-2h-2v2zm0-4h2v-2h-2v2zm0-12h2V3h-2v2zm0 4h2V7h-2v2zm0 4h2v-2h-2v2zm-4 8h2v-2H7v2zM7 5h2V3H7v2zm0 8h2v-2H7v2zm-4 8h2V3H3v18zM19 9h2V7h-2v2zm-4 12h2v-2h-2v2zm4-4h2v-2h-2v2zm0-14v2h2V3h-2zm0 10h2v-2h-2v2zm0 8h2v-2h-2v2zm-4-8h2v-2h-2v2zm0-8h2V3h-2v2z"/></svg><svg viewBox="0 0 24 24" id="border_outer"><path d="M13 7h-2v2h2V7zm0 4h-2v2h2v-2zm4 0h-2v2h2v-2zM3 3v18h18V3H3zm16 16H5V5h14v14zm-6-4h-2v2h2v-2zm-4-4H7v2h2v-2z"/></svg><svg viewBox="0 0 24 24" id="border_right"><path d="M7 21h2v-2H7v2zM3 5h2V3H3v2zm4 0h2V3H7v2zm0 8h2v-2H7v2zm-4 8h2v-2H3v2zm8 0h2v-2h-2v2zm-8-8h2v-2H3v2zm0 4h2v-2H3v2zm0-8h2V7H3v2zm8 8h2v-2h-2v2zm4-4h2v-2h-2v2zm4-10v18h2V3h-2zm-4 18h2v-2h-2v2zm0-16h2V3h-2v2zm-4 8h2v-2h-2v2zm0-8h2V3h-2v2zm0 4h2V7h-2v2z"/></svg><svg viewBox="0 0 24 24" id="border_style"><path d="M15 21h2v-2h-2v2zm4 0h2v-2h-2v2zM7 21h2v-2H7v2zm4 0h2v-2h-2v2zm8-4h2v-2h-2v2zm0-4h2v-2h-2v2zM3 3v18h2V5h16V3H3zm16 6h2V7h-2v2z"/></svg><svg viewBox="0 0 24 24" id="border_top"><path d="M7 21h2v-2H7v2zm0-8h2v-2H7v2zm4 0h2v-2h-2v2zm0 8h2v-2h-2v2zm-8-4h2v-2H3v2zm0 4h2v-2H3v2zm0-8h2v-2H3v2zm0-4h2V7H3v2zm8 8h2v-2h-2v2zm8-8h2V7h-2v2zm0 4h2v-2h-2v2zM3 3v2h18V3H3zm16 14h2v-2h-2v2zm-4 4h2v-2h-2v2zM11 9h2V7h-2v2zm8 12h2v-2h-2v2zm-4-8h2v-2h-2v2z"/></svg><svg viewBox="0 0 24 24" id="border_vertical"><path d="M3 9h2V7H3v2zm0-4h2V3H3v2zm4 16h2v-2H7v2zm0-8h2v-2H7v2zm-4 0h2v-2H3v2zm0 8h2v-2H3v2zm0-4h2v-2H3v2zM7 5h2V3H7v2zm12 12h2v-2h-2v2zm-8 4h2V3h-2v18zm8 0h2v-2h-2v2zm0-8h2v-2h-2v2zm0-10v2h2V3h-2zm0 6h2V7h-2v2zm-4-4h2V3h-2v2zm0 16h2v-2h-2v2zm0-8h2v-2h-2v2z"/></svg><svg viewBox="0 0 24 24" id="format_align_center"><path d="M7 15v2h10v-2H7zm-4 6h18v-2H3v2zm0-8h18v-2H3v2zm4-6v2h10V7H7zM3 3v2h18V3H3z"/></svg><svg viewBox="0 0 24 24" id="format_align_justify"><path d="M3 21h18v-2H3v2zm0-4h18v-2H3v2zm0-4h18v-2H3v2zm0-4h18V7H3v2zm0-6v2h18V3H3z"/></svg><svg viewBox="0 0 24 24" id="format_align_left"><path d="M15 15H3v2h12v-2zm0-8H3v2h12V7zM3 13h18v-2H3v2zm0 8h18v-2H3v2zM3 3v2h18V3H3z"/></svg><svg viewBox="0 0 24 24" id="format_align_right"><path d="M3 21h18v-2H3v2zm6-4h12v-2H9v2zm-6-4h18v-2H3v2zm6-4h12V7H9v2zM3 3v2h18V3H3z"/></svg><svg viewBox="0 0 24 24" id="format_bold"><path d="M15.6 10.79c.97-.67 1.65-1.77 1.65-2.79 0-2.26-1.75-4-4-4H7v14h7.04c2.09 0 3.71-1.7 3.71-3.79 0-1.52-.86-2.82-2.15-3.42zM10 6.5h3c.83 0 1.5.67 1.5 1.5s-.67 1.5-1.5 1.5h-3v-3zm3.5 9H10v-3h3.5c.83 0 1.5.67 1.5 1.5s-.67 1.5-1.5 1.5z"/></svg><svg viewBox="0 0 24 24" id="format_clear"><path d="M3.27 5L2 6.27l6.97 6.97L6.5 19h3l1.57-3.66L16.73 21 18 19.73 3.55 5.27 3.27 5zM6 5v.18L8.82 8h2.4l-.72 1.68 2.1 2.1L14.21 8H20V5H6z"/></svg><svg viewBox="0 0 24 24" id="format_color_fill"><path d="M16.56 8.94L7.62 0 6.21 1.41l2.38 2.38-5.15 5.15c-.59.59-.59 1.54 0 2.12l5.5 5.5c.29.29.68.44 1.06.44s.77-.15 1.06-.44l5.5-5.5c.59-.58.59-1.53 0-2.12zM5.21 10L10 5.21 14.79 10H5.21zM19 11.5s-2 2.17-2 3.5c0 1.1.9 2 2 2s2-.9 2-2c0-1.33-2-3.5-2-3.5z"/><path fill-opacity=".36" d="M0 20h24v4H0z"/></svg><svg viewBox="0 0 24 24" id="format_color_reset"><path d="M18 14c0-4-6-10.8-6-10.8s-1.33 1.51-2.73 3.52l8.59 8.59c.09-.42.14-.86.14-1.31zm-.88 3.12L12.5 12.5 5.27 5.27 4 6.55l3.32 3.32C6.55 11.32 6 12.79 6 14c0 3.31 2.69 6 6 6 1.52 0 2.9-.57 3.96-1.5l2.63 2.63 1.27-1.27-2.74-2.74z"/></svg><svg viewBox="0 0 24 24" id="format_color_text"><path fill-opacity=".36" d="M0 20h24v4H0z"/><path d="M11 3L5.5 17h2.25l1.12-3h6.25l1.12 3h2.25L13 3h-2zm-1.38 9L12 5.67 14.38 12H9.62z"/></svg><svg viewBox="0 0 24 24" id="format_indent_decrease"><path d="M11 17h10v-2H11v2zm-8-5l4 4V8l-4 4zm0 9h18v-2H3v2zM3 3v2h18V3H3zm8 6h10V7H11v2zm0 4h10v-2H11v2z"/></svg><svg viewBox="0 0 24 24" id="format_indent_increase"><path d="M3 21h18v-2H3v2zM3 8v8l4-4-4-4zm8 9h10v-2H11v2zM3 3v2h18V3H3zm8 6h10V7H11v2zm0 4h10v-2H11v2z"/></svg><svg viewBox="0 0 24 24" id="format_ital24px"><path d="M10 4v3h2.21l-3.42 8H6v3h8v-3h-2.21l3.42-8H18V4z"/></svg><svg viewBox="0 0 24 24" id="format_line_spacing"><path d="M6 7h2.5L5 3.5 1.5 7H4v10H1.5L5 20.5 8.5 17H6V7zm4-2v2h12V5H10zm0 14h12v-2H10v2zm0-6h12v-2H10v2z"/></svg><svg viewBox="0 0 24 24" id="format_list_bulleted"><path d="M4 10.5c-.83 0-1.5.67-1.5 1.5s.67 1.5 1.5 1.5 1.5-.67 1.5-1.5-.67-1.5-1.5-1.5zm0-6c-.83 0-1.5.67-1.5 1.5S3.17 7.5 4 7.5 5.5 6.83 5.5 6 4.83 4.5 4 4.5zm0 12.17c-.74 0-1.33.6-1.33 1.33s.6 1.33 1.33 1.33 1.33-.6 1.33-1.33-.59-1.33-1.33-1.33zM7 19h14v-2H7v2zm0-6h14v-2H7v2zm0-8v2h14V5H7z"/></svg><svg viewBox="0 0 24 24" id="format_list_numbered"><path d="M2 17h2v.5H3v1h1v.5H2v1h3v-4H2v1zm1-9h1V4H2v1h1v3zm-1 3h1.8L2 13.1v.9h3v-1H3.2L5 10.9V10H2v1zm5-6v2h14V5H7zm0 14h14v-2H7v2zm0-6h14v-2H7v2z"/></svg><svg viewBox="0 0 24 24" id="format_paint"><path d="M18 4V3c0-.55-.45-1-1-1H5c-.55 0-1 .45-1 1v4c0 .55.45 1 1 1h12c.55 0 1-.45 1-1V6h1v4H9v11c0 .55.45 1 1 1h2c.55 0 1-.45 1-1v-9h8V4h-3z"/></svg><svg viewBox="0 0 24 24" id="format_quote"><path d="M6 17h3l2-4V7H5v6h3zm8 0h3l2-4V7h-6v6h3z"/></svg><svg viewBox="0 0 24 24" id="format_size"><path d="M9 4v3h5v12h3V7h5V4H9zm-6 8h3v7h3v-7h3V9H3v3z"/></svg><svg viewBox="0 0 24 24" id="format_strikethrough"><path d="M10 19h4v-3h-4v3zM5 4v3h5v3h4V7h5V4H5zM3 14h18v-2H3v2z"/></svg><svg viewBox="0 0 24 24" id="format_textdirection_l_to_r"><path d="M9 10v5h2V4h2v11h2V4h2V2H9C6.79 2 5 3.79 5 6s1.79 4 4 4zm12 8l-4-4v3H5v2h12v3l4-4z"/></svg><svg viewBox="0 0 24 24" id="format_textdirection_r_to_l"><path d="M10 10v5h2V4h2v11h2V4h2V2h-8C7.79 2 6 3.79 6 6s1.79 4 4 4zm-2 7v-3l-4 4 4 4v-3h12v-2H8z"/></svg><svg viewBox="0 0 24 24" id="format_underlined"><path d="M12 17c3.31 0 6-2.69 6-6V3h-2.5v8c0 1.93-1.57 3.5-3.5 3.5S8.5 12.93 8.5 11V3H6v8c0 3.31 2.69 6 6 6zm-7 2v2h14v-2H5z"/></svg><svg viewBox="0 0 24 24" id="functions"><path d="M18 4H6v2l6.5 6L6 18v2h12v-3h-7l5-5-5-5h7z"/></svg><svg viewBox="0 0 18 18" id="ic_attach_file_18px"><path d="M13 14c0 2.21-1.79 4-4 4s-4-1.79-4-4V3c0-1.66 1.34-3 3-3s3 1.34 3 3v9c0 1.1-.9 2-2 2s-2-.9-2-2V4h1v8c0 .55.45 1 1 1s1-.45 1-1V3c0-1.1-.9-2-2-2s-2 .9-2 2v11c0 1.66 1.34 3 3 3s3-1.34 3-3V4h1v10z"/></svg><svg viewBox="0 0 18 18" id="ic_attach_money_18px"><path d="M9.56 8.1c-1.6-.51-2.66-.71-2.66-1.88 0-.83.72-1.62 2.1-1.62 1.59 0 2.1.88 2.1 1.94H13c0-1.79-1.17-3.09-3-3.44V1H8v2.11c-1.58.32-3 1.37-3 3.12 0 2.25 1.78 2.8 4 3.52 1.88.61 2.25 1.04 2.25 2.09 0 .9-.67 1.56-2.25 1.56-1.2 0-2.25-.84-2.25-2.06h-2c0 1.88 1.38 3.2 3.25 3.56V17h2v-2.07c2.04-.29 3.2-1.49 3.2-3.1 0-1.87-.94-2.87-3.64-3.73z"/></svg><svg viewBox="0 0 18 18" id="ic_border_all_18px"><path d="M2 2v14h14V2H2zm6 12H4v-4h4v4zm0-6H4V4h4v4zm6 6h-4v-4h4v4zm0-6h-4V4h4v4z"/></svg><svg viewBox="0 0 18 18" id="ic_border_bottom_18px"><path d="M7 2H5v2h2V2zm3 6H8v2h2V8zm0 3H8v2h2v-2zm3-3h-2v2h2V8zM7 8H5v2h2V8zm6-6h-2v2h2V2zm-3 3H8v2h2V5zm0-3H8v2h2V2zm-6 9H2v2h2v-2zm10 2h2v-2h-2v2zm0-6h2V5h-2v2zm0 3h2V8h-2v2zm0-8v2h2V2h-2zM4 2H2v2h2V2zM2 16h14v-2H2v2zM4 5H2v2h2V5zm0 3H2v2h2V8z"/></svg><svg viewBox="0 0 18 18" id="ic_border_clear_18px"><path d="M8 16h2v-2H8v2zm-3-6h2V8H5v2zm0-6h2V2H5v2zm3 9h2v-2H8v2zm-3 3h2v-2H5v2zM2 7h2V5H2v2zm0 9h2v-2H2v2zM2 4h2V2H2v2zm0 6h2V8H2v2zm6 0h2V8H8v2zm-6 3h2v-2H2v2zm12 0h2v-2h-2v2zm0 3h2v-2h-2v2zm0-6h2V8h-2v2zm0-3h2V5h-2v2zm0-5v2h2V2h-2zM8 4h2V2H8v2zm3 0h2V2h-2v2zM8 7h2V5H8v2zm3 9h2v-2h-2v2zm0-6h2V8h-2v2z"/></svg><svg viewBox="0 0 18 18" id="ic_border_color_18px"><path fill-opacity=".36" d="M0 15h18v3H0z"/><path d="M13.38 5.5L10.5 2.62 3 10.12V13h2.88l7.5-7.5zm2.47-2.48c.2-.2.2-.51 0-.71L13.68.14c-.2-.2-.51-.2-.71 0L11.62 1.5l2.88 2.88 1.35-1.36z"/></svg><svg viewBox="0 0 18 18" id="ic_border_horizontal_18px"><path d="M8 16h2v-2H8v2zM5 4h2V2H5v2zm3 9h2v-2H8v2zm-3 3h2v-2H5v2zM2 7h2V5H2v2zm0 9h2v-2H2v2zM2 4h2V2H2v2zm0 6h14V8H2v2zm0 3h2v-2H2v2zm12 0h2v-2h-2v2zm0 3h2v-2h-2v2zm0-9h2V5h-2v2zm0-5v2h2V2h-2zM8 4h2V2H8v2zm3 0h2V2h-2v2zM8 7h2V5H8v2zm3 9h2v-2h-2v2z"/></svg><svg viewBox="0 0 18 18" id="ic_border_inner_18px"><path d="M2 16h2v-2H2v2zM4 5H2v2h2V5zm1 11h2v-2H5v2zm8-14h-2v2h2V2zM4 2H2v2h2V2zm3 0H5v2h2V2zM2 13h2v-2H2v2zm9 3h2v-2h-2v2zM10 2H8v6H2v2h6v6h2v-6h6V8h-6V2zm4 0v2h2V2h-2zm0 5h2V5h-2v2zm0 9h2v-2h-2v2zm0-3h2v-2h-2v2z"/></svg><svg viewBox="0 0 18 18" id="ic_border_left_18px"><path d="M8 10h2V8H8v2zm0-3h2V5H8v2zm0 6h2v-2H8v2zm0 3h2v-2H8v2zm-6 0h2V2H2v14zm3 0h2v-2H5v2zM5 4h2V2H5v2zm0 6h2V8H5v2zm9 6h2v-2h-2v2zm0-6h2V8h-2v2zm0 3h2v-2h-2v2zm0-6h2V5h-2v2zM8 4h2V2H8v2zm6-2v2h2V2h-2zm-3 14h2v-2h-2v2zm0-6h2V8h-2v2zm0-6h2V2h-2v2z"/></svg><svg viewBox="0 0 18 18" id="ic_border_outer_18px"><path d="M10 5H8v2h2V5zm3 3h-2v2h2V8zm-3 0H8v2h2V8zm0 3H8v2h2v-2zM7 8H5v2h2V8zM2 2v14h14V2H2zm12 12H4V4h10v10z"/></svg><svg viewBox="0 0 18 18" id="ic_border_right_18px"><path d="M2 4h2V2H2v2zm3 0h2V2H5v2zm0 6h2V8H5v2zm0 6h2v-2H5v2zM2 7h2V5H2v2zm0 3h2V8H2v2zm0 6h2v-2H2v2zm0-3h2v-2H2v2zm9-3h2V8h-2v2zm-3 6h2v-2H8v2zm3 0h2v-2h-2v2zm3-14v14h2V2h-2zM8 4h2V2H8v2zm3 0h2V2h-2v2zm-3 9h2v-2H8v2zm0-6h2V5H8v2zm0 3h2V8H8v2z"/></svg><svg viewBox="0 0 18 18" id="ic_border_style_18px"><path d="M11 16h2v-2h-2v2zm3 0h2v-2h-2v2zm-9 0h2v-2H5v2zm3 0h2v-2H8v2zm6-3h2v-2h-2v2zm0-3h2V8h-2v2zM2 2v14h2V4h12V2H2zm12 5h2V5h-2v2z"/></svg><svg viewBox="0 0 18 18" id="ic_border_top_18px"><path d="M5 10h2V8H5v2zm-3 6h2v-2H2v2zm6 0h2v-2H8v2zm0-3h2v-2H8v2zm-3 3h2v-2H5v2zm-3-3h2v-2H2v2zm6-3h2V8H8v2zM2 7h2V5H2v2zm0 3h2V8H2v2zm12 0h2V8h-2v2zm0 3h2v-2h-2v2zm0-6h2V5h-2v2zM2 2v2h14V2H2zm6 5h2V5H8v2zm3 9h2v-2h-2v2zm0-6h2V8h-2v2zm3 6h2v-2h-2v2z"/></svg><svg viewBox="0 0 18 18" id="ic_border_vertical_18px"><path d="M5 16h2v-2H5v2zM2 7h2V5H2v2zm0-3h2V2H2v2zm3 6h2V8H5v2zm0-6h2V2H5v2zM2 16h2v-2H2v2zm0-6h2V8H2v2zm0 3h2v-2H2v2zM14 2v2h2V2h-2zm0 8h2V8h-2v2zm-6 6h2V2H8v14zm6 0h2v-2h-2v2zm0-9h2V5h-2v2zm0 6h2v-2h-2v2zm-3 3h2v-2h-2v2zm0-6h2V8h-2v2zm0-6h2V2h-2v2z"/></svg><svg viewBox="0 0 18 18" id="ic_format_align_center_18px"><path d="M4 14v2h10v-2H4zm0-8v2h10V6H4zm-2 6h14v-2H2v2zM2 2v2h14V2H2z"/></svg><svg viewBox="0 0 18 18" id="ic_format_align_justify_18px"><path d="M2 16h14v-2H2v2zm0-4h14v-2H2v2zM2 2v2h14V2H2zm0 6h14V6H2v2z"/></svg><svg viewBox="0 0 18 18" id="ic_format_align_left_18px"><path d="M2 16h10v-2H2v2zM12 6H2v2h10V6zM2 2v2h14V2H2zm0 10h14v-2H2v2z"/></svg><svg viewBox="0 0 18 18" id="ic_format_align_right_18px"><path d="M6 16h10v-2H6v2zm-4-4h14v-2H2v2zM2 2v2h14V2H2zm4 6h10V6H6v2z"/></svg><svg viewBox="0 0 18 18" id="ic_format_bold_18px"><path d="M11.63 7.82C12.46 7.24 13 6.38 13 5.5 13 3.57 11.43 2 9.5 2H4v12h6.25c1.79 0 3.25-1.46 3.25-3.25 0-1.3-.77-2.41-1.87-2.93zM6.5 4h2.75c.83 0 1.5.67 1.5 1.5S10.08 7 9.25 7H6.5V4zm3.25 8H6.5V9h3.25c.83 0 1.5.67 1.5 1.5s-.67 1.5-1.5 1.5z"/></svg><svg viewBox="0 0 18 18" id="ic_format_clear_18px"><path d="M2.27 4.55L7.43 9.7 5 15h2.5l1.64-3.58L13.73 16 15 14.73 3.55 3.27 2.27 4.55zM5.82 3l2 2h1.76l-.55 1.21 1.71 1.71L12.08 5H16V3H5.82z"/></svg><svg viewBox="0 0 18 18" id="ic_format_color_fill_18px"><path fill-opacity=".36" d="M0 15h18v3H0z"/><path d="M14.5 8.87S13 10.49 13 11.49c0 .83.67 1.5 1.5 1.5s1.5-.67 1.5-1.5c0-.99-1.5-2.62-1.5-2.62zm-1.79-2.08L5.91 0 4.85 1.06l1.59 1.59-4.15 4.14c-.39.39-.39 1.02 0 1.41l4.5 4.5c.2.2.45.3.71.3s.51-.1.71-.29l4.5-4.5c.39-.39.39-1.03 0-1.42zM4.21 7L7.5 3.71 10.79 7H4.21z"/></svg><svg viewBox="0 0 18 18" id="ic_format_color_reset_18px"><path d="M14 11c0-3.33-5-9-5-9s-.85.97-1.85 2.33l6.83 6.83L14 11zM3.55 3.27L2.27 4.55l2.89 2.89C4.49 8.69 4 9.96 4 11c0 2.76 2.24 5 5 5 1.31 0 2.49-.52 3.39-1.34L14.73 17 16 15.73 3.55 3.27z"/></svg><svg viewBox="0 0 18 18" id="ic_format_color_text_18px"><path fill-opacity=".36" d="M0 15h18v3H0z"/><path d="M10 1H8L3.5 13h2l1.12-3h4.75l1.12 3h2L10 1zM7.38 8L9 3.67 10.62 8H7.38z"/></svg><svg viewBox="0 0 18 18" id="ic_format_indent_decrease_18px"><path d="M10 10H2v2h8v-2zm0-4H2v2h8V6zM2 16h14v-2H2v2zm14-3.5v-7L12.5 9l3.5 3.5zM2 2v2h14V2H2z"/></svg><svg viewBox="0 0 18 18" id="ic_format_indent_increase_18px"><path d="M8 12h8v-2H8v2zM5.5 9L2 5.5v7L5.5 9zM2 16h14v-2H2v2zM2 2v2h14V2H2zm6 6h8V6H8v2z"/></svg><svg viewBox="0 0 18 18" id="ic_format_italic_18px"><path d="M7 2v2h2.58l-3.66 8H3v2h8v-2H8.42l3.66-8H15V2z"/></svg><svg viewBox="0 0 18 18" id="ic_format_line_spacing_18px"><path d="M9 15h9v-2H9v2zM9 3v2h9V3H9zM7.5 5L4 1.5.5 5H3v8H.5L4 16.5 7.5 13H5V5h2.5zM9 10h9V8H9v2z"/></svg><svg viewBox="0 0 18 18" id="ic_format_list_bulleted_18px"><path d="M7 10h9V8H7v2zm0-7v2h9V3H7zm0 12h9v-2H7v2zm-4-5h2V8H3v2zm0-7v2h2V3H3zm0 12h2v-2H3v2z"/></svg><svg viewBox="0 0 18 18" id="ic_format_list_numbered_18px"><path d="M2 13h2v.5H3v1h1v.5H2v1h3v-4H2v1zm0-5h1.8L2 10.1v.9h3v-1H3.2L5 7.9V7H2v1zm1-2h1V2H2v1h1v3zm4-3v2h9V3H7zm0 12h9v-2H7v2zm0-5h9V8H7v2z"/></svg><svg viewBox="0 0 18 18" id="ic_format_paint_18px"><path d="M13 3c0-.55-.45-1-1-1H4c-.55 0-1 .45-1 1v3c0 .55.45 1 1 1h8c.55 0 1-.45 1-1V5h1.5v3H7v8h2V9.5h7V4h-3V3z"/></svg><svg viewBox="0 0 18 18" id="ic_format_quote_18px"><path d="M10 5v5h2.75L11 13h2.25L15 10V5h-5zm-7 5h2.75L4 13h2.25L8 10V5H3v5z"/></svg><svg viewBox="0 0 18 18" id="ic_format_size_18px"><path d="M1 9h3v6h2V9h3V7H1v2zm6-6v2h4v10h2V5h4V3H7z"/></svg><svg viewBox="0 0 18 18" id="ic_format_strikethrough_18px"><path d="M8 15h2v-4H8v4zM4 2v2h4v3h2V4h4V2H4zm-1 8h12V8H3v2z"/></svg><svg viewBox="0 0 18 18" id="ic_format_textdirection_l_to_r_18px"><path d="M6 7v5h2V2h1v10h2V2h1V1H6C4.34 1 3 2.34 3 4s1.34 3 3 3zm10 8l-3-3v2H2v2h11v2l3-3z"/></svg><svg viewBox="0 0 18 18" id="ic_format_textdirection_r_to_l_18px"><path d="M7 7v5h2V2h1v10h2V2h1V1H7C5.34 1 4 2.34 4 4s1.34 3 3 3zM5 18v-2h11v-2H5v-2l-3 3 3 3z"/></svg><svg viewBox="0 0 18 18" id="ic_format_underlined_18px"><path d="M9 13c2.76 0 5-2.24 5-5V1h-2.5v7c0 1.38-1.12 2.5-2.5 2.5S6.5 9.38 6.5 8V1H4v7c0 2.76 2.24 5 5 5zm-6 2v2h12v-2H3z"/></svg><svg viewBox="0 0 18 18" id="ic_functions_18px"><path d="M14 2H4v1.8L9.5 9 4 14.2V16h10v-2H7.1L12 9 7.1 4H14z"/></svg><svg viewBox="0 0 18 18" id="ic_insert_chart_18px"><path d="M16 1H2c-.55 0-1 .45-1 1v14c0 .55.45 1 1 1h14c.55 0 1-.45 1-1V2c0-.55-.45-1-1-1zM7 13H5V8h2v5zm3 0H8V5h2v8zm3 0h-2V9h2v4z"/></svg><svg viewBox="0 0 18 18" id="ic_insert_comment_18px"><path d="M17 3c0-.55-.45-1-1-1H2c-.55 0-1 .45-1 1v11c0 .55.45 1 1 1h11.5l3.5 3V3zm-4 8H5V9h8v2zm0-3H5V6h8v2z"/></svg><svg viewBox="0 0 18 18" id="ic_insert_drive_file_18px"><path d="M4 1c-.55 0-.99.45-.99 1L3 16c0 .55.44 1 1 1h10c.55 0 1-.45 1-1V6l-5-5H4zm6 5V2l4 4h-4z"/></svg><svg viewBox="0 0 18 18" id="ic_insert_emoticon_18px"><path d="M6 8c.55 0 1-.45 1-1s-.45-1-1-1-1 .45-1 1 .45 1 1 1zm6 0c.55 0 1-.45 1-1s-.45-1-1-1-1 .45-1 1 .45 1 1 1zm-3 5.5c2.14 0 3.92-1.5 4.38-3.5H4.62c.46 2 2.24 3.5 4.38 3.5zM9 1C4.57 1 1 4.58 1 9s3.57 8 8 8 8-3.58 8-8-3.58-8-8-8zm0 14.5c-3.59 0-6.5-2.91-6.5-6.5S5.41 2.5 9 2.5s6.5 2.91 6.5 6.5-2.91 6.5-6.5 6.5z"/></svg><svg viewBox="0 0 18 18" id="ic_insert_invitation_18px"><path d="M13 9H9v4h4V9zm3-7h-1V0h-2v2H5V0H3v2H2c-.55 0-1 .45-1 1v13c0 .55.45 1 1 1h14c.55 0 1-.45 1-1V3c0-.55-.45-1-1-1zm-1 13H3V6h12v9z"/></svg><svg viewBox="0 0 18 18" id="ic_insert_link_18px"><path d="M1.9 9c0-1.16.94-2.1 2.1-2.1h4V5H4C1.79 5 0 6.79 0 9s1.79 4 4 4h4v-1.9H4c-1.16 0-2.1-.94-2.1-2.1zM14 5h-4v1.9h4c1.16 0 2.1.94 2.1 2.1 0 1.16-.94 2.1-2.1 2.1h-4V13h4c2.21 0 4-1.79 4-4s-1.79-4-4-4zm-8 5h6V8H6v2z"/></svg><svg viewBox="0 0 18 18" id="ic_insert_photo_18px"><path d="M16 1H2c-.55 0-1 .45-1 1v14c0 .55.45 1 1 1h14c.55 0 1-.45 1-1V2c0-.55-.45-1-1-1zM3.5 13l2.75-3.54 1.96 2.36 2.75-3.54L14.5 13h-11z"/></svg><svg viewBox="0 0 18 18" id="ic_merge_type_18px"><path d="M9 1.5L5.5 5H8v4.59l-5 5L4.41 16 10 10.41V5h2.5L9 1.5zm3 10.09L10.59 13l3 3L15 14.59l-3-3z"/></svg><svg viewBox="0 0 18 18" id="ic_mode_comment_18px"><path d="M17 3c0-.55-.45-1-1-1H2c-.55 0-1 .45-1 1v11c0 .55.45 1 1 1h11.5l3.5 3V3z"/></svg><svg viewBox="0 0 18 18" id="ic_mode_edit_18px"><path d="M2 12.88V16h3.12L14 7.12 10.88 4 2 12.88zm14.76-8.51c.33-.33.33-.85 0-1.18l-1.95-1.95c-.33-.33-.85-.33-1.18 0L12 2.88 15.12 6l1.64-1.63z"/></svg><svg viewBox="0 0 18 18" id="ic_publish_18px"><path d="M3 2v2h12V2H3zm0 9h3v5h6v-5h3L9 5l-6 6z"/></svg><svg viewBox="0 0 18 18" id="ic_vertical_align_bottom_18px"><path d="M12.5 9H10V2H8v7H5.5L9 12.5 12.5 9zM3 14v2h12v-2H3z"/></svg><svg viewBox="0 0 18 18" id="ic_vertical_align_center_18px"><path d="M12.5 3H10V0H8v3H5.5L9 6.5 12.5 3zM3 8v2h12V8H3zm2.5 7H8v3h2v-3h2.5L9 11.5 5.5 15z"/></svg><svg viewBox="0 0 18 18" id="ic_vertical_align_top_18px"><path d="M3 2v2h12V2H3zm2.5 7H8v7h2V9h2.5L9 5.5 5.5 9z"/></svg><svg viewBox="0 0 18 18" id="ic_wrap_text_18px"><path d="M16 3H2v2h14V3zM2 15h4v-2H2v2zm11.5-7H2v2h11.75c.83 0 1.5.67 1.5 1.5s-.67 1.5-1.5 1.5H11v-2l-3 3 3 3v-2h2.5c1.93 0 3.5-1.57 3.5-3.5S15.43 8 13.5 8z"/></svg><svg viewBox="0 0 24 24" id="insert_chart"><path d="M19 3H5c-1.1 0-2 .9-2 2v14c0 1.1.9 2 2 2h14c1.1 0 2-.9 2-2V5c0-1.1-.9-2-2-2zM9 17H7v-7h2v7zm4 0h-2V7h2v10zm4 0h-2v-4h2v4z"/></svg><svg viewBox="0 0 24 24" id="insert_comment"><path d="M20 2H4c-1.1 0-2 .9-2 2v12c0 1.1.9 2 2 2h14l4 4V4c0-1.1-.9-2-2-2zm-2 12H6v-2h12v2zm0-3H6V9h12v2zm0-3H6V6h12v2z"/></svg><svg viewBox="0 0 24 24" id="insert_drive_file"><path d="M6 2c-1.1 0-1.99.9-1.99 2L4 20c0 1.1.89 2 1.99 2H18c1.1 0 2-.9 2-2V8l-6-6H6zm7 7V3.5L18.5 9H13z"/></svg><svg viewBox="0 0 24 24" id="insert_emoticon"><path d="M11.99 2C6.47 2 2 6.48 2 12s4.47 10 9.99 10C17.52 22 22 17.52 22 12S17.52 2 11.99 2zM12 20c-4.42 0-8-3.58-8-8s3.58-8 8-8 8 3.58 8 8-3.58 8-8 8zm3.5-9c.83 0 1.5-.67 1.5-1.5S16.33 8 15.5 8 14 8.67 14 9.5s.67 1.5 1.5 1.5zm-7 0c.83 0 1.5-.67 1.5-1.5S9.33 8 8.5 8 7 8.67 7 9.5 7.67 11 8.5 11zm3.5 6.5c2.33 0 4.31-1.46 5.11-3.5H6.89c.8 2.04 2.78 3.5 5.11 3.5z"/></svg><svg viewBox="0 0 24 24" id="insert_invitation"><path d="M17 12h-5v5h5v-5zM16 1v2H8V1H6v2H5c-1.11 0-1.99.9-1.99 2L3 19c0 1.1.89 2 2 2h14c1.1 0 2-.9 2-2V5c0-1.1-.9-2-2-2h-1V1h-2zm3 18H5V8h14v11z"/></svg><svg viewBox="0 0 24 24" id="insert_link"><path d="M3.9 12c0-1.71 1.39-3.1 3.1-3.1h4V7H7c-2.76 0-5 2.24-5 5s2.24 5 5 5h4v-1.9H7c-1.71 0-3.1-1.39-3.1-3.1zM8 13h8v-2H8v2zm9-6h-4v1.9h4c1.71 0 3.1 1.39 3.1 3.1s-1.39 3.1-3.1 3.1h-4V17h4c2.76 0 5-2.24 5-5s-2.24-5-5-5z"/></svg><svg viewBox="0 0 24 24" id="insert_photo"><path d="M21 19V5c0-1.1-.9-2-2-2H5c-1.1 0-2 .9-2 2v14c0 1.1.9 2 2 2h14c1.1 0 2-.9 2-2zM8.5 13.5l2.5 3.01L14.5 12l4.5 6H5l3.5-4.5z"/></svg><svg viewBox="0 0 24 24" id="merge_type"><path d="M17 20.41L18.41 19 15 15.59 13.59 17 17 20.41zM7.5 8H11v5.59L5.59 19 7 20.41l6-6V8h3.5L12 3.5 7.5 8z"/></svg><svg viewBox="0 0 24 24" id="mode_comment"><path d="M21.99 4c0-1.1-.89-2-1.99-2H4c-1.1 0-2 .9-2 2v12c0 1.1.9 2 2 2h14l4 4-.01-18z"/></svg><svg viewBox="0 0 24 24" id="mode_edit"><path d="M3 17.25V21h3.75L17.81 9.94l-3.75-3.75L3 17.25zM20.71 7.04c.39-.39.39-1.02 0-1.41l-2.34-2.34c-.39-.39-1.02-.39-1.41 0l-1.83 1.83 3.75 3.75 1.83-1.83z"/></svg><svg viewBox="0 0 24 24" id="money_off"><path d="M12.5 6.9c1.78 0 2.44.85 2.5 2.1h2.21c-.07-1.72-1.12-3.3-3.21-3.81V3h-3v2.16c-.53.12-1.03.3-1.48.54l1.47 1.47c.41-.17.91-.27 1.51-.27zM5.33 4.06L4.06 5.33 7.5 8.77c0 2.08 1.56 3.21 3.91 3.91l3.51 3.51c-.34.48-1.05.91-2.42.91-2.06 0-2.87-.92-2.98-2.1h-2.2c.12 2.19 1.76 3.42 3.68 3.83V21h3v-2.15c.96-.18 1.82-.55 2.45-1.12l2.22 2.22 1.27-1.27L5.33 4.06z"/></svg><svg viewBox="0 0 24 24" id="publish"><path d="M5 4v2h14V4H5zm0 10h4v6h6v-6h4l-7-7-7 7z"/></svg><svg viewBox="0 0 24 24" id="space_bar"><path d="M18 9v4H6V9H4v6h16V9z"/></svg><svg viewBox="0 0 24 24" id="strikethrough_s"><path d="M5.9 10h6.3c-.8-.3-1.5-.6-2-.9-.7-.4-1-1-1-1.6 0-.3.1-.6.2-.9.1-.3.3-.5.6-.7.3-.2.6-.4 1-.5.4-.1.8-.2 1.4-.2.5 0 1 .1 1.4.2.4.1.7.3 1 .6.3.2.5.5.6.9.1.3.2.7.2 1.1h4c0-.9-.2-1.7-.5-2.4s-.8-1.4-1.4-1.9c-.6-.5-1.4-1-2.3-1.2-1-.4-2-.5-3.1-.5s-2 .1-2.9.4c-.9.3-1.6.6-2.3 1.1-.6.5-1.1 1-1.4 1.7-.4.7-.6 1.4-.6 2.2 0 .8.2 1.6.5 2.2.1.2.2.3.3.4zM23 12H1v2h11.9c.2.1.5.2.7.3.5.2.9.5 1.2.7.3.2.5.5.6.8.1.3.1.6.1.9 0 .3-.1.6-.2.9-.1.3-.3.5-.6.7-.2.2-.6.3-.9.5-.4.1-.8.2-1.4.2-.6 0-1.1-.1-1.6-.2s-.9-.3-1.2-.6c-.3-.3-.6-.6-.8-1-.2-.4-.3-1-.3-1.6h-4c0 .7.1 1.5.3 2.1.2.6.5 1.1.9 1.6s.8.9 1.3 1.2c.5.3 1 .6 1.6.9.6.2 1.2.4 1.8.5.6.1 1.3.2 1.9.2 1.1 0 2-.1 2.9-.4.9-.2 1.6-.6 2.2-1.1.6-.5 1.1-1 1.4-1.7.3-.7.5-1.4.5-2.3 0-.8-.1-1.5-.4-2.2-.1-.2-.1-.3-.2-.4H23v-2z"/></svg><svg viewBox="0 0 24 24" id="vertical_align_bottom"><path d="M16 13h-3V3h-2v10H8l4 4 4-4zM4 19v2h16v-2H4z"/></svg><svg viewBox="0 0 24 24" id="vertical_align_center"><path d="M8 19h3v4h2v-4h3l-4-4-4 4zm8-14h-3V1h-2v4H8l4 4 4-4zM4 11v2h16v-2H4z"/></svg><svg viewBox="0 0 24 24" id="vertical_align_top"><path d="M8 11h3v10h2V11h3l-4-4-4 4zM4 3v2h16V3H4z"/></svg><svg viewBox="0 0 24 24" id="wrap_text"><path d="M4 19h6v-2H4v2zM20 5H4v2h16V5zm-3 6H4v2h13.25c1.1 0 2 .9 2 2s-.9 2-2 2H15v-2l-3 3 3 3v-2h2c2.21 0 4-1.79 4-4s-1.79-4-4-4z"/></svg></defs></svg>