<?xml version="1.0" encoding="utf-8"?><svg xmlns="http://www.w3.org/2000/svg" xmlns:xlink="http://www.w3.org/1999/xlink"><defs><svg viewBox="0 0 24 24" id="attachment"><path d="M7.5 18C4.46 18 2 15.54 2 12.5S4.46 7 7.5 7H18c2.21 0 4 1.79 4 4s-1.79 4-4 4H9.5C8.12 15 7 13.88 7 12.5S8.12 10 9.5 10H17v1.5H9.5c-.55 0-1 .45-1 1s.45 1 1 1H18c1.38 0 2.5-1.12 2.5-2.5S19.38 8.5 18 8.5H7.5c-2.21 0-4 1.79-4 4s1.79 4 4 4H17V18H7.5z"/></svg><svg viewBox="0 0 24 24" id="cloud"><path d="M19.35 10.04C18.67 6.59 15.64 4 12 4 9.11 4 6.6 5.64 5.35 8.04 2.34 8.36 0 10.91 0 14c0 3.31 2.69 6 6 6h13c2.76 0 5-2.24 5-5 0-2.64-2.05-4.78-4.65-4.96z"/></svg><svg viewBox="0 0 24 24" id="cloud_circle"><path d="M12 2C6.48 2 2 6.48 2 12s4.48 10 10 10 10-4.48 10-10S17.52 2 12 2zm4.5 14H8c-1.66 0-3-1.34-3-3s1.34-3 3-3l.14.01C8.58 8.28 10.13 7 12 7c2.21 0 4 1.79 4 4h.5c1.38 0 2.5 1.12 2.5 2.5S17.88 16 16.5 16z"/></svg><svg viewBox="0 0 24 24" id="cloud_done"><path d="M19.35 10.04C18.67 6.59 15.64 4 12 4 9.11 4 6.6 5.64 5.35 8.04 2.34 8.36 0 10.91 0 14c0 3.31 2.69 6 6 6h13c2.76 0 5-2.24 5-5 0-2.64-2.05-4.78-4.65-4.96zM10 17l-3.5-3.5 1.41-1.41L10 14.17 15.18 9l1.41 1.41L10 17z"/></svg><svg viewBox="0 0 24 24" id="cloud_download"><path d="M19.35 10.04C18.67 6.59 15.64 4 12 4 9.11 4 6.6 5.64 5.35 8.04 2.34 8.36 0 10.91 0 14c0 3.31 2.69 6 6 6h13c2.76 0 5-2.24 5-5 0-2.64-2.05-4.78-4.65-4.96zM17 13l-5 5-5-5h3V9h4v4h3z"/></svg><svg viewBox="0 0 24 24" id="cloud_off"><path d="M19.35 10.04C18.67 6.59 15.64 4 12 4c-1.48 0-2.85.43-4.01 1.17l1.46 1.46C10.21 6.23 11.08 6 12 6c3.04 0 5.5 2.46 5.5 5.5v.5H19c1.66 0 3 1.34 3 3 0 1.13-.64 2.11-1.56 2.62l1.45 1.45C23.16 18.16 24 16.68 24 15c0-2.64-2.05-4.78-4.65-4.96zM3 5.27l2.75 2.74C2.56 8.15 0 10.77 0 14c0 3.31 2.69 6 6 6h11.73l2 2L21 20.73 4.27 4 3 5.27zM7.73 10l8 8H6c-2.21 0-4-1.79-4-4s1.79-4 4-4h1.73z"/></svg><svg viewBox="0 0 24 24" id="cloud_queue"><path d="M19.35 10.04C18.67 6.59 15.64 4 12 4 9.11 4 6.6 5.64 5.35 8.04 2.34 8.36 0 10.91 0 14c0 3.31 2.69 6 6 6h13c2.76 0 5-2.24 5-5 0-2.64-2.05-4.78-4.65-4.96zM19 18H6c-2.21 0-4-1.79-4-4s1.79-4 4-4h.71C7.37 7.69 9.48 6 12 6c3.04 0 5.5 2.46 5.5 5.5v.5H19c1.66 0 3 1.34 3 3s-1.34 3-3 3z"/></svg><svg viewBox="0 0 24 24" id="cloud_upload"><path d="M19.35 10.04C18.67 6.59 15.64 4 12 4 9.11 4 6.6 5.64 5.35 8.04 2.34 8.36 0 10.91 0 14c0 3.31 2.69 6 6 6h13c2.76 0 5-2.24 5-5 0-2.64-2.05-4.78-4.65-4.96zM14 13v4h-4v-4H7l5-5 5 5h-3z"/></svg><svg viewBox="0 0 24 24" id="file_download"><path d="M19 9h-4V3H9v6H5l7 7 7-7zM5 18v2h14v-2H5z"/></svg><svg viewBox="0 0 24 24" id="file_upload"><path d="M9 16h6v-6h4l-7-7-7 7h4zm-4 2h14v2H5z"/></svg><svg viewBox="0 0 24 24" id="folder"><path d="M10 4H4c-1.1 0-1.99.9-1.99 2L2 18c0 1.1.9 2 2 2h16c1.1 0 2-.9 2-2V8c0-1.1-.9-2-2-2h-8l-2-2z"/></svg><svg viewBox="0 0 24 24" id="folder_open"><path d="M20 6h-8l-2-2H4c-1.1 0-1.99.9-1.99 2L2 18c0 1.1.9 2 2 2h16c1.1 0 2-.9 2-2V8c0-1.1-.9-2-2-2zm0 12H4V8h16v10z"/></svg><svg viewBox="0 0 24 24" id="folder_shared"><path d="M20 6h-8l-2-2H4c-1.1 0-1.99.9-1.99 2L2 18c0 1.1.9 2 2 2h16c1.1 0 2-.9 2-2V8c0-1.1-.9-2-2-2zm-5 3c1.1 0 2 .9 2 2s-.9 2-2 2-2-.9-2-2 .9-2 2-2zm4 8h-8v-1c0-1.33 2.67-2 4-2s4 .67 4 2v1z"/></svg><svg viewBox="0 0 18 18" id="ic_attachment_18px"><defs><path id="ana" d="M0 0h18v18H0V0z"/></defs><clipPath id="anb"><use xlink:href="#ana" overflow="visible"/></clipPath><path clip-path="url(#anb)" d="M15 5H4C1.8 5 0 6.8 0 9s1.8 4 4 4h10v-1H4c-1.7 0-3-1.3-3-3s1.3-3 3-3h11c1.1 0 2 .9 2 2s-.9 2-2 2H6c-.6 0-1-.4-1-1s.4-1 1-1h8V7H6c-1.1 0-2 .9-2 2s.9 2 2 2h9c1.7 0 3-1.3 3-3s-1.3-3-3-3z"/></svg><svg viewBox="0 0 18 18" id="ic_cloud_circle_18px"><path d="M9 1C4.58 1 1 4.58 1 9s3.58 8 8 8 8-3.58 8-8-3.58-8-8-8zm3.5 11H6c-1.38 0-2.5-1.12-2.5-2.5S4.62 7 6 7h.18C6.6 5.84 7.7 5 9 5c1.66 0 3 1.34 3 3h.5c1.1 0 2 .9 2 2s-.9 2-2 2z"/></svg><svg viewBox="0 0 18 18" id="ic_folder_18px"><path d="M10 5L8 3H3c-.55 0-1 .45-1 1v10c0 .55.45 1 1 1h12c.55 0 1-.45 1-1V6c0-.55-.45-1-1-1h-5z"/></svg><svg viewBox="0 0 18 18" id="ic_folder_open_18px"><path d="M15 5h-5L8 3H3c-.55 0-1 .45-1 1v10c0 .55.45 1 1 1h12c.55 0 1-.45 1-1V6c0-.55-.45-1-1-1zm-1 8H4V7h10v6z"/></svg><svg viewBox="0 0 18 18" id="ic_folder_shared_18px"><path d="M16 4h-6L8 2H2c-.55 0-1 .45-1 1v12c0 .55.45 1 1 1h14c.55 0 1-.45 1-1V5c0-.55-.45-1-1-1zm-4.5 2.75c.97 0 1.75.78 1.75 1.75s-.78 1.75-1.75 1.75-1.75-.78-1.75-1.75.78-1.75 1.75-1.75zM15 14H8v-1.25C8 11.58 10.33 11 11.5 11s3.5.58 3.5 1.75V14z"/></svg></defs></svg>