<?xml version="1.0" encoding="utf-8"?>
<!-- Generator: Adobe Illustrator 19.1.0, SVG Export Plug-In . SVG Version: 6.00 Build 0)  -->
<svg version="1.1" xmlns="http://www.w3.org/2000/svg" xmlns:xlink="http://www.w3.org/1999/xlink" x="0px" y="0px"
	 viewBox="-450 452 98 98" style="enable-background:new -450 452 98 98;" xml:space="preserve">
<style type="text/css">
	.st0{fill:none;stroke:#FFFFFF;stroke-width:2.053;stroke-miterlimit:10;}
	.st1{fill:url(#SVGID_1_);}
	.st2{fill:#939393;stroke:#231F20;stroke-width:0.3079;stroke-miterlimit:10;}
	.st3{fill:#858585;}
	.st4{fill:#FFFFFF;}
	.st5{fill:#1B486D;}
</style>
<g id="Layer_2">
	<path class="st0" d="M-416.8,495.8"/>
	<linearGradient id="SVGID_1_" gradientUnits="userSpaceOnUse" x1="-407.6369" y1="454.7456" x2="-407.0096" y2="543.8192">
		<stop  offset="0" style="stop-color:#555658"/>
		<stop  offset="1" style="stop-color:#141414"/>
	</linearGradient>
	<path class="st1" d="M-383.5,544.6h-47.7c-2.4,0-4.3-1.9-4.3-4.3v-82.9c0-2.4,1.9-4.3,4.3-4.3h47.7c2.4,0,4.3,1.9,4.3,4.3v82.9
		C-379.2,542.7-381.1,544.6-383.5,544.6z"/>
	<rect x="-432.2" y="460.4" class="st2" width="49.7" height="74.2"/>
	<path class="st3" d="M-389.4,539.3h-40.7c-0.4,0-0.8-0.4-0.8-0.8l0,0c0-0.4,0.4-0.8,0.8-0.8h40.7c0.4,0,0.8,0.4,0.8,0.8l0,0
		C-388.6,539-389,539.3-389.4,539.3z"/>
	<ellipse class="st4" cx="-418" cy="503.1" rx="6.3" ry="5.7"/>
	<g>
		<path class="st4" d="M-418,485.8c0,0,0.1-0.1,0.4-0.2c0.2-0.1,0.6-0.3,1-0.5c0.4-0.2,0.9-0.5,1.6-0.6c0.7-0.2,1.4-0.4,2.3-0.5
			c0.8-0.1,1.8-0.2,2.7-0.1c1,0.1,2,0.2,3.1,0.5c1.1,0.2,2.1,0.7,3.2,1.2c0.5,0.3,1,0.6,1.5,0.9c0.5,0.3,1,0.7,1.5,1.1
			c0.9,0.8,1.8,1.7,2.5,2.7c0.7,1,1.3,2.1,1.6,3.2c0.2,0.5,0.4,1.1,0.5,1.6c0.1,0.5,0.3,1.1,0.3,1.6c0.1,1,0.1,2-0.1,2.9
			c-0.1,0.4-0.1,0.8-0.2,1.2c-0.1,0.4-0.3,0.7-0.4,1.1c-0.1,0.3-0.2,0.6-0.3,0.9c-0.1,0.3-0.3,0.5-0.4,0.7c-0.2,0.4-0.5,0.7-0.6,1
			c-0.2,0.2-0.2,0.3-0.2,0.3l-0.4-0.1c0,0,0.1-0.5,0.2-1.3c0-0.2,0.1-0.4,0.1-0.7c0-0.3,0-0.5,0-0.8c0-0.3,0-0.6,0-0.9
			c0-0.3-0.1-0.7-0.1-1c0-0.7-0.3-1.5-0.4-2.3c-0.1-0.4-0.3-0.8-0.4-1.2c-0.1-0.2-0.2-0.4-0.2-0.6c-0.1-0.2-0.2-0.4-0.3-0.6
			c-0.2-0.4-0.4-0.8-0.7-1.2c-0.3-0.4-0.5-0.8-0.8-1.1c-0.6-0.7-1.3-1.4-2-2c-0.4-0.3-0.7-0.6-1.1-0.9c-0.4-0.3-0.8-0.6-1.2-0.8
			c-0.8-0.5-1.7-0.9-2.5-1.2c-0.8-0.4-1.7-0.6-2.5-0.8c-0.8-0.2-1.6-0.3-2.3-0.4c-0.7-0.1-1.4-0.1-2-0.2c-0.6-0.1-1.1,0-1.6,0
			c-0.9,0-1.4,0-1.4,0L-418,485.8z"/>
	</g>
	<g>
		<path class="st4" d="M-416.7,493.4c0,0,0.1-0.1,0.2-0.2c0.1-0.1,0.3-0.3,0.5-0.5c0.2-0.2,0.4-0.5,0.8-0.6c0.3-0.2,0.8-0.4,1.2-0.6
			c0.4-0.1,1-0.3,1.5-0.3c0.5,0,1.1-0.1,1.7,0.1c1.2,0.2,2.5,0.8,3.6,1.7c1.1,0.9,1.9,2.2,2.2,3.5c0.2,0.6,0.2,1.3,0.2,1.9
			c0,0.6-0.1,1.2-0.3,1.6c-0.1,0.2-0.2,0.5-0.3,0.7c-0.1,0.2-0.2,0.4-0.4,0.6c-0.2,0.3-0.5,0.6-0.7,0.8c-0.2,0.2-0.4,0.3-0.6,0.4
			c-0.1,0.1-0.2,0.1-0.2,0.1l-0.4-0.1c0,0,0-0.2,0.1-0.6c0-0.2,0-0.4,0-0.7c0-0.3,0-0.6-0.1-0.9c0-0.3-0.1-0.7-0.2-1.1
			c-0.1-0.4-0.2-0.8-0.5-1.1c-0.2-0.4-0.4-0.7-0.7-1.1c-0.3-0.3-0.6-0.7-0.9-0.9c-0.3-0.3-0.7-0.5-1.1-0.8c-0.4-0.2-0.8-0.4-1.2-0.6
			c-0.4-0.2-0.8-0.3-1.2-0.4c-0.4-0.1-0.7-0.1-1.1-0.2c-0.3,0-0.6-0.1-0.9-0.1c-0.3,0-0.5,0-0.7,0c-0.4,0-0.6,0-0.6,0L-416.7,493.4z
			"/>
	</g>
	<g>
		<path class="st4" d="M-418,478.3c0,0,0.2-0.1,0.5-0.2c0.3-0.1,0.8-0.3,1.5-0.5c0.6-0.2,1.4-0.5,2.3-0.6c0.9-0.2,2-0.4,3.2-0.4
			c1.2,0,2.5-0.1,3.8,0.1c1.3,0.2,2.8,0.3,4.2,0.8c1.5,0.4,2.9,1,4.4,1.7c0.7,0.4,1.4,0.8,2.1,1.3c0.3,0.2,0.7,0.4,1,0.7l1,0.8
			c1.3,1.1,2.4,2.4,3.4,3.7c0.5,0.7,0.9,1.4,1.3,2.1c0.4,0.7,0.7,1.5,1,2.2c0.1,0.4,0.3,0.7,0.4,1.1c0.1,0.4,0.2,0.7,0.3,1.1
			c0.2,0.7,0.4,1.4,0.5,2.1c0.1,0.7,0.2,1.4,0.2,2c0.1,0.7,0,1.3-0.1,1.9c-0.1,0.6-0.1,1.2-0.2,1.7c-0.1,0.5-0.3,1-0.4,1.5
			c-0.1,0.5-0.2,0.9-0.4,1.3c-0.1,0.4-0.3,0.7-0.5,1c-0.3,0.6-0.5,1.1-0.7,1.4c-0.2,0.3-0.3,0.5-0.3,0.5l-0.4-0.1
			c0,0,0.1-0.7,0.3-1.9c0-0.3,0.1-0.7,0.1-1c0-0.4,0-0.8,0-1.2c0-0.4,0-0.9,0-1.4c-0.1-0.5-0.1-1-0.2-1.5c-0.1-1.1-0.4-2.2-0.6-3.4
			c-0.1-0.6-0.4-1.2-0.6-1.8c-0.1-0.3-0.2-0.6-0.3-0.9c-0.1-0.3-0.3-0.6-0.5-0.9c-0.3-0.6-0.6-1.2-1-1.8c-0.4-0.6-0.8-1.1-1.2-1.7
			c-0.9-1-1.8-2.1-3-3l-0.8-0.7c-0.3-0.2-0.6-0.4-0.9-0.6c-0.6-0.4-1.1-0.8-1.8-1.2c-0.6-0.3-1.2-0.7-1.8-1
			c-0.6-0.3-1.3-0.5-1.9-0.8c-1.2-0.5-2.5-0.8-3.7-1.2c-1.2-0.3-2.3-0.4-3.4-0.6c-1.1-0.1-2-0.2-2.9-0.3c-0.9-0.1-1.6,0-2.3-0.1
			c-1.3,0-2,0-2,0L-418,478.3z"/>
	</g>
</g>
<g id="Layer_1">
	<circle class="st5" cx="-374.2" cy="527.2" r="22"/>
	<path id="gear_1_" class="st4" d="M-361.9,528.8c0.1-0.5,0.1-1,0.1-1.6c0-0.5-0.1-1.1-0.1-1.6l3.5-2.7c0.3-0.3,0.4-0.7,0.2-1
		l-3.3-5.7c-0.2-0.3-0.6-0.5-1-0.3l-4.1,1.6c-0.9-0.7-1.8-1.2-2.8-1.6l-0.6-4.3c-0.1-0.4-0.4-0.7-0.8-0.7h-6.6
		c-0.4,0-0.8,0.3-0.8,0.7l-0.6,4.3c-1,0.4-1.9,0.9-2.8,1.6l-4.1-1.6c-0.3-0.2-0.8,0-1,0.3l-3.3,5.7c-0.2,0.3-0.1,0.8,0.2,1l3.5,2.7
		c-0.1,0.5-0.1,1-0.1,1.6c0,0.5,0.1,1.1,0.1,1.6l-3.5,2.7c-0.3,0.3-0.4,0.7-0.2,1l3.3,5.7c0.2,0.3,0.6,0.5,1,0.3l4.1-1.6
		c0.9,0.7,1.8,1.2,2.8,1.6l0.6,4.3c0.1,0.4,0.4,0.7,0.8,0.7h6.6c0.4,0,0.8-0.3,0.8-0.7l0.6-4.3c1-0.4,1.9-0.9,2.8-1.6l4.1,1.6
		c0.3,0.2,0.8,0,1-0.3l3.3-5.7c0.2-0.3,0.1-0.8-0.2-1L-361.9,528.8z M-374.1,533c-3.2,0-5.8-2.6-5.8-5.8c0-3.2,2.6-5.8,5.8-5.8
		s5.8,2.6,5.8,5.8C-368.3,530.4-371,533-374.1,533z"/>
</g>
</svg>
