<?xml version="1.0" encoding="utf-8"?>
<!-- Generator: Adobe Illustrator 19.1.0, SVG Export Plug-In . SVG Version: 6.00 Build 0)  -->
<svg version="1.1" id="Layer_1" xmlns="http://www.w3.org/2000/svg" xmlns:xlink="http://www.w3.org/1999/xlink" x="0px" y="0px"
	 viewBox="-450 452 98 98" style="enable-background:new -450 452 98 98;" xml:space="preserve">
<style type="text/css">
	.st0{fill:#CCCACA;stroke:#545454;stroke-miterlimit:10;}
	.st1{fill:#1B486D;}
	.st2{fill:#CCCCCC;}
</style>
<path class="st0" d="M-354,499.4c-2.6-3-7.6-5.8-11.5-7c-1.4-0.5-3.2-1.1-4.8-1.9c0.2-0.6,0.3-1,0.3-1l-4.6-2.3l-0.3-3.3
	c0,0,1.7-1.8,2.5-2.7c2.6-3.5,0.6-11,0.6-11s-1-12.3-11.1-12.4c-11.8,0-12.7,12.6-12.7,12.6s-0.3,7.3,2.3,10.8
	c0.6,1,2.5,2.7,2.5,2.7l-0.3,3.2l-4.6,2.2c0,0,0.2,0.3,0.3,1c-1.6,0.8-3.4,1.6-4.8,1.9c-4.1,1.1-9.1,3.9-11.5,7
	c-1.6,1.9-1.3,9.5-1.3,9.5s1.4,2.6,3.5,4.1c2.1,1.3,6.2,2.6,6.2,2.6s5.1,4.2,20.6,4.2s20.6-4.2,20.6-4.2s4.1-1.3,6.2-2.6
	c2.1-1.3,3.5-4.1,3.5-4.1S-352.4,501.3-354,499.4z"/>
<path class="st0" d="M-378.5,513.9c-3.1-3.6-9.1-7-13.9-8.4c-1.7-0.6-3.9-1.4-5.8-2.3c0.3-0.8,0.3-1.2,0.3-1.2l-5.5-2.8l-0.3-4
	c0,0,2-2.2,3-3.3c3.1-4.2,0.8-13.3,0.8-13.3s-1.2-14.8-13.4-15c-14.2,0-15.3,15.2-15.3,15.2s-0.3,8.8,2.8,13c0.8,1.2,3,3.3,3,3.3
	l-0.3,3.9l-5.5,2.7c0,0,0.3,0.3,0.3,1.2c-1.9,1-4.1,1.9-5.8,2.3c-4.9,1.4-10.9,4.7-13.9,8.4c-1.9,2.3-1.6,11.4-1.6,11.4
	s1.7,3.1,4.2,4.9c2.5,1.6,7.4,3.1,7.4,3.1s6.2,5.1,24.8,5.1c18.6,0,24.8-5.1,24.8-5.1s4.9-1.6,7.4-3.1c2.5-1.6,4.2-4.9,4.2-4.9
	S-376.5,516.2-378.5,513.9z"/>
<circle class="st1" cx="-374" cy="528" r="22"/>
<path id="gear" class="st2" d="M-359.8,529.9c0.1-0.6,0.1-1.2,0.1-1.9c0-0.6-0.1-1.3-0.1-1.9l4-3.1c0.4-0.3,0.5-0.8,0.2-1.2
	l-3.8-6.6c-0.2-0.4-0.7-0.6-1.2-0.4l-4.7,1.9c-1-0.8-2.1-1.4-3.2-1.9l-0.7-5c-0.1-0.5-0.5-0.8-0.9-0.8h-7.6c-0.5,0-0.9,0.3-0.9,0.8
	l-0.7,5c-1.2,0.5-2.2,1.1-3.2,1.9l-4.7-1.9c-0.4-0.2-0.9,0-1.2,0.4l-3.8,6.6c-0.2,0.4-0.1,0.9,0.2,1.2l4,3.1
	c-0.1,0.6-0.1,1.2-0.1,1.9c0,0.6,0.1,1.3,0.1,1.9l-4,3.1c-0.4,0.3-0.5,0.8-0.2,1.2l3.8,6.6c0.2,0.4,0.7,0.6,1.2,0.4l4.7-1.9
	c1,0.8,2.1,1.4,3.2,1.9l0.7,5c0.1,0.5,0.5,0.8,0.9,0.8h7.6c0.5,0,0.9-0.3,0.9-0.8l0.7-5c1.2-0.5,2.2-1.1,3.2-1.9l4.7,1.9
	c0.4,0.2,0.9,0,1.2-0.4l3.8-6.6c0.2-0.4,0.1-0.9-0.2-1.2L-359.8,529.9z M-373.9,534.7c-3.7,0-6.7-3-6.7-6.7s3-6.7,6.7-6.7
	s6.7,3,6.7,6.7S-370.3,534.7-373.9,534.7z"/>
</svg>
