<?xml version="1.0" encoding="utf-8"?><svg xmlns="http://www.w3.org/2000/svg" xmlns:xlink="http://www.w3.org/1999/xlink"><defs><svg viewBox="0 0 24 24" id="add_alert"><path d="M10.01 21.01c0 1.1.89 1.99 1.99 1.99s1.99-.89 1.99-1.99h-3.98zm8.87-4.19V11c0-3.25-2.25-5.97-5.29-6.69v-.72C13.59 2.71 12.88 2 12 2s-1.59.71-1.59 1.59v.72C7.37 5.03 5.12 7.75 5.12 11v5.82L3 18.94V20h18v-1.06l-2.12-2.12zM16 13.01h-3v3h-2v-3H8V11h3V8h2v3h3v2.01z"/></svg><svg viewBox="0 0 24 24" id="error"><path d="M12 2C6.48 2 2 6.48 2 12s4.48 10 10 10 10-4.48 10-10S17.52 2 12 2zm1 15h-2v-2h2v2zm0-4h-2V7h2v6z"/></svg><svg viewBox="0 0 24 24" id="error_outline"><path d="M11 15h2v2h-2zm0-8h2v6h-2zm.99-5C6.47 2 2 6.48 2 12s4.47 10 9.99 10C17.52 22 22 17.52 22 12S17.52 2 11.99 2zM12 20c-4.42 0-8-3.58-8-8s3.58-8 8-8 8 3.58 8 8-3.58 8-8 8z"/></svg><svg viewBox="0 0 18 18" id="ic_error_18px"><path d="M9 1.03c-4.42 0-8 3.58-8 8s3.58 8 8 8 8-3.58 8-8-3.58-8-8-8zM10 13H8v-2h2v2zm0-3H8V5h2v5z"/></svg><svg viewBox="0 0 36 36" id="ic_error_36px"><path d="M18 3C9.72 3 3 9.72 3 18s6.72 15 15 15c8.28 0 15-6.72 15-15S26.28 3 18 3zm1 22h-2v-2h2v2zm0-5h-2v-9h2v9z"/></svg><svg viewBox="0 0 18 18" id="ic_warning_18px"><path d="M.5 16h17L9 1 .5 16zm9.5-2H8v-2h2v2zm0-3H8V7h2v4z"/></svg><svg viewBox="0 0 36 36" id="ic_warning_36px"><path d="M1 32h34L18 3 1 32zm18-5h-2v-2h2v2zm0-5h-2v-7h2v7z"/></svg><svg viewBox="0 0 24 24" id="warning"><path d="M1 21h22L12 2 1 21zm12-3h-2v-2h2v2zm0-4h-2v-4h2v4z"/></svg></defs></svg>