<?xml version="1.0" encoding="utf-8"?>
<!-- Generator: Adobe Illustrator 19.2.1, SVG Export Plug-In . SVG Version: 6.00 Build 0)  -->
<svg version="1.1" id="Layer_1" xmlns="http://www.w3.org/2000/svg" xmlns:xlink="http://www.w3.org/1999/xlink" x="0px" y="0px"
	 viewBox="0 0 385 385" style="enable-background:new 0 0 385 385;" xml:space="preserve">
<style type="text/css">
	.st0{fill:none;}
	.st1{fill:url(#SVGID_1_);}
	.st2{fill:url(#SVGID_2_);}
	.st3{fill:url(#SVGID_3_);}
	.st4{fill:url(#SVGID_4_);}
	.st5{fill:url(#SVGID_5_);}
	.st6{fill:#F4F9F4;}
	.st7{font-family:'ArialMT';}
	.st8{font-size:48px;}
	.st9{fill:none;stroke:#5A6E5C;stroke-width:2;stroke-miterlimit:10;}
	.st10{fill:#19496E;}
	.st11{fill:#ECE3E4;}
</style>
<g>
	<path class="st0" d="M303.4,50.5H80.9c-15.7,0-28.8,11.7-31,26.8c2.4-3.2,6.3-5.3,10.6-5.3h68.6c7.3,0,13.4,6,13.4,13.4v250.1h0.9
		V70c0-7.3,6-13.4,13.4-13.4h68.7c7.3,0,13.4,6,13.4,13.4v16.3c1.9-5,6.8-8.6,12.5-8.6h68.9c7.4,0,13.4,6,13.4,13.4v221.1
		c0.7-2.5,1-5.1,1-7.9V81.8C334.7,64.6,320.6,50.5,303.4,50.5z"/>
	<linearGradient id="SVGID_1_" gradientUnits="userSpaceOnUse" x1="47.2195" y1="203.75" x2="142.5648" y2="203.75">
		<stop  offset="0" style="stop-color:#B3553D"/>
		<stop  offset="1" style="stop-color:#802E1E"/>
	</linearGradient>
	<path class="st1" d="M129.2,72H60.6c-4.3,0-8.2,2.1-10.6,5.3c-0.2,1.5-0.3,2.9-0.3,4.5v222.4c0,17.2,14.1,31.3,31.3,31.3h61.7V85.4
		C142.6,78,136.6,72,129.2,72z"/>
	<linearGradient id="SVGID_2_" gradientUnits="userSpaceOnUse" x1="143.4753" y1="196.0752" x2="238.895" y2="196.0752">
		<stop  offset="0" style="stop-color:#026580"/>
		<stop  offset="1" style="stop-color:#038193"/>
	</linearGradient>
	<path class="st2" d="M238.9,86.3V70c0-7.3-6-13.4-13.4-13.4h-68.7c-7.3,0-13.4,6-13.4,13.4v265.5H238V91
		C238,89.4,238.3,87.8,238.9,86.3z"/>
	<linearGradient id="SVGID_3_" gradientUnits="userSpaceOnUse" x1="238.0092" y1="196.5752" x2="333.6912" y2="196.5752">
		<stop  offset="0" style="stop-color:#007F5D"/>
		<stop  offset="1" style="stop-color:#00A13C"/>
	</linearGradient>
	<path class="st3" d="M320.3,67.7h-68.9c-5.7,0-10.6,3.6-12.5,8.6v249.2h64.5c14.5,0,26.8-9.9,30.3-23.3V81
		C333.7,73.7,327.7,67.7,320.3,67.7z"/>
	<linearGradient id="SVGID_4_" gradientUnits="userSpaceOnUse" x1="143.4754" y1="210.8973" x2="238.8949" y2="210.8973">
		<stop  offset="0" style="stop-color:#026580"/>
		<stop  offset="1" style="stop-color:#038193"/>
	</linearGradient>
	<path class="st4" d="M238,91v244.5h0.9V86.3C238.3,87.8,238,89.4,238,91z"/>
	<linearGradient id="SVGID_5_" gradientUnits="userSpaceOnUse" x1="238.0092" y1="210.8973" x2="333.6912" y2="210.8973">
		<stop  offset="0" style="stop-color:#007F5D"/>
		<stop  offset="1" style="stop-color:#00A13C"/>
	</linearGradient>
	<path class="st5" d="M238,91v244.5h0.9V86.3C238.3,87.8,238,89.4,238,91z"/>
</g>
<text transform="matrix(2.244830e-10 1 -1 2.244830e-10 271.0469 89.0068)" class="st6 st7 st8">MATH</text>
<text transform="matrix(2.244830e-10 1 -1 2.244830e-10 174.0469 91.1738)" class="st6 st7 st8">PHYSICS</text>
<text transform="matrix(2.244830e-10 1 -1 2.244830e-10 82.0898 108.2734)" class="st6 st7 st8">ENGLISH</text>
<path id="square_9_" class="st9" d="M303.4,335.5H80.9c-17.2,0-31.3-14.1-31.3-31.3V81.8c0-17.2,14.1-31.3,31.3-31.3h222.5
	c17.2,0,31.3,14.1,31.3,31.3v222.5C334.7,321.5,320.6,335.5,303.4,335.5z"/>
<g id="Layer_3_1_">
	<g id="Gear_1_">
		<ellipse class="st10" cx="294.9" cy="298" rx="67.1" ry="68.1"/>
		<path class="st11" d="M327,248.2l-5.3,6.2c-2.6-1.4-5.3-3-7.9-4.3l1.4-8.2c0-0.9-0.4-1.4-1-1.9l-2.6-0.9c-0.9-0.4-1.9,0-1.9,0.9
			l-3,7.8c-3-0.9-6.2-0.9-9.2-1l-1-8.2c0-0.9-0.9-1.4-1.9-1.4H292c-0.9,0-1.4,0.9-1.4,1.4l-0.4,8.6c-3,0.4-6.2,1-8.8,1.9l-4.3-7.3
			c-0.4-0.9-1.4-1-2.3-0.9l-2.3,1c-0.9,0.4-1,1-0.9,1.9l2.6,8.2c-2.6,1.4-5.3,3-7.8,5.2l-6.5-5.8c-0.9-0.4-1.4-0.4-2.3,0l-1.9,1.4
			c-0.9,0.4-0.9,1.4,0,2.3l5.3,7.1c-1.9,2.3-3.9,4.8-5.3,7.3l-7.9-3c-0.9-0.4-1.9,0-1.9,0.9l-1,2.3c-0.4,0.9,0,1.4,0.4,2.3l7.3,4.8
			c-1,2.7-1.9,5.3-2.6,8.6l0,0h-8.8c-0.9,0-1.4,0.9-1.4,1.4l-0.4,2.7c0,0.9,0.4,1.4,1,1.9l8.3,1.9c0,1.4,0,3,0,5.2
			c0,1,0.4,2.7,0.4,4.3l0,0l-8.3,2.7c-0.9,0.4-1,1-1,1.9l0.9,2.7c0,0.9,1,1.4,1.9,1l8.3-1c0.9,2.7,1.9,5.8,3.5,8.2l-7.6,5.9
			c-0.9,0.4-0.9,1.4-0.4,2.3l1.4,2.3c0.4,0.9,1.4,1,2.3,0.9l7.8-4.3c1.9,2.3,3.9,4.8,6.2,6.6l-4.5,7.3c-0.4,0.9-0.4,1.4,0.4,2.3
			l2.3,1.4c0.9,0.4,1.4,0.4,2.3,0l5.8-6.6c2.6,1.4,5.3,3,7.9,4.3l-1.4,8.6c0,0.9,0.4,1.4,1,1.9l2.6,0.9c0.9,0.4,1.9,0,1.9-0.9l3-7.8
			c3,0.9,5.8,1,8.8,1l1,8.6c0,0.9,0.9,1.4,1.9,1.4h2.6c0.9,0,1.4-0.9,1.4-1.4l0.4-8.6c3-0.4,6.2-1,8.8-1.9l3.9,7.3
			c0.4,0.9,1.4,1,2.3,0.9l2.3-1c0.9-0.4,1-1,0.9-1.9l-2.6-7.8c2.6-1.4,5.3-3,7.8-5.2l6.2,5.3c0.9,0.4,1.4,0.4,2.3,0l1.9-1.9
			c0.9-0.4,0.9-1.4,0-2.3l-4.9-6.2c1.9-2.3,3.9-4.8,5.8-7.3l7.8,3c0.9,0.4,1.9,0,1.9-0.9l1-2.3c0.4-0.9,0-1.4-0.4-2.3l-6.9-4.3
			c1-2.7,1.9-5.8,2.6-9.1h7.9c0.9,0,1.4-0.9,1.4-1.4l0.4-2.7c0-0.9-0.4-1.4-1-1.9l-7.8-1.4c0-1.4,0-3.5,0-5.2c0-1.4-0.4-2.7-0.4-4.3
			l7.8-2.7c0.9-0.4,1-1,1-1.9l-0.9-2.7c0-0.9-1-1.4-1.9-1l-7.8,1c-0.9-3-2.3-5.8-3.9-8.6l6.2-5.2c0.9-0.4,0.9-1.4,0.4-2.3l-1.4-2.3
			c-0.4-0.9-1.4-1-2.3-0.9l-6.9,3.9c-1.9-2.3-4.3-4.8-6.2-6.6l4.3-7.1c0.4-0.9,0.4-1.4-0.4-2.3l-2.3-1.4
			C328.9,247.5,327.9,247.5,327,248.2z M293.8,254.8c5.3-0.4,10.8,0.4,15.7,1.9l-9.6,19.3c-1.4-0.4-3-0.4-4.5-0.4
			c-1.9,0-3.5,0.4-4.9,1l-11.8-18.3C283,256.6,288.3,254.8,293.8,254.8z M322.6,326.8l-11.8-18.3c2.3-2.3,3.9-5.3,4.5-9.1l21.4-1
			C335.8,309.7,330.5,319.8,322.6,326.8z M269.6,264.8l11.8,18.3c-1.9,2.3-3.5,5.3-4.3,8.6l-21.4,1
			C256.9,281.3,262,271.7,269.6,264.8z M288.7,296.1c-0.4-4.3,3-8.2,7.3-8.2c4.3-0.4,7.9,3,7.9,7.3s-3,8.2-7.3,8.2
			C292.5,303.5,288.7,300.5,288.7,296.1z M256.5,303.2l21.4-1c1,3,2.6,5.8,4.9,7.8l-9.6,19.3C265.1,323.5,258.9,314,256.5,303.2z
			 M298.7,335.9c-5.8,0.4-11.2-0.4-16.1-2.3l9.6-19.3c1.4,0.4,3.5,0.4,4.9,0.4s3-0.4,4.3-0.9l11.8,18.3
			C309.2,334.6,304,335.9,298.7,335.9z M335.8,287.9l-21.4,1c-1-3-3-6.2-5.3-8.6l9.6-19.3C327.5,267.4,333.9,276.9,335.8,287.9z"/>
	</g>
</g>
</svg>
