<?xml version="1.0" encoding="utf-8"?>
<!-- Generator: Adobe Illustrator 19.2.1, SVG Export Plug-In . SVG Version: 6.00 Build 0)  -->
<svg version="1.1" id="Layer_1" xmlns="http://www.w3.org/2000/svg" xmlns:xlink="http://www.w3.org/1999/xlink" x="0px" y="0px"
	 viewBox="0 0 385 385" style="enable-background:new 0 0 385 385;" xml:space="preserve">
<style type="text/css">
	.st0{fill:none;stroke:#5A6E5C;stroke-width:0.9965;stroke-miterlimit:10;}
	.st1{fill:none;}
	.st2{fill:url(#SVGID_1_);}
	.st3{fill:url(#SVGID_2_);}
	.st4{fill:#231F20;}
	.st5{fill:#555656;}
	.st6{opacity:0.52;fill:url(#SVGID_3_);enable-background:new    ;}
	.st7{opacity:0.52;fill:url(#SVGID_4_);enable-background:new    ;}
	.st8{fill:none;stroke:#FFFFFF;stroke-width:8.4458;stroke-miterlimit:10;}
	.st9{fill:url(#SVGID_5_);}
	.st10{fill:#FFFFFF;}
	.st11{fill:#19496E;}
	.st12{fill:#ECE3E4;}
</style>
<path id="square" class="st0" d="M303.4,335.5H80.9c-17.2,0-31.3-14.1-31.3-31.3V81.8c0-17.2,14.1-31.3,31.3-31.3h222.5
	c17.2,0,31.3,14.1,31.3,31.3v222.5C334.7,321.5,320.6,335.5,303.4,335.5z"/>
<g>
	<path class="st1" d="M237.5,323.8c0,2.5,0,6.4,0.2,10.7h65.7c9.4,0,17.8-4.2,23.5-10.7H237.5z"/>
	<path class="st1" d="M291.4,49.5H80.9c-1,0-1.9,0.1-2.9,0.1h213.3L291.4,49.5z"/>
	
		<linearGradient id="SVGID_1_" gradientUnits="userSpaceOnUse" x1="98.5714" y1="437.1888" x2="98.5714" y2="405.2221" gradientTransform="matrix(1.96 0 0 1.96 0 -472.36)">
		<stop  offset="0" style="stop-color:#CECECE"/>
		<stop  offset="0.4969" style="stop-color:#3A3A3A"/>
		<stop  offset="0.6196" style="stop-color:#3A3A3A"/>
		<stop  offset="1" style="stop-color:#252525"/>
	</linearGradient>
	<path class="st2" d="M237.5,323.8h-88.6c0,2.6,0,6.4-0.2,10.7h89C237.5,330.2,237.4,326.3,237.5,323.8z"/>
	
		<radialGradient id="SVGID_2_" cx="93.1443" cy="338.8895" r="38.9158" gradientTransform="matrix(4.6227 0 0 3.9869 -236.7856 -1164.3982)" gradientUnits="userSpaceOnUse">
		<stop  offset="0" style="stop-color:#FFFFFF"/>
		<stop  offset="1" style="stop-color:#A8A8A8"/>
	</radialGradient>
	<path class="st3" d="M328,323.8c0,0.2,7-9.3,6.9-19.5c-0.1-12-0.1-25-0.1-25H174.6h-125v24c0,7.9,3,15.1,7.8,20.6L328,323.8z"/>
	<path class="st4" d="M309.3,50.1H75c-9,1.7-16.6,7.4-21.1,15h276.8c0,0-5.2-7.4-9.4-9.9C315.8,51.4,309.3,50.1,309.3,50.1z"/>
	<path class="st5" d="M334.7,262.4c0,0-0.8-175.9,0-181.6s-4-15.7-4-15.7L53.9,65c-2.7,4.6-4.3,10-4.3,15.7v181.6L334.7,262.4"/>
	
		<linearGradient id="SVGID_3_" gradientUnits="userSpaceOnUse" x1="170.7987" y1="120.9106" x2="111.4554" y2="248.1733" gradientTransform="matrix(1.96 0 0 1.96 0 -184.24)">
		<stop  offset="0" style="stop-color:#FFFFFF"/>
		<stop  offset="8.962709e-02" style="stop-color:#FFFFFF;stop-opacity:0.9104"/>
		<stop  offset="1" style="stop-color:#FFFFFF;stop-opacity:0"/>
	</linearGradient>
	<path class="st6" d="M328.3,50.1h-97.5l-62.7,228.6h166.5V62.4C335.2,56.1,332,50.1,328.3,50.1z"/>
	
		<linearGradient id="SVGID_4_" gradientUnits="userSpaceOnUse" x1="164.215" y1="251.6138" x2="100.4202" y2="388.4221" gradientTransform="matrix(1.96 0 0 1.96 0 -472.36)">
		<stop  offset="0" style="stop-color:#FFFFFF"/>
		<stop  offset="8.962709e-02" style="stop-color:#FFFFFF;stop-opacity:0.9104"/>
		<stop  offset="1" style="stop-color:#FFFFFF;stop-opacity:0"/>
	</linearGradient>
	<path class="st7" d="M309.3,50.1c-0.7-0.1-1.3-0.2-2-0.3c-0.1,0.1-0.1,0.2-0.2,0.3H309.3z"/>
	<polygon class="st4" points="49.6,279.2 334.7,279.2 334.7,262.4 49.1,262.4 	"/>
</g>
<rect x="183" y="155.5" class="st8" width="84.5" height="84.5"/>
<path d="M319,74c-44.8,56.2-91.2,114-91.2,114l-53.6-28.3c0,0,52.8,58.7,62.1,95c13.1-51.9,60.4-130.9,90.4-180.3L319,74z"/>
<linearGradient id="SVGID_5_" gradientUnits="userSpaceOnUse" x1="175.5265" y1="217.8125" x2="173.4914" y2="141.0395" gradientTransform="matrix(1.96 0 0 1.96 -93.12 -185.24)">
	<stop  offset="0" style="stop-color:#00AA31"/>
	<stop  offset="1" style="stop-color:#A8FF3F"/>
</linearGradient>
<path class="st9" d="M172.4,162.7c13.1,15.6,43.9,53.6,53.6,81.9c0.8,1.7,3.4,1.7,3.4,0c17.3-65.5,48.1-116.6,92.9-186.2
	c1.3-2.5-1.7-5.1-3.4-2.5c-68,83.6-92.9,119.1-97.5,125.8c-1.3,0.8-1.7,0.8-2.5,0.8L175,159.3C173.3,158.5,171.6,161,172.4,162.7z"
	/>
<g>
	<path class="st10" d="M122,223.9c-1.7,0.8-3.4,1.7-6.8,1.7c-2.5,0-4.2-0.8-5.9-1.7c-1.7-1.7-1.7-3.4-1.7-6.8
		c-2.5,3.4-5.1,5.1-8.4,6.8c-3,1.7-6.3,1.7-10.6,1.7c-2.5,0-5.1,0-7.6-0.8s-4.2-1.7-5.9-2.5c-1.7-0.8-3.4-2.5-4.2-5.1
		c0-1.7-0.8-4.2-0.8-6.8c0-3.4,0.8-5.9,1.7-7.6c0.8-1.7,2.5-3.4,4.2-5.1c1.7-0.8,3.4-2.5,5.9-2.5c2.5-0.8,4.2-0.8,6.8-1.7
		s5.1-0.8,7.6-0.8s4.2-0.8,5.9-0.8c1.7-0.8,3.4-0.8,4.2-1.7c0.8-0.8,1.7-2.5,1.7-4.2s0-3.4-0.8-5.1c-1.3,0-1.7-1.7-2.5-1.7
		c-0.8-0.8-2.5-0.8-4.2-1.7c-1.7,0-2.5,0-4.2,0c-4.2,0-6.8,0.8-10.1,2.5c-2.5,1.7-4.2,4.2-4.2,8.4h-9.3c0-3.4,0.8-6.8,2.5-8.4
		c1.7-2.5,3.4-4.2,5.1-5.9c2.5-1.7,4.2-2.5,7.6-3.4c2.5-0.8,5.9-0.8,9.3-0.8c2.5,0,5.1,0,7.6,0.8c2.5,0,5.1,0.8,6.8,2.5
		c1.7,0.8,3.4,2.5,5.1,5.1c0.8,1.7,1.7,4.2,1.7,7.6v28.3c0,2.5,0,3.4,0,5.1c0,0.8,0.8,1.7,2.5,1.7c0.8,0,1.7,0,2.5-0.8v4.2H122
		V223.9z M107.7,196.5c-0.8,0.8-2.5,1.7-4.2,1.7s-4.2,0.8-5.9,0.8s-4.2,0.8-5.9,0.8c-1.7,0-4.2,0.8-5.9,1.7s-3.4,1.7-4.2,3.4
		s-1.7,3.4-1.7,5.1c0,1.7,0,2.5,0.8,4.2s1.7,1.7,2.5,2.5s1.7,0.8,3.4,1.7c1.7,0,2.5,0.8,4.2,0.8c3.4,0,5.9,0,7.6-0.8
		c2.5-0.8,4.2-1.7,5.1-3.4c1.7-0.8,2.5-2.5,3.4-4.2c0.8-1.7,0.8-2.5,0.8-4.2L107.7,196.5z"/>
	<path class="st10" d="M144.4,212.1v11.4H133v-11.4H144.4z"/>
</g>
<path id="square_9_" class="st0" d="M303.4,335.5H80.9c-17.2,0-31.3-14.1-31.3-31.3V81.8c0-17.2,14.1-31.3,31.3-31.3h222.5
	c17.2,0,31.3,14.1,31.3,31.3v222.5C334.7,321.5,320.6,335.5,303.4,335.5z"/>
<g id="Layer_3_1_">
	<g id="Gear_1_">
		<ellipse class="st11" cx="294.9" cy="298" rx="67.1" ry="68.1"/>
		<path class="st12" d="M327,248.2l-5.3,6.2c-2.6-1.4-5.3-3-7.9-4.3l1.4-8.2c0-0.9-0.4-1.4-1-1.9l-2.6-0.9c-0.9-0.4-1.9,0-1.9,0.9
			l-3,7.8c-3-0.9-6.2-0.9-9.2-1l-1-8.2c0-0.9-0.9-1.4-1.9-1.4H292c-0.9,0-1.4,0.9-1.4,1.4l-0.4,8.6c-3,0.4-6.2,1-8.8,1.9l-4.3-7.3
			c-0.4-0.9-1.4-1-2.3-0.9l-2.3,1c-0.9,0.4-1,1-0.9,1.9l2.6,8.2c-2.6,1.4-5.3,3-7.8,5.2l-6.5-5.8c-0.9-0.4-1.4-0.4-2.3,0l-1.9,1.4
			c-0.9,0.4-0.9,1.4,0,2.3l5.3,7.1c-1.9,2.3-3.9,4.8-5.3,7.3l-7.9-3c-0.9-0.4-1.9,0-1.9,0.9l-1,2.3c-0.4,0.9,0,1.4,0.4,2.3l7.3,4.8
			c-1,2.7-1.9,5.3-2.6,8.6l0,0h-8.8c-0.9,0-1.4,0.9-1.4,1.4l-0.4,2.7c0,0.9,0.4,1.4,1,1.9l8.3,1.9c0,1.4,0,3,0,5.2
			c0,1,0.4,2.7,0.4,4.3l0,0l-8.3,2.7c-0.9,0.4-1,1-1,1.9l0.9,2.7c0,0.9,1,1.4,1.9,1l8.3-1c0.9,2.7,1.9,5.8,3.5,8.2l-7.6,5.9
			c-0.9,0.4-0.9,1.4-0.4,2.3l1.4,2.3c0.4,0.9,1.4,1,2.3,0.9l7.8-4.3c1.9,2.3,3.9,4.8,6.2,6.6l-4.5,7.3c-0.4,0.9-0.4,1.4,0.4,2.3
			l2.3,1.4c0.9,0.4,1.4,0.4,2.3,0l5.8-6.6c2.6,1.4,5.3,3,7.9,4.3l-1.4,8.6c0,0.9,0.4,1.4,1,1.9l2.6,0.9c0.9,0.4,1.9,0,1.9-0.9l3-7.8
			c3,0.9,5.8,1,8.8,1l1,8.6c0,0.9,0.9,1.4,1.9,1.4h2.6c0.9,0,1.4-0.9,1.4-1.4l0.4-8.6c3-0.4,6.2-1,8.8-1.9l3.9,7.3
			c0.4,0.9,1.4,1,2.3,0.9l2.3-1c0.9-0.4,1-1,0.9-1.9l-2.6-7.8c2.6-1.4,5.3-3,7.8-5.2l6.2,5.3c0.9,0.4,1.4,0.4,2.3,0l1.9-1.9
			c0.9-0.4,0.9-1.4,0-2.3l-4.9-6.2c1.9-2.3,3.9-4.8,5.8-7.3l7.8,3c0.9,0.4,1.9,0,1.9-0.9l1-2.3c0.4-0.9,0-1.4-0.4-2.3l-6.9-4.3
			c1-2.7,1.9-5.8,2.6-9.1h7.9c0.9,0,1.4-0.9,1.4-1.4l0.4-2.7c0-0.9-0.4-1.4-1-1.9l-7.8-1.4c0-1.4,0-3.5,0-5.2c0-1.4-0.4-2.7-0.4-4.3
			l7.8-2.7c0.9-0.4,1-1,1-1.9l-0.9-2.7c0-0.9-1-1.4-1.9-1l-7.8,1c-0.9-3-2.3-5.8-3.9-8.6l6.2-5.2c0.9-0.4,0.9-1.4,0.4-2.3l-1.4-2.3
			c-0.4-0.9-1.4-1-2.3-0.9l-6.9,3.9c-1.9-2.3-4.3-4.8-6.2-6.6l4.3-7.1c0.4-0.9,0.4-1.4-0.4-2.3l-2.3-1.4
			C328.9,247.5,327.9,247.5,327,248.2z M293.8,254.8c5.3-0.4,10.8,0.4,15.7,1.9l-9.6,19.3c-1.4-0.4-3-0.4-4.5-0.4
			c-1.9,0-3.5,0.4-4.9,1l-11.8-18.3C283,256.6,288.3,254.8,293.8,254.8z M322.6,326.8l-11.8-18.3c2.3-2.3,3.9-5.3,4.5-9.1l21.4-1
			C335.8,309.7,330.5,319.8,322.6,326.8z M269.6,264.8l11.8,18.3c-1.9,2.3-3.5,5.3-4.3,8.6l-21.4,1
			C256.9,281.3,262,271.7,269.6,264.8z M288.7,296.1c-0.4-4.3,3-8.2,7.3-8.2c4.3-0.4,7.9,3,7.9,7.3s-3,8.2-7.3,8.2
			C292.5,303.5,288.7,300.5,288.7,296.1z M256.5,303.2l21.4-1c1,3,2.6,5.8,4.9,7.8l-9.6,19.3C265.1,323.5,258.9,314,256.5,303.2z
			 M298.7,335.9c-5.8,0.4-11.2-0.4-16.1-2.3l9.6-19.3c1.4,0.4,3.5,0.4,4.9,0.4s3-0.4,4.3-0.9l11.8,18.3
			C309.2,334.6,304,335.9,298.7,335.9z M335.8,287.9l-21.4,1c-1-3-3-6.2-5.3-8.6l9.6-19.3C327.5,267.4,333.9,276.9,335.8,287.9z"/>
	</g>
</g>
</svg>
