<?xml version="1.0" encoding="utf-8"?>
<!-- Generator: Adobe Illustrator 19.2.1, SVG Export Plug-In . SVG Version: 6.00 Build 0)  -->
<svg version="1.1" id="Layer_1" xmlns="http://www.w3.org/2000/svg" xmlns:xlink="http://www.w3.org/1999/xlink" x="0px" y="0px"
	 viewBox="0 0 385 385" style="enable-background:new 0 0 385 385;" xml:space="preserve">
<style type="text/css">
	.st0{fill:none;}
	.st1{fill:url(#SVGID_1_);}
	.st2{fill:url(#SVGID_2_);}
	.st3{fill:url(#SVGID_3_);}
	.st4{fill:url(#SVGID_4_);}
	.st5{fill:url(#SVGID_5_);}
	.st6{fill:url(#SVGID_6_);}
	.st7{fill:url(#SVGID_7_);}
	.st8{fill:url(#SVGID_8_);}
	.st9{fill:#CDD0D3;}
	.st10{fill:none;stroke:#58595B;stroke-width:10;stroke-miterlimit:10;}
	.st11{fill:none;stroke:#5A6E5C;stroke-width:0.9965;stroke-miterlimit:10;}
	.st12{fill:#19496E;}
	.st13{fill:#ECE3E4;}
</style>
<g>
	<path class="st0" d="M65.7,54.5c-2.9,1.7-5.6,3.8-7.9,6.2h7.9V54.5z"/>
	<path class="st0" d="M326.5,60.7c-2.4-2.7-5.3-4.9-8.5-6.6v6.6H326.5z"/>
	<rect x="97.4" y="50.5" class="st0" width="188.5" height="10.2"/>
	<path class="st0" d="M333.7,74v37.5v200.7c0.7-2.5,1-5.1,1-7.8V81.8C334.7,79.1,334.4,76.5,333.7,74z"/>
	<path class="st0" d="M85.3,60.7V50.5h-4.4c-1.1,0-2.1,0.1-3.1,0.2v10.1H85.3z"/>
	<path class="st0" d="M305.8,60.7V50.6c-0.8-0.1-1.6-0.1-2.4-0.1h-5.3v10.2H305.8z"/>
	
		<linearGradient id="SVGID_1_" gradientUnits="userSpaceOnUse" x1="205.1462" y1="178.302" x2="204.4229" y2="75.0846" gradientTransform="matrix(1.5145 0 0 -1.5145 11.1364 451.8603)">
		<stop  offset="0" style="stop-color:#FFFFFF"/>
		<stop  offset="1" style="stop-color:#E6E7E8"/>
	</linearGradient>
	<path class="st1" d="M317.9,61.8h9.5c-0.3-0.4-0.6-0.7-0.9-1.1h-8.5V61.8z"/>
	
		<linearGradient id="SVGID_2_" gradientUnits="userSpaceOnUse" x1="32.5655" y1="179.5113" x2="31.8423" y2="76.2939" gradientTransform="matrix(1.5145 0 0 -1.5145 11.1364 451.8603)">
		<stop  offset="0" style="stop-color:#FFFFFF"/>
		<stop  offset="1" style="stop-color:#E6E7E8"/>
	</linearGradient>
	<path class="st2" d="M65.7,60.7h-7.9c-0.3,0.4-0.6,0.7-0.9,1.1h8.8V60.7z"/>
	
		<linearGradient id="SVGID_3_" gradientUnits="userSpaceOnUse" x1="118.6711" y1="178.9079" x2="117.9479" y2="75.6906" gradientTransform="matrix(1.5145 0 0 -1.5145 11.1364 451.8603)">
		<stop  offset="0" style="stop-color:#FFFFFF"/>
		<stop  offset="1" style="stop-color:#E6E7E8"/>
	</linearGradient>
	<rect x="97.4" y="60.7" class="st3" width="188.5" height="1.1"/>
	
		<linearGradient id="SVGID_4_" gradientUnits="userSpaceOnUse" x1="119.3326" y1="178.9033" x2="118.6093" y2="75.6859" gradientTransform="matrix(1.5145 0 0 -1.5145 11.1364 451.8603)">
		<stop  offset="0" style="stop-color:#FFFFFF"/>
		<stop  offset="1" style="stop-color:#E6E7E8"/>
	</linearGradient>
	<path class="st4" d="M49.6,111.5v192.7c0,17.2,14.1,31.3,31.3,31.3h222.5c14.5,0,26.8-9.9,30.3-23.4V111.5H49.6z"/>
	
		<linearGradient id="SVGID_5_" gradientUnits="userSpaceOnUse" x1="191.4636" y1="178.3979" x2="190.7403" y2="75.1805" gradientTransform="matrix(1.5145 0 0 -1.5145 11.1364 451.8603)">
		<stop  offset="0" style="stop-color:#FFFFFF"/>
		<stop  offset="1" style="stop-color:#E6E7E8"/>
	</linearGradient>
	<rect x="298.1" y="60.7" class="st5" width="7.8" height="1.1"/>
	
		<linearGradient id="SVGID_6_" gradientUnits="userSpaceOnUse" x1="45.95" y1="179.4175" x2="45.2267" y2="76.2001" gradientTransform="matrix(1.5145 0 0 -1.5145 11.1364 451.8603)">
		<stop  offset="0" style="stop-color:#FFFFFF"/>
		<stop  offset="1" style="stop-color:#E6E7E8"/>
	</linearGradient>
	<rect x="77.8" y="60.7" class="st6" width="7.6" height="1.1"/>
	
		<linearGradient id="SVGID_7_" gradientUnits="userSpaceOnUse" x1="118.7996" y1="178.907" x2="118.0763" y2="75.6897" gradientTransform="matrix(1.5145 0 0 -1.5145 11.1364 451.8603)">
		<stop  offset="0" style="stop-color:#FFFFFF"/>
		<stop  offset="1" style="stop-color:#E6E7E8"/>
	</linearGradient>
	<path class="st7" d="M333.7,74c-1.2-4.5-3.4-8.7-6.3-12.2h-9.5v16c0,5.4-3.7,9.7-9.7,9.7h-0.6c-1.1,0-1.7-0.6-1.7-0.6V61.8h-7.8
		v17.1c0,5.4-3.7,9.7-9.7,9.7h-0.6c-1.1,0-1.7-1.1-1.7-1.7V61.8H97.4v20.3c0,3.2-2.2,6.5-6.5,6.5h-0.6c-2.2,0-5-2.2-5-5V61.8h-7.6
		v16c0,5.4-4.8,9.7-9.7,9.7h-0.6c-1.1,0-1.7-0.6-1.7-0.6V61.8h-8.8c-4.5,5.4-7.3,12.4-7.3,20v29.7h284.1V74z"/>
	
		<linearGradient id="SVGID_8_" gradientUnits="userSpaceOnUse" x1="24.7539" y1="241.1504" x2="212.9825" y2="241.1504" gradientTransform="matrix(1.5145 0 0 -1.5145 11.1364 451.8603)">
		<stop  offset="0" style="stop-color:#00217F"/>
		<stop  offset="0.1075" style="stop-color:#003787"/>
		<stop  offset="0.2391" style="stop-color:#004C8E"/>
		<stop  offset="0.3702" style="stop-color:#005893"/>
		<stop  offset="0.4991" style="stop-color:#005C94"/>
		<stop  offset="0.6336" style="stop-color:#005893"/>
		<stop  offset="0.7611" style="stop-color:#004D8F"/>
		<stop  offset="0.8854" style="stop-color:#003A88"/>
		<stop  offset="1" style="stop-color:#00217F"/>
	</linearGradient>
	<path class="st8" d="M333.7,74c-1.2-4.5-3.4-8.7-6.3-12.2h-9.5v16c0,5.4-3.7,9.7-9.7,9.7h-0.6c-1.1,0-1.7-0.6-1.7-0.6V61.8h-7.8
		v17.1c0,5.4-3.7,9.7-9.7,9.7h-0.6c-1.1,0-1.7-1.1-1.7-1.7V61.8H97.4v20.3c0,3.2-2.2,6.5-6.5,6.5h-0.6c-2.2,0-5-2.2-5-5V61.8h-7.6
		v16c0,5.4-4.8,9.7-9.7,9.7h-0.6c-1.1,0-1.7-0.6-1.7-0.6V61.8h-8.8c-4.5,5.4-7.3,12.4-7.3,20v29.7h284.1V74z"/>
	<path class="st9" d="M65.7,61.8v25.1c0,0,0.6,0.6,1.7,0.6h0.6c5,0,9.7-4.3,9.7-9.7v-16v-1.1V50.7c-4.3,0.4-8.4,1.8-12.1,3.8v6.2
		V61.8z"/>
	<path class="st9" d="M85.3,61.8v21.8c0,2.8,2.8,5,5,5H91c4.3,0,6.5-3.2,6.5-6.5V61.8v-1.1V50.5H85.3v10.2V61.8z"/>
	<path class="st9" d="M286,61.8v25.1c0,0.6,0.6,1.7,1.7,1.7h0.6c6,0,9.7-4.3,9.7-9.7V61.8v-1.1V50.5H286v10.2V61.8z"/>
	<path class="st9" d="M305.8,61.8v25.1c0,0,0.6,0.6,1.7,0.6h0.6c6,0,9.7-4.3,9.7-9.7v-16v-1.1v-6.6c-3.7-1.9-7.8-3.2-12.1-3.5v10.1
		V61.8z"/>
	<line class="st10" x1="62.5" y1="145" x2="134.5" y2="145"/>
	<line class="st10" x1="152.5" y1="145" x2="224.5" y2="145"/>
	<line class="st10" x1="245.5" y1="145" x2="317.5" y2="145"/>
	<line class="st10" x1="62.5" y1="185" x2="134.5" y2="185"/>
	<line class="st10" x1="152.5" y1="185" x2="224.5" y2="185"/>
	<line class="st10" x1="245.5" y1="185" x2="317.5" y2="185"/>
	<line class="st10" x1="62.5" y1="225" x2="134.5" y2="225"/>
	<line class="st10" x1="152.5" y1="225" x2="224.5" y2="225"/>
	<line class="st10" x1="245.5" y1="225" x2="317.5" y2="225"/>
	<line class="st10" x1="62.5" y1="265" x2="134.5" y2="265"/>
	<line class="st10" x1="152.5" y1="265" x2="224.5" y2="265"/>
	<line class="st10" x1="245.5" y1="265" x2="317.5" y2="265"/>
	<line class="st10" x1="62.5" y1="305" x2="134.5" y2="305"/>
	<line class="st10" x1="152.5" y1="305" x2="224.5" y2="305"/>
	<line class="st10" x1="245.5" y1="305" x2="317.5" y2="305"/>
</g>
<path id="square_9_" class="st11" d="M303.4,335.5H80.9c-17.2,0-31.3-14.1-31.3-31.3V81.8c0-17.2,14.1-31.3,31.3-31.3h222.5
	c17.2,0,31.3,14.1,31.3,31.3v222.5C334.7,321.5,320.6,335.5,303.4,335.5z"/>
<g id="Layer_3_1_">
	<g id="Gear_1_">
		<ellipse class="st12" cx="294.9" cy="298" rx="67.1" ry="68.1"/>
		<path class="st13" d="M327,248.2l-5.3,6.2c-2.6-1.4-5.3-3-7.9-4.3l1.4-8.2c0-0.9-0.4-1.4-1-1.9l-2.6-0.9c-0.9-0.4-1.9,0-1.9,0.9
			l-3,7.8c-3-0.9-6.2-0.9-9.2-1l-1-8.2c0-0.9-0.9-1.4-1.9-1.4H292c-0.9,0-1.4,0.9-1.4,1.4l-0.4,8.6c-3,0.4-6.2,1-8.8,1.9l-4.3-7.3
			c-0.4-0.9-1.4-1-2.3-0.9l-2.3,1c-0.9,0.4-1,1-0.9,1.9l2.6,8.2c-2.6,1.4-5.3,3-7.8,5.2l-6.5-5.8c-0.9-0.4-1.4-0.4-2.3,0l-1.9,1.4
			c-0.9,0.4-0.9,1.4,0,2.3l5.3,7.1c-1.9,2.3-3.9,4.8-5.3,7.3l-7.9-3c-0.9-0.4-1.9,0-1.9,0.9l-1,2.3c-0.4,0.9,0,1.4,0.4,2.3l7.3,4.8
			c-1,2.7-1.9,5.3-2.6,8.6l0,0h-8.8c-0.9,0-1.4,0.9-1.4,1.4l-0.4,2.7c0,0.9,0.4,1.4,1,1.9l8.3,1.9c0,1.4,0,3,0,5.2
			c0,1,0.4,2.7,0.4,4.3l0,0l-8.3,2.7c-0.9,0.4-1,1-1,1.9l0.9,2.7c0,0.9,1,1.4,1.9,1l8.3-1c0.9,2.7,1.9,5.8,3.5,8.2l-7.6,5.9
			c-0.9,0.4-0.9,1.4-0.4,2.3l1.4,2.3c0.4,0.9,1.4,1,2.3,0.9l7.8-4.3c1.9,2.3,3.9,4.8,6.2,6.6l-4.5,7.3c-0.4,0.9-0.4,1.4,0.4,2.3
			l2.3,1.4c0.9,0.4,1.4,0.4,2.3,0l5.8-6.6c2.6,1.4,5.3,3,7.9,4.3l-1.4,8.6c0,0.9,0.4,1.4,1,1.9l2.6,0.9c0.9,0.4,1.9,0,1.9-0.9l3-7.8
			c3,0.9,5.8,1,8.8,1l1,8.6c0,0.9,0.9,1.4,1.9,1.4h2.6c0.9,0,1.4-0.9,1.4-1.4l0.4-8.6c3-0.4,6.2-1,8.8-1.9l3.9,7.3
			c0.4,0.9,1.4,1,2.3,0.9l2.3-1c0.9-0.4,1-1,0.9-1.9l-2.6-7.8c2.6-1.4,5.3-3,7.8-5.2l6.2,5.3c0.9,0.4,1.4,0.4,2.3,0l1.9-1.9
			c0.9-0.4,0.9-1.4,0-2.3l-4.9-6.2c1.9-2.3,3.9-4.8,5.8-7.3l7.8,3c0.9,0.4,1.9,0,1.9-0.9l1-2.3c0.4-0.9,0-1.4-0.4-2.3l-6.9-4.3
			c1-2.7,1.9-5.8,2.6-9.1h7.9c0.9,0,1.4-0.9,1.4-1.4l0.4-2.7c0-0.9-0.4-1.4-1-1.9l-7.8-1.4c0-1.4,0-3.5,0-5.2c0-1.4-0.4-2.7-0.4-4.3
			l7.8-2.7c0.9-0.4,1-1,1-1.9l-0.9-2.7c0-0.9-1-1.4-1.9-1l-7.8,1c-0.9-3-2.3-5.8-3.9-8.6l6.2-5.2c0.9-0.4,0.9-1.4,0.4-2.3l-1.4-2.3
			c-0.4-0.9-1.4-1-2.3-0.9l-6.9,3.9c-1.9-2.3-4.3-4.8-6.2-6.6l4.3-7.1c0.4-0.9,0.4-1.4-0.4-2.3l-2.3-1.4
			C328.9,247.5,327.9,247.5,327,248.2z M293.8,254.8c5.3-0.4,10.8,0.4,15.7,1.9l-9.6,19.3c-1.4-0.4-3-0.4-4.5-0.4
			c-1.9,0-3.5,0.4-4.9,1l-11.8-18.3C283,256.6,288.3,254.8,293.8,254.8z M322.6,326.8l-11.8-18.3c2.3-2.3,3.9-5.3,4.5-9.1l21.4-1
			C335.8,309.7,330.5,319.8,322.6,326.8z M269.6,264.8l11.8,18.3c-1.9,2.3-3.5,5.3-4.3,8.6l-21.4,1
			C256.9,281.3,262,271.7,269.6,264.8z M288.7,296.1c-0.4-4.3,3-8.2,7.3-8.2c4.3-0.4,7.9,3,7.9,7.3s-3,8.2-7.3,8.2
			C292.5,303.5,288.7,300.5,288.7,296.1z M256.5,303.2l21.4-1c1,3,2.6,5.8,4.9,7.8l-9.6,19.3C265.1,323.5,258.9,314,256.5,303.2z
			 M298.7,335.9c-5.8,0.4-11.2-0.4-16.1-2.3l9.6-19.3c1.4,0.4,3.5,0.4,4.9,0.4s3-0.4,4.3-0.9l11.8,18.3
			C309.2,334.6,304,335.9,298.7,335.9z M335.8,287.9l-21.4,1c-1-3-3-6.2-5.3-8.6l9.6-19.3C327.5,267.4,333.9,276.9,335.8,287.9z"/>
	</g>
</g>
</svg>
