<?xml version="1.0" encoding="utf-8"?>
<!-- Generator: Adobe Illustrator 19.2.1, SVG Export Plug-In . SVG Version: 6.00 Build 0)  -->
<svg version="1.1" id="Layer_1" xmlns="http://www.w3.org/2000/svg" xmlns:xlink="http://www.w3.org/1999/xlink" x="0px" y="0px"
	 viewBox="0 0 385 385" style="enable-background:new 0 0 385 385;" xml:space="preserve">
<style type="text/css">
	.st0{fill:url(#square_1_);}
	.st1{fill:#558B2F;}
	.st2{fill:#016064;}
	.st3{fill:none;stroke:#5A6E5C;stroke-width:2;stroke-miterlimit:10;}
	.st4{fill:#19496E;}
	.st5{fill:#ECE3E4;}
</style>
<linearGradient id="square_1_" gradientUnits="userSpaceOnUse" x1="193.25" y1="50.5" x2="193.25" y2="335.6">
	<stop  offset="0" style="stop-color:#FFFFFF"/>
	<stop  offset="1" style="stop-color:#FFF8E8"/>
</linearGradient>
<path id="square_16_" class="st0" d="M335.8,304.3c0,17.2-14.1,31.3-31.3,31.3H82c-17.3-0.1-31.3-14.1-31.3-31.3V81.8
	c0-17.2,14.1-31.3,31.3-31.3h222.5c17.2,0,31.3,14.1,31.3,31.3"/>
<path class="st1" d="M309.4,200.2l-14.7-7.5l-1-10.4c0,0,5.3-5.7,8-8.6c8.3-11.1,1.9-35.1,1.9-35.1s-3.4-39.2-35.5-39.6
	c-37.4,0-40.4,40.1-40.4,40.1s-1,23.1,7.5,34.4c1.9,3.4,8,8.6,8,8.6l-1,10.1l-14.7,7.1c0,0-9.7,8.3-14.3,9.4c-7,1.8-15,5.3-22,9.7
	l14.9,7.6c0,0,16.5,12.6,23.8,15.2c16.4,4.7,36,14.9,50.2,26.7h0.1v27.9c40.3-1.8,54.2-13.1,54.2-13.1s0.2-0.1,0.5-0.2V214
	c-3.8-1.8-7.6-3.3-11.1-4.4C319.3,207.9,309.4,200.2,309.4,200.2z"/>
<path class="st2" d="M280.1,304.2v-8.5v-27.9H280c-14.2-11.8-33.8-22-50.2-26.7c-7.3-2.6-23.8-15.2-23.8-15.2l-14.9-7.6l-8.9-4.5
	l-1.3-17.4c0,0,8.6-9.5,13-14.3c13.4-18.3,3.5-57.7,3.5-57.7s-5.5-64-58.3-64.9c-61.4,0-66.2,65.8-66.2,65.8s-1.3,38.1,12.1,56.3
	c3.5,5.3,13,14.3,13,14.3l-1.3,16.9l-23.8,11.7c0,0-15.6,12.7-23.2,15v64.8c0,16.5,12.8,30,29.1,31.2h170
	C266,335.5,280.1,321.4,280.1,304.2z"/>
<path id="square_20_" class="st3" d="M49.7,304.3V81.8c0-17.2,14.1-31.3,31.3-31.3h222.5c17.2,0,31.3,14.1,31.3,31.3v222.5
	c0,17.2-14.1,31.3-31.3,31.3H81C63.7,335.5,49.7,321.5,49.7,304.3z"/>
<g id="Layer_3_1_">
	<g id="Gear_1_">
		<ellipse class="st4" cx="294.9" cy="298" rx="67.1" ry="68.1"/>
		<path class="st5" d="M327,248.2l-5.3,6.2c-2.6-1.4-5.3-3-7.9-4.3l1.4-8.2c0-0.9-0.4-1.4-1-1.9l-2.6-0.9c-0.9-0.4-1.9,0-1.9,0.9
			l-3,7.8c-3-0.9-6.2-0.9-9.2-1l-1-8.2c0-0.9-0.9-1.4-1.9-1.4H292c-0.9,0-1.4,0.9-1.4,1.4l-0.4,8.6c-3,0.4-6.2,1-8.8,1.9l-4.3-7.3
			c-0.4-0.9-1.4-1-2.3-0.9l-2.3,1c-0.9,0.4-1,1-0.9,1.9l2.6,8.2c-2.6,1.4-5.3,3-7.8,5.2l-6.5-5.8c-0.9-0.4-1.4-0.4-2.3,0l-1.9,1.4
			c-0.9,0.4-0.9,1.4,0,2.3l5.3,7.1c-1.9,2.3-3.9,4.8-5.3,7.3l-7.9-3c-0.9-0.4-1.9,0-1.9,0.9l-1,2.3c-0.4,0.9,0,1.4,0.4,2.3l7.3,4.8
			c-1,2.7-1.9,5.3-2.6,8.6l0,0h-8.8c-0.9,0-1.4,0.9-1.4,1.4l-0.4,2.7c0,0.9,0.4,1.4,1,1.9l8.3,1.9c0,1.4,0,3,0,5.2
			c0,1,0.4,2.7,0.4,4.3l0,0l-8.3,2.7c-0.9,0.4-1,1-1,1.9l0.9,2.7c0,0.9,1,1.4,1.9,1l8.3-1c0.9,2.7,1.9,5.8,3.5,8.2l-7.6,5.9
			c-0.9,0.4-0.9,1.4-0.4,2.3l1.4,2.3c0.4,0.9,1.4,1,2.3,0.9l7.8-4.3c1.9,2.3,3.9,4.8,6.2,6.6l-4.5,7.3c-0.4,0.9-0.4,1.4,0.4,2.3
			l2.3,1.4c0.9,0.4,1.4,0.4,2.3,0l5.8-6.6c2.6,1.4,5.3,3,7.9,4.3l-1.4,8.6c0,0.9,0.4,1.4,1,1.9l2.6,0.9c0.9,0.4,1.9,0,1.9-0.9l3-7.8
			c3,0.9,5.8,1,8.8,1l1,8.6c0,0.9,0.9,1.4,1.9,1.4h2.6c0.9,0,1.4-0.9,1.4-1.4l0.4-8.6c3-0.4,6.2-1,8.8-1.9l3.9,7.3
			c0.4,0.9,1.4,1,2.3,0.9l2.3-1c0.9-0.4,1-1,0.9-1.9l-2.6-7.8c2.6-1.4,5.3-3,7.8-5.2l6.2,5.3c0.9,0.4,1.4,0.4,2.3,0l1.9-1.9
			c0.9-0.4,0.9-1.4,0-2.3l-4.9-6.2c1.9-2.3,3.9-4.8,5.8-7.3l7.8,3c0.9,0.4,1.9,0,1.9-0.9l1-2.3c0.4-0.9,0-1.4-0.4-2.3l-6.9-4.3
			c1-2.7,1.9-5.8,2.6-9.1h7.9c0.9,0,1.4-0.9,1.4-1.4l0.4-2.7c0-0.9-0.4-1.4-1-1.9l-7.8-1.4c0-1.4,0-3.5,0-5.2c0-1.4-0.4-2.7-0.4-4.3
			l7.8-2.7c0.9-0.4,1-1,1-1.9l-0.9-2.7c0-0.9-1-1.4-1.9-1l-7.8,1c-0.9-3-2.3-5.8-3.9-8.6l6.2-5.2c0.9-0.4,0.9-1.4,0.4-2.3l-1.4-2.3
			c-0.4-0.9-1.4-1-2.3-0.9l-6.9,3.9c-1.9-2.3-4.3-4.8-6.2-6.6l4.3-7.1c0.4-0.9,0.4-1.4-0.4-2.3l-2.3-1.4
			C328.9,247.5,327.9,247.5,327,248.2z M293.8,254.8c5.3-0.4,10.8,0.4,15.7,1.9l-9.6,19.3c-1.4-0.4-3-0.4-4.5-0.4
			c-1.9,0-3.5,0.4-4.9,1l-11.8-18.3C283,256.6,288.3,254.8,293.8,254.8z M322.6,326.8l-11.8-18.3c2.3-2.3,3.9-5.3,4.5-9.1l21.4-1
			C335.8,309.7,330.5,319.8,322.6,326.8z M269.6,264.8l11.8,18.3c-1.9,2.3-3.5,5.3-4.3,8.6l-21.4,1
			C256.9,281.3,262,271.7,269.6,264.8z M288.7,296.1c-0.4-4.3,3-8.2,7.3-8.2c4.3-0.4,7.9,3,7.9,7.3s-3,8.2-7.3,8.2
			C292.5,303.5,288.7,300.5,288.7,296.1z M256.5,303.2l21.4-1c1,3,2.6,5.8,4.9,7.8l-9.6,19.3C265.1,323.5,258.9,314,256.5,303.2z
			 M298.7,335.9c-5.8,0.4-11.2-0.4-16.1-2.3l9.6-19.3c1.4,0.4,3.5,0.4,4.9,0.4s3-0.4,4.3-0.9l11.8,18.3
			C309.2,334.6,304,335.9,298.7,335.9z M335.8,287.9l-21.4,1c-1-3-3-6.2-5.3-8.6l9.6-19.3C327.5,267.4,333.9,276.9,335.8,287.9z"/>
	</g>
</g>
</svg>
