<?xml version="1.0" encoding="utf-8"?>
<!-- Generator: Adobe Illustrator 19.2.1, SVG Export Plug-In . SVG Version: 6.00 Build 0)  -->
<svg version="1.1" id="Layer_1" xmlns="http://www.w3.org/2000/svg" xmlns:xlink="http://www.w3.org/1999/xlink" x="0px" y="0px"
	 viewBox="0 0 385 385" style="enable-background:new 0 0 385 385;" xml:space="preserve">
<style type="text/css">
	.st0{fill:none;stroke:#5A6E5C;stroke-width:0.9965;stroke-miterlimit:10;}
	.st1{fill:none;}
	.st2{fill:url(#SVGID_1_);}
	.st3{fill:url(#SVGID_2_);}
	.st4{fill:#231F20;}
	.st5{fill:#555656;}
	.st6{opacity:0.52;fill:url(#SVGID_3_);enable-background:new    ;}
	.st7{opacity:0.52;fill:url(#SVGID_4_);enable-background:new    ;}
	.st8{fill:#FFCC00;}
	.st9{fill:#19496E;}
	.st10{fill:#ECE3E4;}
</style>
<path id="square" class="st0" d="M303.4,335.5H80.9c-17.2,0-31.3-14.1-31.3-31.3V81.8c0-17.2,14.1-31.3,31.3-31.3h222.5
	c17.2,0,31.3,14.1,31.3,31.3v222.5C334.7,321.5,320.6,335.5,303.4,335.5z"/>
<g>
	<path class="st1" d="M237.5,324.8c0,2.5,0,6.4,0.2,10.7h65.7c9.4,0,17.8-4.2,23.5-10.7H237.5z"/>
	<path class="st1" d="M291.4,50.5H80.9c-1,0-1.9,0.1-2.9,0.1h213.3L291.4,50.5z"/>
	
		<linearGradient id="SVGID_1_" gradientUnits="userSpaceOnUse" x1="98.5714" y1="-52.699" x2="98.5714" y2="-20.7323" gradientTransform="matrix(1.96 0 0 -1.96 0 282.24)">
		<stop  offset="0" style="stop-color:#CECECE"/>
		<stop  offset="0.4969" style="stop-color:#3A3A3A"/>
		<stop  offset="0.6196" style="stop-color:#3A3A3A"/>
		<stop  offset="1" style="stop-color:#252525"/>
	</linearGradient>
	<path class="st2" d="M237.5,324.8h-88.6c0,2.6,0,6.4-0.2,10.7h89C237.5,331.2,237.4,327.3,237.5,324.8z"/>
	
		<radialGradient id="SVGID_2_" cx="93.1321" cy="45.8597" r="38.9091" gradientTransform="matrix(4.6227 0 0 -3.9869 -236.7856 370.5583)" gradientUnits="userSpaceOnUse">
		<stop  offset="0" style="stop-color:#FFFFFF"/>
		<stop  offset="1" style="stop-color:#A8A8A8"/>
	</radialGradient>
	<path class="st3" d="M242,324.8c0,0.4,92.8-44.5,92.8-44.5H174.6h-125v24c0,7.9,3,15.1,7.8,20.6L242,324.8z"/>
	<path class="st4" d="M309.3,51.1H75c-9,1.7-16.6,7.4-21.1,15h276.8c0,0-5.2-7.4-9.4-9.9C315.8,52.4,309.3,51.1,309.3,51.1z"/>
	<path class="st5" d="M334.7,263.4c0,0-0.8-175.9,0-181.6s-4-15.7-4-15.7L53.9,66c-2.7,4.6-4.3,10-4.3,15.7v181.6L334.7,263.4"/>
	
		<linearGradient id="SVGID_3_" gradientUnits="userSpaceOnUse" x1="170.8226" y1="263.5706" x2="111.4921" y2="136.3353" gradientTransform="matrix(1.96 0 0 -1.96 0 570.36)">
		<stop  offset="0" style="stop-color:#FFFFFF"/>
		<stop  offset="8.962709e-02" style="stop-color:#FFFFFF;stop-opacity:0.9104"/>
		<stop  offset="1" style="stop-color:#FFFFFF;stop-opacity:0"/>
	</linearGradient>
	<path class="st6" d="M328.3,51.1h-97.5l-62.7,228.6h166.5V63.4C335.2,57.1,332,51.1,328.3,51.1z"/>
	
		<linearGradient id="SVGID_4_" gradientUnits="userSpaceOnUse" x1="164.215" y1="132.876" x2="100.4202" y2="-3.9323" gradientTransform="matrix(1.96 0 0 -1.96 0 282.24)">
		<stop  offset="0" style="stop-color:#FFFFFF"/>
		<stop  offset="8.962709e-02" style="stop-color:#FFFFFF;stop-opacity:0.9104"/>
		<stop  offset="1" style="stop-color:#FFFFFF;stop-opacity:0"/>
	</linearGradient>
	<path class="st7" d="M309.3,51.1c-0.7-0.1-1.3-0.2-2-0.3c-0.1,0.1-0.1,0.2-0.2,0.3H309.3z"/>
	<polygon class="st4" points="49.6,280.2 249.7,280.2 249.7,263.4 49.1,263.4 	"/>
</g>
<g>
	<g>
		<rect x="50.2" y="126.4" class="st4" width="283.1" height="71.1"/>
	</g>
	<polygon class="st8" points="99.3,198 64.4,198 128.3,126.4 163.5,126.4 	"/>
	<polygon class="st8" points="50.2,178.2 50.2,138.6 60.8,126.4 96.2,126.4 	"/>
	<polygon class="st8" points="167.1,198 131.4,198 195.6,126.4 230.4,126.4 	"/>
	<polygon class="st8" points="234,198 199.2,198 262.5,126.4 298.2,126.4 	"/>
	<polygon class="st8" points="301.3,198 266.1,198 330.3,126.4 333.4,126.4 333.4,162.6 	"/>
</g>
<g id="Layer_3_1_">
	<g id="Gear_1_">
		<ellipse class="st9" cx="294.9" cy="298" rx="67.1" ry="68.1"/>
		<path class="st10" d="M327,248.2l-5.3,6.2c-2.6-1.4-5.3-3-7.9-4.3l1.4-8.2c0-0.9-0.4-1.4-1-1.9l-2.6-0.9c-0.9-0.4-1.9,0-1.9,0.9
			l-3,7.8c-3-0.9-6.2-0.9-9.2-1l-1-8.2c0-0.9-0.9-1.4-1.9-1.4H292c-0.9,0-1.4,0.9-1.4,1.4l-0.4,8.6c-3,0.4-6.2,1-8.8,1.9l-4.3-7.3
			c-0.4-0.9-1.4-1-2.3-0.9l-2.3,1c-0.9,0.4-1,1-0.9,1.9l2.6,8.2c-2.6,1.4-5.3,3-7.8,5.2l-6.5-5.8c-0.9-0.4-1.4-0.4-2.3,0l-1.9,1.4
			c-0.9,0.4-0.9,1.4,0,2.3l5.3,7.1c-1.9,2.3-3.9,4.8-5.3,7.3l-7.9-3c-0.9-0.4-1.9,0-1.9,0.9l-1,2.3c-0.4,0.9,0,1.4,0.4,2.3l7.3,4.8
			c-1,2.7-1.9,5.3-2.6,8.6l0,0h-8.8c-0.9,0-1.4,0.9-1.4,1.4l-0.4,2.7c0,0.9,0.4,1.4,1,1.9l8.3,1.9c0,1.4,0,3,0,5.2
			c0,1,0.4,2.7,0.4,4.3l0,0l-8.3,2.7c-0.9,0.4-1,1-1,1.9l0.9,2.7c0,0.9,1,1.4,1.9,1l8.3-1c0.9,2.7,1.9,5.8,3.5,8.2l-7.6,5.9
			c-0.9,0.4-0.9,1.4-0.4,2.3l1.4,2.3c0.4,0.9,1.4,1,2.3,0.9l7.8-4.3c1.9,2.3,3.9,4.8,6.2,6.6l-4.5,7.3c-0.4,0.9-0.4,1.4,0.4,2.3
			l2.3,1.4c0.9,0.4,1.4,0.4,2.3,0l5.8-6.6c2.6,1.4,5.3,3,7.9,4.3l-1.4,8.6c0,0.9,0.4,1.4,1,1.9l2.6,0.9c0.9,0.4,1.9,0,1.9-0.9l3-7.8
			c3,0.9,5.8,1,8.8,1l1,8.6c0,0.9,0.9,1.4,1.9,1.4h2.6c0.9,0,1.4-0.9,1.4-1.4l0.4-8.6c3-0.4,6.2-1,8.8-1.9l3.9,7.3
			c0.4,0.9,1.4,1,2.3,0.9l2.3-1c0.9-0.4,1-1,0.9-1.9l-2.6-7.8c2.6-1.4,5.3-3,7.8-5.2l6.2,5.3c0.9,0.4,1.4,0.4,2.3,0l1.9-1.9
			c0.9-0.4,0.9-1.4,0-2.3l-4.9-6.2c1.9-2.3,3.9-4.8,5.8-7.3l7.8,3c0.9,0.4,1.9,0,1.9-0.9l1-2.3c0.4-0.9,0-1.4-0.4-2.3l-6.9-4.3
			c1-2.7,1.9-5.8,2.6-9.1h7.9c0.9,0,1.4-0.9,1.4-1.4l0.4-2.7c0-0.9-0.4-1.4-1-1.9l-7.8-1.4c0-1.4,0-3.5,0-5.2c0-1.4-0.4-2.7-0.4-4.3
			l7.8-2.7c0.9-0.4,1-1,1-1.9l-0.9-2.7c0-0.9-1-1.4-1.9-1l-7.8,1c-0.9-3-2.3-5.8-3.9-8.6l6.2-5.2c0.9-0.4,0.9-1.4,0.4-2.3l-1.4-2.3
			c-0.4-0.9-1.4-1-2.3-0.9l-6.9,3.9c-1.9-2.3-4.3-4.8-6.2-6.6l4.3-7.1c0.4-0.9,0.4-1.4-0.4-2.3l-2.3-1.4
			C328.9,247.5,327.9,247.5,327,248.2z M293.8,254.8c5.3-0.4,10.8,0.4,15.7,1.9l-9.6,19.3c-1.4-0.4-3-0.4-4.5-0.4
			c-1.9,0-3.5,0.4-4.9,1l-11.8-18.3C283,256.6,288.3,254.8,293.8,254.8z M322.6,326.8l-11.8-18.3c2.3-2.3,3.9-5.3,4.5-9.1l21.4-1
			C335.8,309.7,330.5,319.8,322.6,326.8z M269.6,264.8l11.8,18.3c-1.9,2.3-3.5,5.3-4.3,8.6l-21.4,1
			C256.9,281.3,262,271.7,269.6,264.8z M288.7,296.1c-0.4-4.3,3-8.2,7.3-8.2c4.3-0.4,7.9,3,7.9,7.3s-3,8.2-7.3,8.2
			C292.5,303.5,288.7,300.5,288.7,296.1z M256.5,303.2l21.4-1c1,3,2.6,5.8,4.9,7.8l-9.6,19.3C265.1,323.5,258.9,314,256.5,303.2z
			 M298.7,335.9c-5.8,0.4-11.2-0.4-16.1-2.3l9.6-19.3c1.4,0.4,3.5,0.4,4.9,0.4s3-0.4,4.3-0.9l11.8,18.3
			C309.2,334.6,304,335.9,298.7,335.9z M335.8,287.9l-21.4,1c-1-3-3-6.2-5.3-8.6l9.6-19.3C327.5,267.4,333.9,276.9,335.8,287.9z"/>
	</g>
</g>
</svg>
