<?xml version="1.0" encoding="utf-8"?>
<!-- Generator: Adobe Illustrator 19.2.1, SVG Export Plug-In . SVG Version: 6.00 Build 0)  -->
<svg version="1.1" id="Layer_1" xmlns="http://www.w3.org/2000/svg" xmlns:xlink="http://www.w3.org/1999/xlink" x="0px" y="0px"
	 viewBox="0 0 385 385" style="enable-background:new 0 0 385 385;" xml:space="preserve">
<style type="text/css">
	.st0{fill:#231F20;}
	.st1{fill:#E87400;stroke:#FFFFFF;stroke-width:7.5211;stroke-miterlimit:10;}
	.st2{fill:#FFFFFF;stroke:#231F20;stroke-width:1.1289;stroke-miterlimit:10;}
</style>
<g id="Layer_1_copy">
	<circle class="st0" cx="192.1" cy="192.8" r="160.2"/>
	<ellipse class="st1" cx="192.1" cy="192.8" rx="148.5" ry="148.5"/>
	<g id="Layer_3_copy">
	</g>
	<g>
		<g>
			<path class="st2" d="M179.9,242.8c0-3.6,0-7.1,0-10.9c0-8.1,0.9-14.9,1.9-20.3c1.9-5.5,3.6-10.9,5.5-13.9
				c1.9-4.5,4.5-8.1,7.1-10.9c2.6-2.6,4.5-6.4,7.1-10c1.9-3.6,3.6-8.1,5.5-12.2c1.9-4.5,1.9-10,1.9-16.7c0-5.5-0.9-10-1.9-13.2
				c-0.9-3.6-2.6-7.1-5.5-10c-1.9-2.6-4.5-4.5-7.1-5.5c-3.6-0.9-6.4-1.9-10-1.9c-2.6,0-5.5,0-8.1,0.9s-4.5,1.9-6.4,2.6
				c-1.9,0.9-3.6,2.6-4.5,4.5s-1.9,3.6-1.9,5.5s0.9,3.6,1.9,5.5s1.9,2.6,2.6,4.5c0.9,1.9,1.9,2.6,2.6,4.5c0.9,1.9,1.9,3.6,1.9,5.5
				c0,2.6-0.9,4.5-1.9,6.4c-0.9,1.9-2.6,3.6-4.5,4.5c-1.9,1.9-3.6,2.6-6.4,3.6c-2.6,0.9-4.5,0.9-7.1,0.9c-3.6,0-6.4-0.9-9-1.9
				c-2.6-0.9-5.5-2.6-7.1-4.5c-1.9-1.9-3.6-4.5-4.5-7.1s-1.9-5.5-1.9-9c0-8.1,1.9-13.9,5.5-19.4c3.6-5.5,8.1-10,13.9-13.2
				c5.5-3.6,12.2-6.4,18.4-7.1c7.1-1.9,13.9-2.6,20.3-2.6c9,0,16.7,0.9,24.8,3.6c8.1,1.9,13.9,5.5,19.4,9s10,9,13.2,13.9
				c3.6,5.5,4.5,11.3,4.5,18.4c0,4.5-0.9,9-2.6,13.2c-0.4,3.6-2.3,7.1-4.9,10.9c-2.6,3.6-5.5,6.4-9,9c-3.6,2.6-6.4,6.4-10,9
				s-7.1,6.4-10,9c-3.6,3.6-6.4,7.1-9,10.9c-2.6,3.6-4.5,8.1-6.4,12.2c-1.9,4.5-2.6,10-2.6,15.8c0,0.9,0,1.9,0,3.6
				c0,0.9,0,1.9,0,3.6h-15.8v-0.8C179.7,242.8,179.9,242.8,179.9,242.8z M168.2,271.2c0-2.6,0.9-5.5,1.9-7.1
				c0.9-2.6,2.6-4.5,4.5-6.4s4.5-2.6,6.4-4.5c2.6-0.9,5.5-1.9,8.1-1.9s5.5,0.9,8.1,1.9s4.5,2.6,6.4,4.5s3.6,3.6,4.5,6.4
				s1.9,4.5,1.9,7.1s-0.9,5.5-1.9,7.1c-0.9,2.6-2.6,4.5-4.5,6.4s-4.5,2.6-6.4,3.6c-2.6,0.9-5.5,1.9-8.1,1.9s-5.5-0.9-8.1-1.9
				c-2.6-0.9-4.5-2.6-6.4-3.6c-1.9-1.9-3.6-3.6-4.5-6.4C169.2,275.7,168.2,274,168.2,271.2z"/>
		</g>
	</g>
</g>
</svg>
