<?xml version="1.0" encoding="utf-8"?>
<!-- Generator: Adobe Illustrator 19.1.0, SVG Export Plug-In . SVG Version: 6.00 Build 0)  -->
<svg version="1.1" id="Layer_1" xmlns="http://www.w3.org/2000/svg" xmlns:xlink="http://www.w3.org/1999/xlink" x="0px" y="0px"
	 viewBox="0 0 192 192" style="enable-background:new 0 0 192 192;" xml:space="preserve">
<style type="text/css">
	.st0{opacity:0.75;fill:#51514C;enable-background:new    ;}
	.st1{fill:#231F20;}
	.st2{fill:url(#SVGID_1_);stroke:#4C4122;stroke-width:0.3801;stroke-miterlimit:10;}
	.st3{fill:url(#SVGID_2_);stroke:#A9947C;stroke-width:0.9502;stroke-miterlimit:10;}
	.st4{fill:url(#SVGID_3_);stroke:#AD9D71;stroke-width:0.9502;stroke-miterlimit:10;}
	.st5{fill:url(#SVGID_4_);stroke:#51514C;stroke-width:0.3801;stroke-miterlimit:10;}
	.st6{opacity:0.45;fill:url(#SVGID_5_);enable-background:new    ;}
	.st7{opacity:0.45;fill:url(#SVGID_6_);enable-background:new    ;}
	.st8{opacity:0.43;fill:#0C0C0C;enable-background:new    ;}
	.st9{fill:url(#SVGID_7_);stroke:#335933;stroke-width:0.3801;stroke-miterlimit:10;}
	.st10{fill:url(#SVGID_8_);stroke:#335933;stroke-width:0.3801;stroke-miterlimit:10;}
	.st11{fill:url(#SVGID_9_);stroke:#51514C;stroke-width:0.3801;stroke-miterlimit:10;}
	.st12{fill:url(#SVGID_10_);}
	.st13{fill:url(#SVGID_11_);stroke:#A9947C;stroke-width:0.9502;stroke-miterlimit:10;}
	.st14{fill:url(#SVGID_12_);stroke:#AD9D71;stroke-width:0.9502;stroke-miterlimit:10;}
	.st15{fill:url(#SVGID_13_);stroke:#51514C;stroke-width:0.3801;stroke-miterlimit:10;}
	.st16{opacity:0.45;fill:url(#SVGID_14_);enable-background:new    ;}
	.st17{opacity:0.45;fill:url(#SVGID_15_);enable-background:new    ;}
	.st18{fill:url(#SVGID_16_);stroke:#335933;stroke-width:0.3801;stroke-miterlimit:10;}
	.st19{fill:url(#SVGID_17_);stroke:#335933;stroke-width:0.3801;stroke-miterlimit:10;}
	.st20{fill:url(#SVGID_18_);stroke:#51514C;stroke-width:0.3801;stroke-miterlimit:10;}
	.st21{fill:url(#SVGID_19_);}
	.st22{fill:url(#SVGID_20_);stroke:#A9947C;stroke-width:0.9502;stroke-miterlimit:10;}
	.st23{fill:url(#SVGID_21_);stroke:#AD9D71;stroke-width:0.9502;stroke-miterlimit:10;}
	.st24{fill:url(#SVGID_22_);stroke:#51514C;stroke-width:0.3801;stroke-miterlimit:10;}
	.st25{opacity:0.45;fill:url(#SVGID_23_);enable-background:new    ;}
	.st26{opacity:0.45;fill:url(#SVGID_24_);enable-background:new    ;}
	.st27{fill:url(#SVGID_25_);stroke:#335933;stroke-width:0.3801;stroke-miterlimit:10;}
	.st28{fill:url(#SVGID_26_);stroke:#335933;stroke-width:0.3801;stroke-miterlimit:10;}
	.st29{fill:url(#SVGID_27_);stroke:#51514C;stroke-width:0.3801;stroke-miterlimit:10;}
</style>
<g>
	<path class="st0" d="M57.2,73.7c0,0-7.2,6.8-10.6,7.2c-0.8,0-1.1,0.8-1.1,0.8s4.2,9.5,4.6,9.5c0.4,0,4.6-3,8-7.2
		c2.7-3,5.3-7.6,5.7-8.4L57.2,73.7L57.2,73.7z"/>
	<g>
		<path class="st1" d="M28,48.6c1.1,0.4,12.2,2.3,16.3,2.3c5.3,0,16.7-1.1,17.9-2.3c1.1-1.1-15.6-1.5-15.6-1.5L28,48.6"/>
		
			<linearGradient id="SVGID_1_" gradientUnits="userSpaceOnUse" x1="4.1511" y1="98.8831" x2="86.1571" y2="98.8831" gradientTransform="matrix(1 0 0 -1 0 192)">
			<stop  offset="0" style="stop-color:#FFED94"/>
			<stop  offset="0.1875" style="stop-color:#C7BC76"/>
			<stop  offset="0.5037" style="stop-color:#FFED94"/>
			<stop  offset="0.7554" style="stop-color:#C7BC76"/>
			<stop  offset="1" style="stop-color:#FFED94"/>
		</linearGradient>
		<path class="st2" d="M84.2,87.4c-3.4-4.2-10.3-8-15.6-9.5c-5.3-1.5-13.3-6.5-13.3-6.5l-10.3,0.4l-10.3-0.4c0,0-8,4.9-13.3,6.5
			c-5.3,1.5-12.2,5.3-15.6,9.5C4,89.7,4,100.3,4,100.3s1.9,3.4,4.9,5.3s8.4,3.4,8.4,3.4s7.2,5.7,27.7,5.7c20.9,0,27.7-5.7,27.7-5.7
			s5.3-1.5,8.4-3.4c3-1.9,4.9-5.3,4.9-5.3S86.5,89.7,84.2,87.4L84.2,87.4z"/>
		
			<linearGradient id="SVGID_2_" gradientUnits="userSpaceOnUse" x1="34.495" y1="116.5574" x2="55.9964" y2="116.5574" gradientTransform="matrix(1 0 0 -1 0 192)">
			<stop  offset="0" style="stop-color:#CDB296"/>
			<stop  offset="0.1044" style="stop-color:#BAA280"/>
			<stop  offset="0.2306" style="stop-color:#AA936D"/>
			<stop  offset="0.3603" style="stop-color:#A08B62"/>
			<stop  offset="0.4975" style="stop-color:#9D885E"/>
			<stop  offset="0.6311" style="stop-color:#A08B62"/>
			<stop  offset="0.7662" style="stop-color:#AB946E"/>
			<stop  offset="0.9014" style="stop-color:#BCA382"/>
			<stop  offset="1" style="stop-color:#CDB296"/>
		</linearGradient>
		<polyline class="st3" points="56.1,84.4 45.1,81.7 34.4,84.4 34.4,66.5 56.1,66.5 56.1,84.4 		"/>
		
			<linearGradient id="SVGID_3_" gradientUnits="userSpaceOnUse" x1="27.9126" y1="140.6932" x2="62.5788" y2="140.6932" gradientTransform="matrix(1 0 0 -1 0 192)">
			<stop  offset="0" style="stop-color:#F7D4B1"/>
			<stop  offset="0.14" style="stop-color:#CDB296"/>
			<stop  offset="0.4967" style="stop-color:#F7D4B1"/>
			<stop  offset="0.915" style="stop-color:#CDB296"/>
			<stop  offset="1" style="stop-color:#F7D4B1"/>
		</linearGradient>
		<path class="st4" d="M62.6,47.9c0,0,0.8-17.1-17.5-17.1C28,30.8,28,47.9,28,47.9s-0.4,9.9,3,14.8c3.4,4.9,11,9.1,14.1,9.1
			c3.4,0,10.6-4.6,14.1-9.1C62.9,57.8,62.6,47.9,62.6,47.9L62.6,47.9z"/>
		<path class="st0" d="M34.1,73.7c0,0,6.8,5.3,9.5,6.8c3,1.1,1.9,1.1,1.9,1.1l-4.6,8.4c-0.4,0-4.2-1.5-8-5.7
			C30.3,81,26.8,76,26.8,76L34.1,73.7L34.1,73.7z"/>
		
			<linearGradient id="SVGID_4_" gradientUnits="userSpaceOnUse" x1="36.5274" y1="120.5505" x2="36.5433" y2="102.4844" gradientTransform="matrix(1 0 0 -1 0 192)">
			<stop  offset="0" style="stop-color:#FFFFFF"/>
			<stop  offset="0.128" style="stop-color:#999999"/>
			<stop  offset="0.8251" style="stop-color:#FFFFFF"/>
		</linearGradient>
		<path class="st5" d="M34.1,71.5c0,0,5.7,7.2,8.7,8.7c3,1.1,3,1.1,3,1.1s-4.6,7.6-4.9,8c-0.8,0.8-5.3-2.7-8.7-7.2
			c-2.7-3.4-4.9-6.8-4.9-6.8L34.1,71.5L34.1,71.5z"/>
		
			<linearGradient id="SVGID_5_" gradientUnits="userSpaceOnUse" x1="45.2755" y1="135.505" x2="45.2755" y2="160.4147" gradientTransform="matrix(1 0 0 -1 0 192)">
			<stop  offset="0" style="stop-color:#C39A6F;stop-opacity:0"/>
			<stop  offset="1" style="stop-color:#C39A6F"/>
		</linearGradient>
		<path class="st6" d="M45.5,55.9c-7.6,0-14.1-5.3-14.1-11.8c0-6.8,6.1-12.2,13.7-12.2s14.1,5.3,14.1,11.8S53.1,55.9,45.5,55.9z"/>
		
			<linearGradient id="SVGID_6_" gradientUnits="userSpaceOnUse" x1="25.324" y1="228.0882" x2="25.324" y2="252.9972" gradientTransform="matrix(-0.7739 2.600318e-02 2.494010e-02 0.7566 58.6829 -120.5648)">
			<stop  offset="0" style="stop-color:#C39A6F;stop-opacity:0"/>
			<stop  offset="1" style="stop-color:#C39A6F"/>
		</linearGradient>
		<path class="st7" d="M44.7,53.2c6.1-0.4,13.3,4.2,13.7,9.1c0,2.7-3,4.2-4.9,5.7c-1.9,1.9-4.9,3.4-8,3.4c-2.3,0-4.6-1.1-6.5-2.3
			c-2.7-1.5-6.8-4.2-7.2-7.2C31.8,57,38.6,53.6,44.7,53.2z"/>
	</g>
	<polygon class="st8" points="53.8,114.8 48.9,95.4 51.5,89.7 46.2,81.7 41.7,89.3 43.6,95.4 39.8,114.8 	"/>
	
		<linearGradient id="SVGID_7_" gradientUnits="userSpaceOnUse" x1="45.4656" y1="96.522" x2="45.4656" y2="110.3817" gradientTransform="matrix(1 0 0 -1 0 192)">
		<stop  offset="0" style="stop-color:#4E9CD2"/>
		<stop  offset="0.3888" style="stop-color:#2F7BA8"/>
		<stop  offset="1" style="stop-color:#014B6A"/>
	</linearGradient>
	<polygon class="st9" points="40.5,89.3 42.4,95.4 48.1,95.4 50.4,89.7 45.5,81.7 	"/>
	
		<linearGradient id="SVGID_8_" gradientUnits="userSpaceOnUse" x1="45.6458" y1="77.9084" x2="45.3824" y2="96.3543" gradientTransform="matrix(1 0 0 -1 0 192)">
		<stop  offset="0" style="stop-color:#4E9CD2"/>
		<stop  offset="0.3888" style="stop-color:#2F7BA8"/>
		<stop  offset="1" style="stop-color:#014B6A"/>
	</linearGradient>
	<polygon class="st10" points="42.8,94.6 38.6,114.8 52.7,114.8 47.7,94.6 	"/>
	
		<linearGradient id="SVGID_9_" gradientUnits="userSpaceOnUse" x1="54.7719" y1="120.5462" x2="54.789" y2="100.9738" gradientTransform="matrix(1 0 0 -1 0 192)">
		<stop  offset="0" style="stop-color:#FFFFFF"/>
		<stop  offset="0.128" style="stop-color:#999999"/>
		<stop  offset="0.8251" style="stop-color:#FFFFFF"/>
	</linearGradient>
	<path class="st11" d="M57.2,71.5c0,0-5.7,7.2-8.7,8.7c-3,1.1-3,1.1-3,1.1s4.2,8.7,4.9,9.5c0.8,0.8,5.7-4.2,9.1-8.7
		c2.7-3.4,4.6-6.8,4.6-6.8L57.2,71.5L57.2,71.5z"/>
</g>
<g>
	<path class="st1" d="M120.3,56.6c1.1,0.4,14.1,2.3,19,2.3c6.1,0,19.8-1.1,20.9-2.3c1.1-1.1-18.6-1.9-18.6-1.9L120.3,56.6"/>
	
		<linearGradient id="SVGID_10_" gradientUnits="userSpaceOnUse" x1="92.5673" y1="83.1093" x2="187.7514" y2="83.1093" gradientTransform="matrix(1 0 0 -1 0 192)">
		<stop  offset="1.264240e-02" style="stop-color:#157FFF"/>
		<stop  offset="0.2731" style="stop-color:#3372AF"/>
		<stop  offset="0.5151" style="stop-color:#157FFF"/>
		<stop  offset="0.8418" style="stop-color:#3372AF"/>
		<stop  offset="1" style="stop-color:#157FFF"/>
	</linearGradient>
	<path class="st12" d="M185.7,101.9c-3.8-4.9-11.8-9.1-18.2-11s-15.6-7.2-15.6-7.2L140.1,84l-11.8-0.4c0,0-9.1,5.7-15.6,7.2
		c-6.5,1.9-14.1,6.1-18.2,11c-2.3,3-2.3,15.2-2.3,15.2s2.3,4.2,5.7,6.5s9.9,4.2,9.9,4.2s8.4,6.5,32.3,6.5s32.3-6.5,32.3-6.5
		s6.5-1.9,9.9-4.2s5.7-6.5,5.7-6.5S188,104.9,185.7,101.9L185.7,101.9z"/>
	
		<linearGradient id="SVGID_11_" gradientUnits="userSpaceOnUse" x1="127.7874" y1="104.0144" x2="152.7438" y2="104.0144" gradientTransform="matrix(1 0 0 -1 0 192)">
		<stop  offset="0" style="stop-color:#CDB296"/>
		<stop  offset="0.1044" style="stop-color:#BAA280"/>
		<stop  offset="0.2306" style="stop-color:#AA936D"/>
		<stop  offset="0.3603" style="stop-color:#A08B62"/>
		<stop  offset="0.4975" style="stop-color:#9D885E"/>
		<stop  offset="0.6311" style="stop-color:#A08B62"/>
		<stop  offset="0.7662" style="stop-color:#AB946E"/>
		<stop  offset="0.9014" style="stop-color:#BCA382"/>
		<stop  offset="1" style="stop-color:#CDB296"/>
	</linearGradient>
	<polyline class="st13" points="152.7,98.4 140.1,95 127.9,98.4 127.9,77.5 152.7,77.5 152.7,98.4 	"/>
	
		<linearGradient id="SVGID_12_" gradientUnits="userSpaceOnUse" x1="120.1472" y1="131.7611" x2="160.3844" y2="131.7611" gradientTransform="matrix(1 0 0 -1 0 192)">
		<stop  offset="0" style="stop-color:#F7D4B1"/>
		<stop  offset="0.14" style="stop-color:#CDB296"/>
		<stop  offset="0.4967" style="stop-color:#F7D4B1"/>
		<stop  offset="0.915" style="stop-color:#CDB296"/>
		<stop  offset="1" style="stop-color:#F7D4B1"/>
	</linearGradient>
	<path class="st14" d="M160.3,56.2c0,0,1.1-19.8-20.1-19.8c-19.8,0-20.1,19.8-20.1,19.8s-0.4,11.4,3.8,17.1S136.3,84,140.1,84
		s12.5-5.3,16.3-10.6C160.6,67.7,160.3,56.2,160.3,56.2L160.3,56.2z"/>
	<path class="st0" d="M127.2,86.3c0,0,8,6.1,11,7.6c3.4,1.5,2.3,1.5,2.3,1.5s-5.3,9.9-5.7,9.9c-0.4,0-4.9-1.9-9.1-6.8
		c-3-3.8-7.2-9.9-7.2-9.9l8.7-2.7V86.3z"/>
	<path class="st0" d="M154.2,86.3c0,0-8.4,8-12.2,8.4c-0.8,0-1.1,1.1-1.1,1.1s4.9,11,5.3,11s5.3-3.4,9.1-8.4c3-3.4,6.5-9.1,6.8-9.5
		L154.2,86.3L154.2,86.3z"/>
	
		<linearGradient id="SVGID_13_" gradientUnits="userSpaceOnUse" x1="130.0288" y1="108.5556" x2="130.047" y2="87.5859" gradientTransform="matrix(1 0 0 -1 0 192)">
		<stop  offset="0" style="stop-color:#FFFFFF"/>
		<stop  offset="0.128" style="stop-color:#999999"/>
		<stop  offset="0.8251" style="stop-color:#FFFFFF"/>
	</linearGradient>
	<path class="st15" d="M127.2,83.6c0,0,6.8,8.7,10.3,10.3c3.4,1.5,3.4,1.5,3.4,1.5s-5.3,8.7-5.7,9.1c-0.8,0.8-6.5-3.4-10.3-8.4
		c-3-3.8-5.7-8-5.7-8L127.2,83.6L127.2,83.6z"/>
	
		<linearGradient id="SVGID_14_" gradientUnits="userSpaceOnUse" x1="140.2985" y1="125.9289" x2="140.2985" y2="154.8418" gradientTransform="matrix(1 0 0 -1 0 192)">
		<stop  offset="0" style="stop-color:#C39A6F;stop-opacity:0"/>
		<stop  offset="1" style="stop-color:#C39A6F"/>
	</linearGradient>
	<path class="st16" d="M140.5,65.4c-8.7,0-16.3-6.1-16.3-13.7s6.8-14.1,16-14.1c8.7,0,16.3,6.1,16.3,13.7S149.2,65,140.5,65.4z"/>
	
		<linearGradient id="SVGID_15_" gradientUnits="userSpaceOnUse" x1="-97.1154" y1="244.1315" x2="-97.1154" y2="273.0432" gradientTransform="matrix(-0.7739 2.600318e-02 2.494010e-02 0.7566 58.6829 -120.5648)">
		<stop  offset="0" style="stop-color:#C39A6F;stop-opacity:0"/>
		<stop  offset="1" style="stop-color:#C39A6F"/>
	</linearGradient>
	<path class="st17" d="M139.7,62.3c6.8-0.4,15.6,4.6,16,10.6c0,3-3.8,4.6-5.7,6.8c-2.3,1.9-5.7,3.8-9.1,3.8c-2.7,0-5.3-1.5-7.6-2.7
		c-3-1.9-8-4.9-8.4-8.4C124.5,66.5,132.9,62.7,139.7,62.3z"/>
	<polygon class="st8" points="150.4,133.8 144.7,111.4 147.7,104.5 141.6,95.4 136.3,104.5 138.2,111.4 134,133.8 	"/>
	
		<linearGradient id="SVGID_16_" gradientUnits="userSpaceOnUse" x1="140.6786" y1="80.6813" x2="140.6786" y2="96.7687" gradientTransform="matrix(1 0 0 -1 0 192)">
		<stop  offset="0" style="stop-color:#D2CE3C"/>
		<stop  offset="0.2496" style="stop-color:#BCB93B"/>
		<stop  offset="1" style="stop-color:#7E7E38"/>
	</linearGradient>
	<polygon class="st18" points="134.8,104.5 137.1,111.4 143.5,111.4 146.6,104.5 140.5,95.4 	"/>
	
		<linearGradient id="SVGID_17_" gradientUnits="userSpaceOnUse" x1="132.659" y1="69.8061" x2="149.0877" y2="69.8061" gradientTransform="matrix(1 0 0 -1 0 192)">
		<stop  offset="0" style="stop-color:#D2CE3C"/>
		<stop  offset="0.2496" style="stop-color:#BCB93B"/>
		<stop  offset="1" style="stop-color:#7E7E38"/>
	</linearGradient>
	<polygon class="st19" points="137.1,110.6 132.5,133.8 149.2,133.8 143.1,110.6 	"/>
	
		<linearGradient id="SVGID_18_" gradientUnits="userSpaceOnUse" x1="151.3137" y1="108.5503" x2="151.3335" y2="85.8326" gradientTransform="matrix(1 0 0 -1 0 192)">
		<stop  offset="0" style="stop-color:#FFFFFF"/>
		<stop  offset="0.128" style="stop-color:#999999"/>
		<stop  offset="0.8251" style="stop-color:#FFFFFF"/>
	</linearGradient>
	<path class="st20" d="M154.2,83.6c0,0-6.8,8.7-10.3,10.3c-3.4,1.5-3.4,1.5-3.4,1.5s4.9,10.3,5.7,11c0.8,0.8,6.5-4.9,10.6-9.9
		c3-3.8,5.3-8,5.3-8L154.2,83.6L154.2,83.6z"/>
</g>
<g>
	<path class="st1" d="M62.6,78.3c1.5,0.8,18.2,3,24.3,3c7.6,0,25.1-1.5,26.6-3C115,76.8,89.9,76,89.9,76L62.6,78.3"/>
	
		<linearGradient id="SVGID_19_" gradientUnits="userSpaceOnUse" x1="27.2398" y1="47.1906" x2="149.4196" y2="47.1906" gradientTransform="matrix(1 0 0 -1 0 192)">
		<stop  offset="0" style="stop-color:#941C22"/>
		<stop  offset="0.2917" style="stop-color:#710E12"/>
		<stop  offset="0.5724" style="stop-color:#941C22"/>
		<stop  offset="0.7723" style="stop-color:#710E12"/>
		<stop  offset="1" style="stop-color:#941C22"/>
	</linearGradient>
	<path class="st21" d="M146.6,136.1c-4.9-6.1-15.2-11.8-23.2-14.1c-8-2.3-19.8-9.5-19.8-9.5l-15.2,0.4l-15.2-0.4
		c0,0-11.8,7.2-19.8,9.5c-8,2.3-18.2,8-23.2,14.1c-3,3.8-2.7,19.4-2.7,19.4s3,5.3,7.2,8c4.6,2.7,12.5,5.3,12.5,5.3
		s10.6,8.4,41.4,8.4s41.4-8.4,41.4-8.4s8-2.7,12.5-5.3c4.2-2.7,7.2-8,7.2-8S149.6,139.9,146.6,136.1L146.6,136.1z"/>
	
		<linearGradient id="SVGID_20_" gradientUnits="userSpaceOnUse" x1="72.4521" y1="73.607" x2="104.4866" y2="73.607" gradientTransform="matrix(1 0 0 -1 0 192)">
		<stop  offset="0" style="stop-color:#CDB296"/>
		<stop  offset="0.1044" style="stop-color:#BAA280"/>
		<stop  offset="0.2306" style="stop-color:#AA936D"/>
		<stop  offset="0.3603" style="stop-color:#A08B62"/>
		<stop  offset="0.4975" style="stop-color:#9D885E"/>
		<stop  offset="0.6311" style="stop-color:#A08B62"/>
		<stop  offset="0.7662" style="stop-color:#AB946E"/>
		<stop  offset="0.9014" style="stop-color:#BCA382"/>
		<stop  offset="1" style="stop-color:#CDB296"/>
	</linearGradient>
	<polyline class="st22" points="104.4,131.9 88.4,127.3 72.5,131.9 72.5,104.9 104.4,104.9 104.4,131.9 	"/>
	
		<linearGradient id="SVGID_21_" gradientUnits="userSpaceOnUse" x1="62.6415" y1="109.7158" x2="114.2911" y2="109.7158" gradientTransform="matrix(1 0 0 -1 0 192)">
		<stop  offset="0" style="stop-color:#F7D4B1"/>
		<stop  offset="0.14" style="stop-color:#CDB296"/>
		<stop  offset="0.4967" style="stop-color:#F7D4B1"/>
		<stop  offset="0.915" style="stop-color:#CDB296"/>
		<stop  offset="1" style="stop-color:#F7D4B1"/>
	</linearGradient>
	<path class="st23" d="M114.3,77.2c0,0,1.1-25.5-25.8-25.5c-25.1,0-25.8,25.5-25.8,25.5s-0.4,14.8,4.6,22
		c5.3,7.2,16.3,13.7,21.3,13.7c4.9,0,16-6.5,20.9-13.7C114.6,92,114.3,77.2,114.3,77.2L114.3,77.2z"/>
	<path class="st0" d="M71.7,115.9c0,0,9.9,8,14.4,9.9c4.2,1.9,3,1.9,3,1.9s-6.8,12.5-7.2,12.5c-0.4,0-6.5-2.3-11.8-8.7
		C66.4,126.6,61,119,61,119l11.4-3.4L71.7,115.9z"/>
	<path class="st0" d="M106.3,115.9c0,0-11,10.3-15.6,10.6c-1.1,0-1.5,1.1-1.5,1.1s6.1,14.1,7.2,14.4c0.4,0,6.8-4.2,11.8-10.6
		c3.8-4.6,8-11.4,8.7-12.2L106.3,115.9L106.3,115.9z"/>
	
		<linearGradient id="SVGID_22_" gradientUnits="userSpaceOnUse" x1="74.5336" y1="79.5703" x2="74.5571" y2="52.6534" gradientTransform="matrix(1 0 0 -1 0 192)">
		<stop  offset="0" style="stop-color:#FFFFFF"/>
		<stop  offset="0.128" style="stop-color:#999999"/>
		<stop  offset="0.8251" style="stop-color:#FFFFFF"/>
	</linearGradient>
	<path class="st24" d="M71.7,112.5c0,0,8.7,11,12.9,12.9s4.2,1.9,4.2,1.9s-6.8,11.4-7.6,11.8c-1.1,0.8-8-4.2-13.3-10.6
		c-3.8-4.9-7.6-10.3-7.6-10.3L71.7,112.5L71.7,112.5z"/>
	
		<linearGradient id="SVGID_23_" gradientUnits="userSpaceOnUse" x1="88.606" y1="101.8718" x2="88.606" y2="138.9851" gradientTransform="matrix(1 0 0 -1 0 192)">
		<stop  offset="0" style="stop-color:#C39A6F;stop-opacity:0"/>
		<stop  offset="1" style="stop-color:#C39A6F"/>
	</linearGradient>
	<path class="st25" d="M88.8,88.9c-11.4,0-20.9-7.6-20.9-17.9c0-9.9,9.1-18.2,20.5-18.2s20.9,7.6,20.9,17.9S100.2,88.9,88.8,88.9z"
		/>
	
		<linearGradient id="SVGID_24_" gradientUnits="userSpaceOnUse" x1="-29.0506" y1="271.9269" x2="-29.0506" y2="309.0383" gradientTransform="matrix(-0.7739 2.600318e-02 2.494010e-02 0.7566 58.6829 -120.5648)">
		<stop  offset="0" style="stop-color:#C39A6F;stop-opacity:0"/>
		<stop  offset="1" style="stop-color:#C39A6F"/>
	</linearGradient>
	<path class="st26" d="M87.7,85.1c8.7-0.4,20.1,6.1,20.5,13.7c0,3.8-4.6,6.1-7.6,8.7c-2.7,2.7-7.2,4.9-11.8,4.9
		c-3.8,0-6.8-1.9-9.5-3.4c-3.8-2.3-10.3-6.5-10.6-10.6C68.3,90.8,78.9,85.5,87.7,85.1z"/>
	<polygon class="st8" points="101.3,177.1 94.1,148.2 97.9,139.5 90.3,127.7 83.1,139.1 86.1,148.2 80.4,177.1 	"/>
	
		<linearGradient id="SVGID_25_" gradientUnits="userSpaceOnUse" x1="88.9861" y1="43.7915" x2="88.9861" y2="64.4411" gradientTransform="matrix(1 0 0 -1 0 192)">
		<stop  offset="0" style="stop-color:#4AB54F"/>
		<stop  offset="0.1525" style="stop-color:#42A94C"/>
		<stop  offset="1" style="stop-color:#156B39"/>
	</linearGradient>
	<polygon class="st27" points="81.6,139.1 84.6,148.2 92.6,148.2 96.4,139.5 88.4,127.7 	"/>
	
		<linearGradient id="SVGID_26_" gradientUnits="userSpaceOnUse" x1="78.7023" y1="29.8965" x2="99.7906" y2="29.8965" gradientTransform="matrix(1 0 0 -1 0 192)">
		<stop  offset="0" style="stop-color:#4AB54F"/>
		<stop  offset="0.1525" style="stop-color:#42A94C"/>
		<stop  offset="1" style="stop-color:#156B39"/>
	</linearGradient>
	<polygon class="st28" points="84.6,147.1 78.5,177.1 99.8,177.1 92.2,147.1 	"/>
	
		<linearGradient id="SVGID_27_" gradientUnits="userSpaceOnUse" x1="103.0405" y1="79.5648" x2="103.0659" y2="50.4041" gradientTransform="matrix(1 0 0 -1 0 192)">
		<stop  offset="0" style="stop-color:#FFFFFF"/>
		<stop  offset="0.128" style="stop-color:#999999"/>
		<stop  offset="0.8251" style="stop-color:#FFFFFF"/>
	</linearGradient>
	<path class="st29" d="M106.3,112.5c0,0-8.7,11-12.9,12.9c-4.2,1.9-4.2,1.9-4.2,1.9s6.1,13.3,7.2,14.1c1.1,1.1,8.4-6.5,13.7-12.9
		c3.8-4.9,6.8-10.3,6.8-10.3L106.3,112.5L106.3,112.5z"/>
</g>
</svg>
