<?xml version="1.0" encoding="utf-8"?>
<!-- Generator: Adobe Illustrator 19.2.1, SVG Export Plug-In . SVG Version: 6.00 Build 0)  -->
<svg version="1.1" id="Layer_1" xmlns="http://www.w3.org/2000/svg" xmlns:xlink="http://www.w3.org/1999/xlink" x="0px" y="0px"
	 viewBox="0 0 385 385" style="enable-background:new 0 0 385 385;" xml:space="preserve">
<style type="text/css">
	.st0{fill:none;}
	.st1{fill:#5A6E5C;}
	.st2{fill:#755403;}
	.st3{fill:#D19D2A;}
	.st4{fill:#353535;stroke:#D8D8D8;stroke-width:0.2197;stroke-miterlimit:10;}
	.st5{fill:#FFB40D;stroke:#353535;stroke-width:0.1202;stroke-miterlimit:10;}
	.st6{fill:#D8D8D8;stroke:#353535;stroke-width:0.1014;stroke-miterlimit:10;}
	.st7{fill:#D8D8D8;}
	.st8{font-family:'Chalkduster';}
	.st9{font-size:64.0525px;}
	.st10{display:none;fill:none;stroke:#666666;stroke-width:0.3132;stroke-miterlimit:10;enable-background:new    ;}
	.st11{fill:none;stroke:#5A6E5C;stroke-width:2;stroke-miterlimit:10;}
</style>
<g>
	<path class="st0" d="M303.9,50.5H81.4c-14.1,0-26.2,9.5-30,22.5h282.5C330.1,60,318,50.5,303.9,50.5z"/>
	<path class="st0" d="M52,315c4.4,11.9,16,20.5,29.4,20.5h222.5c13.4,0,25-8.6,29.4-20.5H52z"/>
	<path class="st1" d="M335.2,304.3V81.8c0-3.1-0.5-6-1.3-8.8H51.4c-0.8,2.8-1.3,5.7-1.3,8.8v222.4c0,3.8,0.7,7.4,1.9,10.8h281.3
		C334.5,311.7,335.2,308.1,335.2,304.3z"/>
</g>
<g>
	<path class="st0" d="M49.6,81.8v222.4c0,3.1,0.5,6,1.3,8.8h282.6c0.8-2.8,1.3-5.7,1.3-8.7V81.8c0-1.8-0.2-3.6-0.5-5.3H50.1
		C49.8,78.2,49.6,80,49.6,81.8z"/>
	<path class="st2" d="M80.9,335.5h222.5c14.2,0,26.2-9.5,30-22.5H50.9C54.7,326,66.8,335.5,80.9,335.5z"/>
	<path class="st3" d="M50.1,76.5h284.2c-2.5-14.7-15.4-26-30.8-26H80.9C65.5,50.5,52.6,61.8,50.1,76.5z"/>
</g>
<rect x="69" y="287" class="st4" width="85" height="26"/>
<rect x="69" y="279.9" class="st5" width="85" height="7.8"/>
<path class="st6" d="M301.2,313h-51.4c-2.1,0-3.8-1.7-3.8-3.8v-1.4c0-2.1,1.7-3.8,3.8-3.8h51.4c2.1,0,3.8,1.7,3.8,3.8v1.4
	C305,311.3,303.3,313,301.2,313z"/>
<text transform="matrix(0.9956 -9.377810e-02 9.377810e-02 0.9956 92.4044 238.5339)" class="st7 st8 st9">1+2=3</text>
<text transform="matrix(0.9956 -9.377810e-02 9.377810e-02 0.9956 88.1343 249.5339)" class="st10 st8 st9">1+2=3</text>
<text transform="matrix(0.9956 -9.377810e-02 9.377810e-02 0.9956 122.2469 162.0339)" class="st7 st8 st9">ABC</text>
<path id="square_2_" class="st11" d="M303.4,335.5H80.9c-17.2,0-31.3-14.1-31.3-31.3V81.8c0-17.2,14.1-31.3,31.3-31.3h222.5
	c17.2,0,31.3,14.1,31.3,31.3v222.5C334.7,321.5,320.6,335.5,303.4,335.5z"/>
</svg>
