<?xml version="1.0" encoding="utf-8"?>
<!-- Generator: Adobe Illustrator 19.2.1, SVG Export Plug-In . SVG Version: 6.00 Build 0)  -->
<svg version="1.1" id="Layer_1" xmlns="http://www.w3.org/2000/svg" xmlns:xlink="http://www.w3.org/1999/xlink" x="0px" y="0px"
	 viewBox="0 0 385 385" style="enable-background:new 0 0 385 385;" xml:space="preserve">
<style type="text/css">
	.st0{fill:#AA0000;}
	.st1{fill:url(#SVGID_1_);}
	.st2{fill:#EC6C60;}
	.st3{fill:#E5E5E5;}
	.st4{fill:#EAE8E8;}
	.st5{font-family:'MalayalamMN';}
	.st6{font-size:192.7735px;}
</style>
<g id="Layer_1_1_">
	<g>
		<polygon class="st0" points="56.3,317.9 187.6,69.9 319.1,317.9 		"/>
		<g>
			<path class="st0" d="M69.3,326.8c43.9-82.6,87.4-165.2,131.5-248.2c-8.2,0-17.3,0-25.5,0c43.9,82.6,87.4,165.2,131.3,248.2
				c4.3-8.7,8.2-17.2,13-25.9c-87.4,0-175.4,0-262.8,0c-19.2,0-19.2,34.5,0,34.5c87.4,0,175.4,0,262.8,0c11.3,0,19.2-14.5,13-25.9
				c-43.9-83-87.4-165.6-131.3-248.4c-6-10.9-19.7-10.9-25.5,0c-43.9,82.6-87.4,165.2-131.3,247.8C33.6,328.2,59.4,345.4,69.3,326.8
				z"/>
		</g>
	</g>
	<g>
		
			<linearGradient id="SVGID_1_" gradientUnits="userSpaceOnUse" x1="33.7932" y1="192.1703" x2="157.4486" y2="192.1703" gradientTransform="matrix(1.96 0 0 -1.96 0 570.36)">
			<stop  offset="0" style="stop-color:#FF2A3C"/>
			<stop  offset="1" style="stop-color:#AA1E23"/>
		</linearGradient>
		<polygon class="st1" points="66.2,308.2 187.6,79.2 309,308.2 		"/>
		<g>
			<path class="st2" d="M72.9,312.3c40.4-76.6,81.1-152.9,121.4-228.8c-4.3,0-8.2,0-13,0c40.4,76.6,81.1,152.9,121.4,228.8
				c2.4-4.2,4.3-8.7,6.7-13.1c-81.1,0-161.8,0-242.8,0c-9.4,0-9.4,17.2,0,17.2c81.1,0,161.8,0,242.8,0c5.5,0,9.4-7.7,6.7-13.1
				C275.7,227.6,235,151.3,194.7,74.7c-3.1-5.5-10.1-5.5-13,0c-41,76.3-81.4,152.9-121.4,229.2C55.1,312.9,68.1,321.8,72.9,312.3z"
				/>
		</g>
	</g>
	<g>
		<polygon class="st3" points="187.6,132.3 110.4,278.7 265.6,278.7 		"/>
		<g>
			<path class="st4" d="M174.6,123.6c-25.5,48.9-51.8,97.6-77.3,146.6c-6,10.9,1.9,25.9,13,25.9c51.8,0,103.5,0,155.3,0
				c11.3,0,19.2-14.5,13-25.9c-25.5-48.9-51.8-97.6-77.3-146.6c-10.1-18.6-35.7-1.4-25.5,17.2c25.5,48.9,51.6,97.6,77.3,146.6
				c4.3-8.7,8.2-17.2,13-25.9c-51.8,0-103.5,0-155.3,0c4.3,8.7,8.2,17.2,13,25.9c25.5-48.9,51.8-97.6,77.3-146.6
				C210.7,122.2,184.6,105,174.6,123.6z"/>
		</g>
	</g>
	<text transform="matrix(1.0866 0 0 1 158.0713 281.3301)" class="st5 st6">!</text>
</g>
</svg>
