<?xml version="1.0" encoding="utf-8"?>
<!-- Generator: Adobe Illustrator 19.2.1, SVG Export Plug-In . SVG Version: 6.00 Build 0)  -->
<svg version="1.1" id="Layer_1" xmlns="http://www.w3.org/2000/svg" xmlns:xlink="http://www.w3.org/1999/xlink" x="0px" y="0px"
	 viewBox="0 0 385 385" style="enable-background:new 0 0 385 385;" xml:space="preserve">
<style type="text/css">
	.st0{fill:none;}
	.st1{fill:url(#SVGID_1_);}
	.st2{opacity:0.45;fill:#151719;enable-background:new    ;}
	.st3{fill:url(#SVGID_2_);}
	.st4{fill:#E2E2E2;}
	.st5{fill:none;stroke:#5A6E5C;stroke-width:2;stroke-miterlimit:10;}
</style>
<g>
	<path class="st0" d="M121.6,334.6v0.9h181.8c2.5,0,5-0.3,7.3-0.9H121.6z"/>
	<linearGradient id="SVGID_1_" gradientUnits="userSpaceOnUse" x1="50.4712" y1="192.5644" x2="335.4712" y2="192.5644">
		<stop  offset="0" style="stop-color:#026580"/>
		<stop  offset="1" style="stop-color:#038193"/>
	</linearGradient>
	<path class="st1" d="M310.7,334.6c13.7-3.3,24-15.6,24-30.3V81.8c0-17.2-14.1-31.3-31.3-31.3H121.6v284.1H310.7z"/>
	<path class="st2" d="M49.6,81.8v222.4c0,2.5,0.3,4.9,0.9,7.3v-237C49.9,76.9,49.6,79.3,49.6,81.8z"/>
	<path class="st2" d="M73.6,334.6c2.3,0.6,4.8,0.9,7.3,0.9h40.7v-0.9H73.6z"/>
	<linearGradient id="SVGID_2_" gradientUnits="userSpaceOnUse" x1="50.4711" y1="192.5644" x2="335.4711" y2="192.5644">
		<stop  offset="0" style="stop-color:#026580"/>
		<stop  offset="1" style="stop-color:#038193"/>
	</linearGradient>
	<path class="st3" d="M121.6,50.5H80.9c-14.7,0-27.1,10.3-30.4,24v237c2.7,11.4,11.8,20.4,23.1,23.1h48V50.5z"/>
	<path class="st2" d="M121.6,50.5H80.9c-14.7,0-27.1,10.3-30.4,24v237c2.7,11.4,11.8,20.4,23.1,23.1h48V50.5z"/>
</g>
<path class="st4" d="M165,250.2c4.7,3.7,14.3,6.2,14.3,6.2s13.2,11.4,48.8,11.4c37,0,48.8-9.4,48.8-9.4s9.3-3.7,14.3-6.2
	c4.7-3.7,8.2-9.4,8.2-9.4s0.5-17.9-2.9-22.9c-6.2-7.1-18-14.6-27.3-17.1c-3.6-1.2-8.2-2.5-11.9-4.8c0-1.2,1.1-2.5,1.1-2.5l-10.7-6.2
	c0,0,0,0-1.1,1.2V182c2.5-2.5,4.7-4.8,6.2-7.1c6.2-8.3,1.1-26.5,1.1-26.5s-2.5-30.2-26.2-30.2c-28.7,0-29.8,28.3-29.8,28.3
	s0,20.2,6.2,28.5c1.1,2.5,3.6,4.8,6.2,7.1v8.3c0-1.2-1.1-1.2-1.1-1.2l-10.7,4.3c0,0,0,1.2,1.1,2.5c-3.6,2.5-8.2,3.7-11.9,4.8
	c-9.3,2.5-21.4,9.4-27.3,17.1c-3.6,4.8-3.6,22.8-3.6,22.8S160.4,247,165,250.2z"/>
<path id="square_9_" class="st5" d="M303.4,335.5H80.9c-17.2,0-31.3-14.1-31.3-31.3V81.8c0-17.2,14.1-31.3,31.3-31.3h222.5
	c17.2,0,31.3,14.1,31.3,31.3v222.5C334.7,321.5,320.6,335.5,303.4,335.5z"/>
</svg>
