<?xml version="1.0" encoding="utf-8"?>
<!-- Generator: Adobe Illustrator 19.2.1, SVG Export Plug-In . SVG Version: 6.00 Build 0)  -->
<svg version="1.1" id="Layer_1" xmlns="http://www.w3.org/2000/svg" xmlns:xlink="http://www.w3.org/1999/xlink" x="0px" y="0px"
	 viewBox="0 0 385 385" style="enable-background:new 0 0 385 385;" xml:space="preserve">
<style type="text/css">
	.st0{fill:#231F20;}
	.st1{fill:#CE7806;stroke:#FFFFFF;stroke-width:6.7265;stroke-miterlimit:10;}
	.st2{fill:#FFFFFF;stroke:#231F20;stroke-width:1.0097;stroke-miterlimit:10;}
</style>
<g id="Layer_1_copy">
	<circle class="st0" cx="193.5" cy="192.3" r="143.3"/>
	<ellipse class="st1" cx="193.5" cy="192.3" rx="132.8" ry="132.8"/>
	<path class="st2" d="M182.5,237.1c0-3.2,0-6.4,0-9.8c0-7.2,0.8-13.3,1.7-18.2c1.7-4.9,3.2-9.8,4.9-12.4c1.7-4,4-7.2,6.4-9.8
		c2.4-2.4,4-5.7,6.4-8.9c1.7-3.2,3.2-7.2,4.9-10.9c1.7-4,1.7-8.9,1.7-15c0-4.9-0.8-8.9-1.7-11.8c-0.8-3.2-2.4-6.4-4.9-8.9
		c-1.7-2.4-4-4-6.4-4.9c-3.2-0.8-5.7-1.7-8.9-1.7c-2.4,0-4.9,0-7.2,0.8s-4,1.7-5.7,2.4c-1.7,0.8-3.2,2.4-4,4
		c-0.8,1.7-1.7,3.2-1.7,4.9c0,1.7,0.8,3.2,1.7,4.9c0.8,1.7,1.7,2.4,2.4,4c0.8,1.7,1.7,2.4,2.4,4c0.8,1.7,1.7,3.2,1.7,4.9
		c0,2.4-0.8,4-1.7,5.7c-0.8,1.7-2.4,3.2-4,4c-1.7,1.7-3.2,2.4-5.7,3.2c-2.4,0.8-4,0.8-6.4,0.8c-3.2,0-5.7-0.8-8.1-1.7
		c-2.4-0.8-4.9-2.4-6.4-4c-1.7-1.7-3.2-4-4-6.4c-0.8-2.4-1.7-4.9-1.7-8.1c0-7.2,1.7-12.4,4.9-17.3c3.2-4.9,7.2-8.9,12.4-11.8
		c4.9-3.2,10.9-5.7,16.5-6.4c6.4-1.7,12.4-2.4,18.2-2.4c8.1,0,15,0.8,22.2,3.2c7.2,1.7,12.4,4.9,17.3,8.1s8.9,8.1,11.8,12.4
		c3.2,4.9,4,10.1,4,16.5c0,4-0.8,8.1-2.4,11.8c-0.3,3.2-2,6.4-4.4,9.8c-2.4,3.2-4.9,5.7-8.1,8.1c-3.2,2.4-5.7,5.7-8.9,8.1
		c-3.2,2.4-6.4,5.7-8.9,8.1c-3.2,3.2-5.7,6.4-8.1,9.8c-2.4,3.2-4,7.2-5.7,10.9c-1.7,4-2.4,8.9-2.4,14.1c0,0.8,0,1.7,0,3.2
		c0,0.8,0,1.7,0,3.2h-14.1v-0.7C182.4,237.1,182.5,237.1,182.5,237.1z M172.1,262.4c0-2.4,0.8-4.9,1.7-6.4c0.8-2.4,2.4-4,4-5.7
		s4-2.4,5.7-4c2.4-0.8,4.9-1.7,7.2-1.7c2.4,0,4.9,0.8,7.2,1.7c2.4,0.8,4,2.4,5.7,4c1.7,1.7,3.2,3.2,4,5.7c0.8,2.5,1.7,4,1.7,6.4
		s-0.8,4.9-1.7,6.4c-0.8,2.4-2.4,4-4,5.7c-1.7,1.7-4,2.4-5.7,3.2c-2.4,0.8-4.9,1.7-7.2,1.7c-2.4,0-4.9-0.8-7.2-1.7
		c-2.4-0.8-4-2.4-5.7-3.2c-1.7-1.7-3.2-3.2-4-5.7C173,266.5,172.1,265,172.1,262.4z"/>
</g>
</svg>
