<?xml version="1.0" encoding="utf-8"?>
<!-- Generator: Adobe Illustrator 19.2.1, SVG Export Plug-In . SVG Version: 6.00 Build 0)  -->
<svg version="1.1" id="Layer_1" xmlns="http://www.w3.org/2000/svg" xmlns:xlink="http://www.w3.org/1999/xlink" x="0px" y="0px"
	 viewBox="0 0 385 385" style="enable-background:new 0 0 385 385;" xml:space="preserve">
<style type="text/css">
	.st0{fill:url(#square_1_);}
	.st1{fill:#89582F;}
	.st2{fill:#563007;}
	.st3{fill:#7C5618;}
	.st4{fill:#0A0909;}
	.st5{fill:#B5B4B4;}
	.st6{fill:#C1C1C1;}
	.st7{fill:#A5A4A4;}
	.st8{fill:#323031;}
	.st9{fill:#D8AD9A;}
	.st10{fill:#F7C800;}
	.st11{fill:#D3D4DD;}
	.st12{fill:none;stroke:#5A6E5C;stroke-width:2;stroke-miterlimit:10;}
	.st13{fill:#19496E;}
	.st14{fill:#ECE3E4;}
</style>
<g id="Layer_14">
	<g>
		<linearGradient id="square_1_" gradientUnits="userSpaceOnUse" x1="191.25" y1="50.5" x2="191.25" y2="335.6">
			<stop  offset="0" style="stop-color:#FFFFFF"/>
			<stop  offset="1" style="stop-color:#FFF8E8"/>
		</linearGradient>
		<path id="square_16_" class="st0" d="M333.8,304.3c0,17.2-14.1,31.3-31.3,31.3H80c-17.3-0.1-31.3-14.1-31.3-31.3V81.8
			c0-17.2,14.1-31.3,31.3-31.3h222.5c17.2,0,31.3,14.1,31.3,31.3"/>
		<path class="st1" d="M271.1,203L156.8,335.6h146.7c17.2,0,31.3-14.1,31.3-31.3V201.1c-2,1.2-4.4,1.9-7,1.9H271.1z"/>
		<path class="st1" d="M231.8,203h-48.7v5.6v5.1v38.5h-48.8v-38.5v-5.1V203H49.7v101.3c0,17.2,14,31.2,31.3,31.3h41.6l6.6-13.7
			L231.8,203z"/>
		<path class="st2" d="M240.7,95.8v6.7h-17.9v-6.7h-39.7V203h48.7l51.8-60l0.3,0.2l5.7-7l0.4,0.4c0.6-1.5,1.5-3,2.7-4.3l0.9-0.9
			c5.6-6.3,14.6-7.2,20.9-1.6c6.4,5.6,7.3,14.8,1.6,20.9l-0.9,0.9c-1.2,1.3-2.5,2.4-3.9,3.2l1,0.9l-10.8,13.2l-0.6-0.5L271.1,203
			h56.7c2.6,0,5-0.7,7-1.9v-103c-2.2-1.4-4.8-2.3-7.8-2.3H240.7z"/>
		<polygon class="st2" points="134.4,95.8 92.3,95.8 92.3,102.5 74.5,102.5 74.5,95.8 49.7,95.8 49.7,203 134.4,203 		"/>
		<polygon class="st3" points="134.4,95.5 134.4,95.8 134.4,203 134.4,208.6 183.1,208.6 183.1,203 183.1,95.8 183.1,95.5 		"/>
		<path class="st4" d="M92.3,89.5h130.5v-3.2h16.7c1-1.3,1.6-2.9,1.6-4.8c-0.1-5.4-3.4-8.1-8.1-8.1H82.2c-4,0-8.1,3.1-8.1,8.1
			c0,1.7,0.6,3.4,1.6,4.8h16.5v3.2H92.3z"/>
		<polygon class="st5" points="222.8,89.5 222.8,95.8 222.8,102.5 240.7,102.5 240.7,95.8 240.7,86.3 239.5,86.3 222.8,86.3 		"/>
		<polygon class="st6" points="92.3,102.5 92.3,95.8 92.3,89.5 92.3,86.3 75.8,86.3 74.5,86.3 74.5,95.8 74.5,102.5 		"/>
		<path class="st7" d="M134.4,213.7v38.5h48.8v-38.5v-5.1h-48.8V213.7z M162.3,231.5c-0.9,1.6-0.9,6.3-0.9,9.4c0,2.5-4.7,2.5-4.7,0
			c1-2.2,0.1-8.6-0.7-9.4c-1.6-2.5-2.5-8.1,0-9.8c2.5-1.6,4.7-1.6,6.3,0C164.8,224.8,164.8,229.8,162.3,231.5z"/>
		<path class="st8" d="M156,221.7c-2.5,1.8-1.6,7.3,0,9.8c0.9,0.7,1.8,7.2,0.7,9.4c0,2.5,4.7,2.5,4.7,0c0-3.1,0-7.8,0.9-9.4
			c2.5-1.8,2.5-6.7,0-9.8C160.7,220.1,158.5,220.1,156,221.7z"/>
		<path class="st9" d="M315.3,151.6l0.9-0.9c5.7-6.1,4.8-15.4-1.6-20.9c-6.3-5.6-15.4-4.7-20.9,1.6l-0.9,0.9c-1.2,1.3-2,2.8-2.7,4.3
			l21.3,18.3C312.8,154,314.1,152.9,315.3,151.6z"/>
		<polygon class="st10" points="300.9,168.4 279,149.3 283.9,143.2 283.7,143 231.8,203 129.2,321.9 133.6,324.1 136.1,328.2 
			137.5,329.4 143.8,332.1 146,335.6 156.8,335.6 271.1,203 		"/>
		<polygon class="st11" points="300.9,168.4 301.5,168.9 312.4,155.7 311.4,154.8 290.1,136.6 289.7,136.2 283.9,143.2 279,149.3 		
			"/>
	</g>
</g>
<path id="square_3_" class="st12" d="M49.7,304.3V81.8c0-17.2,14.1-31.3,31.3-31.3h222.5c17.2,0,31.3,14.1,31.3,31.3v222.5
	c0,17.2-14.1,31.3-31.3,31.3H81C63.7,335.5,49.7,321.5,49.7,304.3z"/>
<g id="Layer_3">
	<g id="Gear">
		<ellipse class="st13" cx="294.9" cy="298" rx="67.1" ry="68.1"/>
		<path class="st14" d="M327,248.2l-5.3,6.2c-2.6-1.4-5.3-3-7.9-4.3l1.4-8.2c0-0.9-0.4-1.4-1-1.9l-2.6-0.9c-0.9-0.4-1.9,0-1.9,0.9
			l-3,7.8c-3-0.9-6.2-0.9-9.2-1l-1-8.2c0-0.9-0.9-1.4-1.9-1.4H292c-0.9,0-1.4,0.9-1.4,1.4l-0.4,8.6c-3,0.4-6.2,1-8.8,1.9l-4.3-7.3
			c-0.4-0.9-1.4-1-2.3-0.9l-2.3,1c-0.9,0.4-1,1-0.9,1.9l2.6,8.2c-2.6,1.4-5.3,3-7.8,5.2l-6.5-5.8c-0.9-0.4-1.4-0.4-2.3,0l-1.9,1.4
			c-0.9,0.4-0.9,1.4,0,2.3l5.3,7.1c-1.9,2.3-3.9,4.8-5.3,7.3l-7.9-3c-0.9-0.4-1.9,0-1.9,0.9l-1,2.3c-0.4,0.9,0,1.4,0.4,2.3l7.3,4.8
			c-1,2.7-1.9,5.3-2.6,8.6l0,0h-8.8c-0.9,0-1.4,0.9-1.4,1.4l-0.4,2.7c0,0.9,0.4,1.4,1,1.9l8.3,1.9c0,1.4,0,3,0,5.2
			c0,1,0.4,2.7,0.4,4.3l0,0l-8.3,2.7c-0.9,0.4-1,1-1,1.9l0.9,2.7c0,0.9,1,1.4,1.9,1l8.3-1c0.9,2.7,1.9,5.8,3.5,8.2l-7.6,5.9
			c-0.9,0.4-0.9,1.4-0.4,2.3l1.4,2.3c0.4,0.9,1.4,1,2.3,0.9l7.8-4.3c1.9,2.3,3.9,4.8,6.2,6.6l-4.5,7.3c-0.4,0.9-0.4,1.4,0.4,2.3
			l2.3,1.4c0.9,0.4,1.4,0.4,2.3,0l5.8-6.6c2.6,1.4,5.3,3,7.9,4.3l-1.4,8.6c0,0.9,0.4,1.4,1,1.9l2.6,0.9c0.9,0.4,1.9,0,1.9-0.9l3-7.8
			c3,0.9,5.8,1,8.8,1l1,8.6c0,0.9,0.9,1.4,1.9,1.4h2.6c0.9,0,1.4-0.9,1.4-1.4l0.4-8.6c3-0.4,6.2-1,8.8-1.9l3.9,7.3
			c0.4,0.9,1.4,1,2.3,0.9l2.3-1c0.9-0.4,1-1,0.9-1.9l-2.6-7.8c2.6-1.4,5.3-3,7.8-5.2l6.2,5.3c0.9,0.4,1.4,0.4,2.3,0l1.9-1.9
			c0.9-0.4,0.9-1.4,0-2.3l-4.9-6.2c1.9-2.3,3.9-4.8,5.8-7.3l7.8,3c0.9,0.4,1.9,0,1.9-0.9l1-2.3c0.4-0.9,0-1.4-0.4-2.3l-6.9-4.3
			c1-2.7,1.9-5.8,2.6-9.1h7.9c0.9,0,1.4-0.9,1.4-1.4l0.4-2.7c0-0.9-0.4-1.4-1-1.9l-7.8-1.4c0-1.4,0-3.5,0-5.2c0-1.4-0.4-2.7-0.4-4.3
			l7.8-2.7c0.9-0.4,1-1,1-1.9l-0.9-2.7c0-0.9-1-1.4-1.9-1l-7.8,1c-0.9-3-2.3-5.8-3.9-8.6l6.2-5.2c0.9-0.4,0.9-1.4,0.4-2.3l-1.4-2.3
			c-0.4-0.9-1.4-1-2.3-0.9l-6.9,3.9c-1.9-2.3-4.3-4.8-6.2-6.6l4.3-7.1c0.4-0.9,0.4-1.4-0.4-2.3l-2.3-1.4
			C328.9,247.5,327.9,247.5,327,248.2z M293.8,254.8c5.3-0.4,10.8,0.4,15.7,1.9l-9.6,19.3c-1.4-0.4-3-0.4-4.5-0.4
			c-1.9,0-3.5,0.4-4.9,1l-11.8-18.3C283,256.6,288.3,254.8,293.8,254.8z M322.6,326.8l-11.8-18.3c2.3-2.3,3.9-5.3,4.5-9.1l21.4-1
			C335.8,309.7,330.5,319.8,322.6,326.8z M269.6,264.8l11.8,18.3c-1.9,2.3-3.5,5.3-4.3,8.6l-21.4,1
			C256.9,281.3,262,271.7,269.6,264.8z M288.7,296.1c-0.4-4.3,3-8.2,7.3-8.2c4.3-0.4,7.9,3,7.9,7.3s-3,8.2-7.3,8.2
			C292.5,303.5,288.7,300.5,288.7,296.1z M256.5,303.2l21.4-1c1,3,2.6,5.8,4.9,7.8l-9.6,19.3C265.1,323.5,258.9,314,256.5,303.2z
			 M298.7,335.9c-5.8,0.4-11.2-0.4-16.1-2.3l9.6-19.3c1.4,0.4,3.5,0.4,4.9,0.4s3-0.4,4.3-0.9l11.8,18.3
			C309.2,334.6,304,335.9,298.7,335.9z M335.8,287.9l-21.4,1c-1-3-3-6.2-5.3-8.6l9.6-19.3C327.5,267.4,333.9,276.9,335.8,287.9z"/>
	</g>
</g>
</svg>
