<?xml version="1.0" encoding="utf-8"?>
<!-- Generator: Adobe Illustrator 19.2.1, SVG Export Plug-In . SVG Version: 6.00 Build 0)  -->
<svg version="1.1" id="Layer_1" xmlns="http://www.w3.org/2000/svg" xmlns:xlink="http://www.w3.org/1999/xlink" x="0px" y="0px"
	 viewBox="0 0 385 385" style="enable-background:new 0 0 385 385;" xml:space="preserve">
<style type="text/css">
	.st0{fill:url(#square_1_);}
	.st1{fill:#C1C1C1;stroke:#0E0E0E;stroke-width:1.1696;stroke-miterlimit:10;}
	.st2{fill:#1C80B7;}
	.st3{fill:#595A5B;}
	.st4{fill:#F4F4F4;}
	.st5{fill:#0B25E0;}
	.st6{fill:#FFFFFF;}
	.st7{fill:#3C3F42;}
	.st8{fill:none;stroke:#5A6E5C;stroke-width:2;stroke-miterlimit:10;}
	.st9{fill:#19496E;}
	.st10{fill:#ECE3E4;}
</style>
<linearGradient id="square_1_" gradientUnits="userSpaceOnUse" x1="193.25" y1="334.5" x2="193.25" y2="49.4" gradientTransform="matrix(1 0 0 -1 0 385)">
	<stop  offset="0" style="stop-color:#FFFFFF"/>
	<stop  offset="1" style="stop-color:#FFF8E8"/>
</linearGradient>
<path id="square_16_" class="st0" d="M335.8,304.3c0,17.2-14.1,31.3-31.3,31.3H82c-17.3-0.1-31.3-14.1-31.3-31.3V81.8
	c0-17.2,14.1-31.3,31.3-31.3h222.5c17.2,0,31.3,14.1,31.3,31.3"/>
<g id="ent._manager_1_">
	<path class="st1" d="M305.3,263.6v-97.7c0-58.5-49.6-106.2-111.8-106.2h-0.9c-62.7,0-112.3,47.7-112.3,106.2v115.5h33.3V164.1
		c0-42.1,35.5-76.3,80-76.3l0,0c43.9,0,80,34.1,80,76.3l-3.7,96.3L305.3,263.6z"/>
	<g id="lock_1_">
		<g id="locked_1_">
			<g>
				<path class="st2" d="M266.2,223c-67.1-40-154.7-17.6-194.3,50.4c-8.8,15.1-14.6,31.2-17.4,47.5c2.2,3.5,5,6.4,8.4,8.8
					c7.7-65.5,63-116.7,131.4-116.7c67.5,0,122.1,48.9,131,113.5c3.4-3.3,6-7.4,7.6-11.9C324.8,277.6,301.8,243.9,266.2,223z"/>
				<path class="st3" d="M194.2,213c-68.4,0-123.7,51.2-131.4,116.7c5.1,3.6,11.3,5.8,18.1,5.8h2.7c4.7-53.8,48.7-98.1,104.5-101.1
					c60.1-3.3,111.8,41.5,117.3,101c7.7-0.5,14.6-3.8,19.8-8.9C316.3,261.9,261.7,213,194.2,213z"/>
				<path class="st4" d="M188.1,234.4c-55.8,3-99.8,47.3-104.5,101.1h23.9c3.5-26,18.5-48.2,39.8-61.2c12.2-8.1,26.6-13.1,42.1-14
					c45-2.4,84.6,30.3,89.9,75.3h23.9c0.7,0,1.4,0,2.1-0.1C299.9,275.9,248.3,231.1,188.1,234.4z"/>
				<path class="st5" d="M192.4,261.6c-16.6,0-32,4.6-45.1,12.6c-21.3,13.1-36.3,35.2-39.8,61.2h50.9c4.1-12.1,14.5-21.9,27.8-24.5
					c18-3.6,36,7.4,41.7,24.5h49.4C271.6,293.5,235.9,261.6,192.4,261.6z"/>
				<path class="st6" d="M186.2,311c-13.2,2.5-23.6,12.3-27.8,24.5h8.6c2.2-4.7,5.6-8.9,9.9-12c3-2.2,6.5-3.9,10.2-4.8
					c12.8-2.5,26,5.1,31.7,16.8h9C222.2,318.5,204.2,307.5,186.2,311z"/>
				<path class="st7" d="M192.9,319.7c-10.9,0-20.4,6.5-24.6,15.8h49.3C213.2,326.2,203.8,319.7,192.9,319.7z"/>
			</g>
			<path class="st6" d="M195.2,235.4h-2.9c-1,0-1,0-1-1v-15.7c0-1,0-1,1-1h2.9c1,0,1,0,1,1v15.7L195.2,235.4z"/>
		</g>
	</g>
</g>
<path id="square_17_" class="st8" d="M303.4,335.5H80.9c-17.2,0-31.3-14.1-31.3-31.3V81.8c0-17.2,14.1-31.3,31.3-31.3h222.5
	c17.2,0,31.3,14.1,31.3,31.3v222.5C334.7,321.5,320.6,335.5,303.4,335.5z"/>
<g id="Layer_3_1_">
	<g id="Gear_1_">
		<ellipse class="st9" cx="294.9" cy="298" rx="67.1" ry="68.1"/>
		<path class="st10" d="M327,248.2l-5.3,6.2c-2.6-1.4-5.3-3-7.9-4.3l1.4-8.2c0-0.9-0.4-1.4-1-1.9l-2.6-0.9c-0.9-0.4-1.9,0-1.9,0.9
			l-3,7.8c-3-0.9-6.2-0.9-9.2-1l-1-8.2c0-0.9-0.9-1.4-1.9-1.4H292c-0.9,0-1.4,0.9-1.4,1.4l-0.4,8.6c-3,0.4-6.2,1-8.8,1.9l-4.3-7.3
			c-0.4-0.9-1.4-1-2.3-0.9l-2.3,1c-0.9,0.4-1,1-0.9,1.9l2.6,8.2c-2.6,1.4-5.3,3-7.8,5.2l-6.5-5.8c-0.9-0.4-1.4-0.4-2.3,0l-1.9,1.4
			c-0.9,0.4-0.9,1.4,0,2.3l5.3,7.1c-1.9,2.3-3.9,4.8-5.3,7.3l-7.9-3c-0.9-0.4-1.9,0-1.9,0.9l-1,2.3c-0.4,0.9,0,1.4,0.4,2.3l7.3,4.8
			c-1,2.7-1.9,5.3-2.6,8.6l0,0h-8.8c-0.9,0-1.4,0.9-1.4,1.4l-0.4,2.7c0,0.9,0.4,1.4,1,1.9l8.3,1.9c0,1.4,0,3,0,5.2
			c0,1,0.4,2.7,0.4,4.3l0,0l-8.3,2.7c-0.9,0.4-1,1-1,1.9l0.9,2.7c0,0.9,1,1.4,1.9,1l8.3-1c0.9,2.7,1.9,5.8,3.5,8.2l-7.6,5.9
			c-0.9,0.4-0.9,1.4-0.4,2.3l1.4,2.3c0.4,0.9,1.4,1,2.3,0.9l7.8-4.3c1.9,2.3,3.9,4.8,6.2,6.6l-4.5,7.3c-0.4,0.9-0.4,1.4,0.4,2.3
			l2.3,1.4c0.9,0.4,1.4,0.4,2.3,0l5.8-6.6c2.6,1.4,5.3,3,7.9,4.3l-1.4,8.6c0,0.9,0.4,1.4,1,1.9l2.6,0.9c0.9,0.4,1.9,0,1.9-0.9l3-7.8
			c3,0.9,5.8,1,8.8,1l1,8.6c0,0.9,0.9,1.4,1.9,1.4h2.6c0.9,0,1.4-0.9,1.4-1.4l0.4-8.6c3-0.4,6.2-1,8.8-1.9l3.9,7.3
			c0.4,0.9,1.4,1,2.3,0.9l2.3-1c0.9-0.4,1-1,0.9-1.9l-2.6-7.8c2.6-1.4,5.3-3,7.8-5.2l6.2,5.3c0.9,0.4,1.4,0.4,2.3,0l1.9-1.9
			c0.9-0.4,0.9-1.4,0-2.3l-4.9-6.2c1.9-2.3,3.9-4.8,5.8-7.3l7.8,3c0.9,0.4,1.9,0,1.9-0.9l1-2.3c0.4-0.9,0-1.4-0.4-2.3l-6.9-4.3
			c1-2.7,1.9-5.8,2.6-9.1h7.9c0.9,0,1.4-0.9,1.4-1.4l0.4-2.7c0-0.9-0.4-1.4-1-1.9l-7.8-1.4c0-1.4,0-3.5,0-5.2c0-1.4-0.4-2.7-0.4-4.3
			l7.8-2.7c0.9-0.4,1-1,1-1.9l-0.9-2.7c0-0.9-1-1.4-1.9-1l-7.8,1c-0.9-3-2.3-5.8-3.9-8.6l6.2-5.2c0.9-0.4,0.9-1.4,0.4-2.3l-1.4-2.3
			c-0.4-0.9-1.4-1-2.3-0.9l-6.9,3.9c-1.9-2.3-4.3-4.8-6.2-6.6l4.3-7.1c0.4-0.9,0.4-1.4-0.4-2.3l-2.3-1.4
			C328.9,247.5,327.9,247.5,327,248.2z M293.8,254.8c5.3-0.4,10.8,0.4,15.7,1.9l-9.6,19.3c-1.4-0.4-3-0.4-4.5-0.4
			c-1.9,0-3.5,0.4-4.9,1l-11.8-18.3C283,256.6,288.3,254.8,293.8,254.8z M322.6,326.8l-11.8-18.3c2.3-2.3,3.9-5.3,4.5-9.1l21.4-1
			C335.8,309.7,330.5,319.8,322.6,326.8z M269.6,264.8l11.8,18.3c-1.9,2.3-3.5,5.3-4.3,8.6l-21.4,1
			C256.9,281.3,262,271.7,269.6,264.8z M288.7,296.1c-0.4-4.3,3-8.2,7.3-8.2c4.3-0.4,7.9,3,7.9,7.3s-3,8.2-7.3,8.2
			C292.5,303.5,288.7,300.5,288.7,296.1z M256.5,303.2l21.4-1c1,3,2.6,5.8,4.9,7.8l-9.6,19.3C265.1,323.5,258.9,314,256.5,303.2z
			 M298.7,335.9c-5.8,0.4-11.2-0.4-16.1-2.3l9.6-19.3c1.4,0.4,3.5,0.4,4.9,0.4s3-0.4,4.3-0.9l11.8,18.3
			C309.2,334.6,304,335.9,298.7,335.9z M335.8,287.9l-21.4,1c-1-3-3-6.2-5.3-8.6l9.6-19.3C327.5,267.4,333.9,276.9,335.8,287.9z"/>
	</g>
</g>
</svg>
