<?xml version="1.0" encoding="utf-8"?>
<!-- Generator: Adobe Illustrator 19.2.1, SVG Export Plug-In . SVG Version: 6.00 Build 0)  -->
<svg version="1.1" id="Layer_1" xmlns="http://www.w3.org/2000/svg" xmlns:xlink="http://www.w3.org/1999/xlink" x="0px" y="0px"
	 viewBox="0 0 385 385" style="enable-background:new 0 0 385 385;" xml:space="preserve">
<style type="text/css">
	.st0{fill:url(#square_1_);stroke:#3B61AD;stroke-width:2;stroke-miterlimit:10;}
	.st1{display:none;fill:none;}
	.st2{fill:#2CC62C;}
	.st3{fill:#DDDDDD;}
	.st4{fill:#75DB75;}
	.st5{fill:#3080B7;}
	.st6{fill:#7AA3F4;}
	.st7{fill:#D8A344;}
	.st8{fill:#F7D079;}
	.st9{fill:none;stroke:#5A6E5C;stroke-width:0.9965;stroke-miterlimit:10;}
	.st10{fill:#19496E;}
	.st11{fill:#ECE3E4;}
</style>
<g id="admin-accountManager">
	
		<linearGradient id="square_1_" gradientUnits="userSpaceOnUse" x1="192.25" y1="334.5" x2="192.25" y2="49.4" gradientTransform="matrix(1 0 0 -1 0 385)">
		<stop  offset="0" style="stop-color:#FFFFFF"/>
		<stop  offset="1" style="stop-color:#D0D2D3"/>
	</linearGradient>
	<path id="square_12_" class="st0" d="M49.7,304.3V81.8c0-17.2,14.1-31.3,31.3-31.3h222.5c17.2,0,31.3,14.1,31.3,31.3v222.5
		c0,17.2-14.1,31.3-31.3,31.3H81C63.7,335.5,49.7,321.5,49.7,304.3z"/>
	<g>
		<path class="st1" d="M52.9,27.5v-4.1C52.9,16.6,58.4,2,65.1,2h131.7c6.9,0,12.4,14.6,12.4,21.4v4.1h125.6V11.3
			c0-17.2-14.1-31.3-31.3-31.3H81C63.8-20,49.7-5.9,49.7,11.3v16.2H52.9z"/>
		<path class="st2" d="M209.2,83.4c0-6.8-5.5-21.4-12.4-21.4H65.1c-6.8,0-12.2,14.6-12.2,21.4v4.1h-3.2v8.9h285.1v-8.9H209.2V83.4z"
			/>
		<rect x="49.7" y="96.4" class="st3" width="285.1" height="14.3"/>
		<path class="st4" d="M49.7,233.8c0,17.2,14,31.2,31.3,31.3h222.5c17.2,0,31.3-14.1,31.3-31.3V110.6H49.7V233.8z"/>
	</g>
	<g>
		<path class="st1" d="M334.8,68V51.8c0-17.2-14.1-31.3-31.3-31.3H81c-17.2,0-31.3,14.1-31.3,31.3V68h125.6v-4.1
			c0-6.8,5.5-21.4,12.4-21.4h131.7c6.7,0,12.2,14.6,12.2,21.4V68H334.8z"/>
		<path class="st5" d="M175.3,128H49.7v8.9h285.1V128h-3.2v-4.1c0-6.8-5.4-21.4-12.2-21.4H187.7c-6.9,0-12.4,14.6-12.4,21.4V128z"/>
		<rect x="49.7" y="136.9" class="st3" width="285.1" height="14.3"/>
		<path class="st6" d="M334.8,151.1H49.7v123.2c0,17.2,14.1,31.3,31.3,31.3h222.5c17.3-0.1,31.3-14.1,31.3-31.3V151.1z"/>
	</g>
	<g>
		<path class="st7" d="M209.2,165.9c0-6.8-5.5-21.4-12.4-21.4H65.1c-6.8,0-12.2,14.6-12.2,21.4v4.1h-3.2v8.9h285.1V170H209.2V165.9z
			"/>
		<path class="st8" d="M49.7,304.3c0,17.2,14,31.2,31.3,31.3h222.5c17.2,0,31.3-14.1,31.3-31.3V181.1H49.7V304.3z"/>
		<rect x="49.7" y="178.9" class="st3" width="285.1" height="14.3"/>
	</g>
</g>
<path id="square_9_" class="st9" d="M303.4,335.5H80.9c-17.2,0-31.3-14.1-31.3-31.3V81.8c0-17.2,14.1-31.3,31.3-31.3h222.5
	c17.2,0,31.3,14.1,31.3,31.3v222.5C334.7,321.5,320.6,335.5,303.4,335.5z"/>
<g id="Layer_3_1_">
	<g id="Gear_1_">
		<ellipse class="st10" cx="294.9" cy="298" rx="67.1" ry="68.1"/>
		<path class="st11" d="M327,248.2l-5.3,6.2c-2.6-1.4-5.3-3-7.9-4.3l1.4-8.2c0-0.9-0.4-1.4-1-1.9l-2.6-0.9c-0.9-0.4-1.9,0-1.9,0.9
			l-3,7.8c-3-0.9-6.2-0.9-9.2-1l-1-8.2c0-0.9-0.9-1.4-1.9-1.4H292c-0.9,0-1.4,0.9-1.4,1.4l-0.4,8.6c-3,0.4-6.2,1-8.8,1.9l-4.3-7.3
			c-0.4-0.9-1.4-1-2.3-0.9l-2.3,1c-0.9,0.4-1,1-0.9,1.9l2.6,8.2c-2.6,1.4-5.3,3-7.8,5.2l-6.5-5.8c-0.9-0.4-1.4-0.4-2.3,0l-1.9,1.4
			c-0.9,0.4-0.9,1.4,0,2.3l5.3,7.1c-1.9,2.3-3.9,4.8-5.3,7.3l-7.9-3c-0.9-0.4-1.9,0-1.9,0.9l-1,2.3c-0.4,0.9,0,1.4,0.4,2.3l7.3,4.8
			c-1,2.7-1.9,5.3-2.6,8.6l0,0h-8.8c-0.9,0-1.4,0.9-1.4,1.4l-0.4,2.7c0,0.9,0.4,1.4,1,1.9l8.3,1.9c0,1.4,0,3,0,5.2
			c0,1,0.4,2.7,0.4,4.3l0,0l-8.3,2.7c-0.9,0.4-1,1-1,1.9l0.9,2.7c0,0.9,1,1.4,1.9,1l8.3-1c0.9,2.7,1.9,5.8,3.5,8.2l-7.6,5.9
			c-0.9,0.4-0.9,1.4-0.4,2.3l1.4,2.3c0.4,0.9,1.4,1,2.3,0.9l7.8-4.3c1.9,2.3,3.9,4.8,6.2,6.6l-4.5,7.3c-0.4,0.9-0.4,1.4,0.4,2.3
			l2.3,1.4c0.9,0.4,1.4,0.4,2.3,0l5.8-6.6c2.6,1.4,5.3,3,7.9,4.3l-1.4,8.6c0,0.9,0.4,1.4,1,1.9l2.6,0.9c0.9,0.4,1.9,0,1.9-0.9l3-7.8
			c3,0.9,5.8,1,8.8,1l1,8.6c0,0.9,0.9,1.4,1.9,1.4h2.6c0.9,0,1.4-0.9,1.4-1.4l0.4-8.6c3-0.4,6.2-1,8.8-1.9l3.9,7.3
			c0.4,0.9,1.4,1,2.3,0.9l2.3-1c0.9-0.4,1-1,0.9-1.9l-2.6-7.8c2.6-1.4,5.3-3,7.8-5.2l6.2,5.3c0.9,0.4,1.4,0.4,2.3,0l1.9-1.9
			c0.9-0.4,0.9-1.4,0-2.3l-4.9-6.2c1.9-2.3,3.9-4.8,5.8-7.3l7.8,3c0.9,0.4,1.9,0,1.9-0.9l1-2.3c0.4-0.9,0-1.4-0.4-2.3l-6.9-4.3
			c1-2.7,1.9-5.8,2.6-9.1h7.9c0.9,0,1.4-0.9,1.4-1.4l0.4-2.7c0-0.9-0.4-1.4-1-1.9l-7.8-1.4c0-1.4,0-3.5,0-5.2c0-1.4-0.4-2.7-0.4-4.3
			l7.8-2.7c0.9-0.4,1-1,1-1.9l-0.9-2.7c0-0.9-1-1.4-1.9-1l-7.8,1c-0.9-3-2.3-5.8-3.9-8.6l6.2-5.2c0.9-0.4,0.9-1.4,0.4-2.3l-1.4-2.3
			c-0.4-0.9-1.4-1-2.3-0.9l-6.9,3.9c-1.9-2.3-4.3-4.8-6.2-6.6l4.3-7.1c0.4-0.9,0.4-1.4-0.4-2.3l-2.3-1.4
			C328.9,247.5,327.9,247.5,327,248.2z M293.8,254.8c5.3-0.4,10.8,0.4,15.7,1.9l-9.6,19.3c-1.4-0.4-3-0.4-4.5-0.4
			c-1.9,0-3.5,0.4-4.9,1l-11.8-18.3C283,256.6,288.3,254.8,293.8,254.8z M322.6,326.8l-11.8-18.3c2.3-2.3,3.9-5.3,4.5-9.1l21.4-1
			C335.8,309.7,330.5,319.8,322.6,326.8z M269.6,264.8l11.8,18.3c-1.9,2.3-3.5,5.3-4.3,8.6l-21.4,1
			C256.9,281.3,262,271.7,269.6,264.8z M288.7,296.1c-0.4-4.3,3-8.2,7.3-8.2c4.3-0.4,7.9,3,7.9,7.3s-3,8.2-7.3,8.2
			C292.5,303.5,288.7,300.5,288.7,296.1z M256.5,303.2l21.4-1c1,3,2.6,5.8,4.9,7.8l-9.6,19.3C265.1,323.5,258.9,314,256.5,303.2z
			 M298.7,335.9c-5.8,0.4-11.2-0.4-16.1-2.3l9.6-19.3c1.4,0.4,3.5,0.4,4.9,0.4s3-0.4,4.3-0.9l11.8,18.3
			C309.2,334.6,304,335.9,298.7,335.9z M335.8,287.9l-21.4,1c-1-3-3-6.2-5.3-8.6l9.6-19.3C327.5,267.4,333.9,276.9,335.8,287.9z"/>
	</g>
</g>
</svg>
