<?xml version="1.0" encoding="utf-8"?>
<!-- Generator: Adobe Illustrator 19.2.1, SVG Export Plug-In . SVG Version: 6.00 Build 0)  -->
<svg version="1.1" id="Layer_1" xmlns="http://www.w3.org/2000/svg" xmlns:xlink="http://www.w3.org/1999/xlink" x="0px" y="0px"
	 viewBox="0 0 385 385" style="enable-background:new 0 0 385 385;" xml:space="preserve">
<style type="text/css">
	.st0{fill:#AA0000;}
	.st1{fill:url(#SVGID_1_);}
	.st2{fill:#EC6C60;}
	.st3{fill:#E5E5E5;}
	.st4{fill:#EAE8E8;}
	.st5{font-family:'MalayalamMN';}
	.st6{font-size:192.7735px;}
	.st7{fill:#19496E;}
	.st8{fill:#ECE3E4;}
</style>
<g id="Layer_1_1_">
	<g>
		<polygon class="st0" points="56.3,317.9 187.6,69.9 319.1,317.9 		"/>
		<g>
			<path class="st0" d="M69.3,326.8c43.9-82.6,87.4-165.2,131.5-248.2c-8.2,0-17.3,0-25.5,0c43.9,82.6,87.4,165.2,131.3,248.2
				c4.3-8.7,8.2-17.2,13-25.9c-87.4,0-175.4,0-262.8,0c-19.2,0-19.2,34.5,0,34.5c87.4,0,175.4,0,262.8,0c11.3,0,19.2-14.5,13-25.9
				c-43.9-83-87.4-165.6-131.3-248.4c-6-10.9-19.7-10.9-25.5,0c-43.9,82.6-87.4,165.2-131.3,247.8C33.6,328.2,59.4,345.4,69.3,326.8
				z"/>
		</g>
	</g>
	<g>
		
			<linearGradient id="SVGID_1_" gradientUnits="userSpaceOnUse" x1="33.7932" y1="192.1703" x2="157.4486" y2="192.1703" gradientTransform="matrix(1.96 0 0 -1.96 0 570.36)">
			<stop  offset="0" style="stop-color:#FF2A3C"/>
			<stop  offset="1" style="stop-color:#AA1E23"/>
		</linearGradient>
		<polygon class="st1" points="66.2,308.2 187.6,79.2 309,308.2 		"/>
		<g>
			<path class="st2" d="M72.9,312.3c40.4-76.6,81.1-152.9,121.4-228.8c-4.3,0-8.2,0-13,0c40.4,76.6,81.1,152.9,121.4,228.8
				c2.4-4.2,4.3-8.7,6.7-13.1c-81.1,0-161.8,0-242.8,0c-9.4,0-9.4,17.2,0,17.2c81.1,0,161.8,0,242.8,0c5.5,0,9.4-7.7,6.7-13.1
				C275.7,227.6,235,151.3,194.7,74.7c-3.1-5.5-10.1-5.5-13,0c-41,76.3-81.4,152.9-121.4,229.2C55.1,312.9,68.1,321.8,72.9,312.3z"
				/>
		</g>
	</g>
	<g>
		<polygon class="st3" points="187.6,132.3 110.4,278.7 265.6,278.7 		"/>
		<g>
			<path class="st4" d="M174.6,123.6c-25.5,48.9-51.8,97.6-77.3,146.6c-6,10.9,1.9,25.9,13,25.9c51.8,0,103.5,0,155.3,0
				c11.3,0,19.2-14.5,13-25.9c-25.5-48.9-51.8-97.6-77.3-146.6c-10.1-18.6-35.7-1.4-25.5,17.2c25.5,48.9,51.6,97.6,77.3,146.6
				c4.3-8.7,8.2-17.2,13-25.9c-51.8,0-103.5,0-155.3,0c4.3,8.7,8.2,17.2,13,25.9c25.5-48.9,51.8-97.6,77.3-146.6
				C210.7,122.2,184.6,105,174.6,123.6z"/>
		</g>
	</g>
	<text transform="matrix(1.0866 0 0 1 158.0713 281.3301)" class="st5 st6">!</text>
</g>
<g id="Layer_3_1_">
	<g id="Gear_1_">
		<ellipse class="st7" cx="294.9" cy="298" rx="67.1" ry="68.1"/>
		<path class="st8" d="M327,248.2l-5.3,6.2c-2.6-1.4-5.3-3-7.9-4.3l1.4-8.2c0-0.9-0.4-1.4-1-1.9l-2.6-0.9c-0.9-0.4-1.9,0-1.9,0.9
			l-3,7.8c-3-0.9-6.2-0.9-9.2-1l-1-8.2c0-0.9-0.9-1.4-1.9-1.4H292c-0.9,0-1.4,0.9-1.4,1.4l-0.4,8.6c-3,0.4-6.2,1-8.8,1.9l-4.3-7.3
			c-0.4-0.9-1.4-1-2.3-0.9l-2.3,1c-0.9,0.4-1,1-0.9,1.9l2.6,8.2c-2.6,1.4-5.3,3-7.8,5.2l-6.5-5.8c-0.9-0.4-1.4-0.4-2.3,0l-1.9,1.4
			c-0.9,0.4-0.9,1.4,0,2.3l5.3,7.1c-1.9,2.3-3.9,4.8-5.3,7.3l-7.9-3c-0.9-0.4-1.9,0-1.9,0.9l-1,2.3c-0.4,0.9,0,1.4,0.4,2.3l7.3,4.8
			c-1,2.7-1.9,5.3-2.6,8.6l0,0h-8.8c-0.9,0-1.4,0.9-1.4,1.4l-0.4,2.7c0,0.9,0.4,1.4,1,1.9l8.3,1.9c0,1.4,0,3,0,5.2
			c0,1,0.4,2.7,0.4,4.3l0,0l-8.3,2.7c-0.9,0.4-1,1-1,1.9l0.9,2.7c0,0.9,1,1.4,1.9,1l8.3-1c0.9,2.7,1.9,5.8,3.5,8.2l-7.6,5.9
			c-0.9,0.4-0.9,1.4-0.4,2.3l1.4,2.3c0.4,0.9,1.4,1,2.3,0.9l7.8-4.3c1.9,2.3,3.9,4.8,6.2,6.6l-4.5,7.3c-0.4,0.9-0.4,1.4,0.4,2.3
			l2.3,1.4c0.9,0.4,1.4,0.4,2.3,0l5.8-6.6c2.6,1.4,5.3,3,7.9,4.3l-1.4,8.6c0,0.9,0.4,1.4,1,1.9l2.6,0.9c0.9,0.4,1.9,0,1.9-0.9l3-7.8
			c3,0.9,5.8,1,8.8,1l1,8.6c0,0.9,0.9,1.4,1.9,1.4h2.6c0.9,0,1.4-0.9,1.4-1.4l0.4-8.6c3-0.4,6.2-1,8.8-1.9l3.9,7.3
			c0.4,0.9,1.4,1,2.3,0.9l2.3-1c0.9-0.4,1-1,0.9-1.9l-2.6-7.8c2.6-1.4,5.3-3,7.8-5.2l6.2,5.3c0.9,0.4,1.4,0.4,2.3,0l1.9-1.9
			c0.9-0.4,0.9-1.4,0-2.3l-4.9-6.2c1.9-2.3,3.9-4.8,5.8-7.3l7.8,3c0.9,0.4,1.9,0,1.9-0.9l1-2.3c0.4-0.9,0-1.4-0.4-2.3l-6.9-4.3
			c1-2.7,1.9-5.8,2.6-9.1h7.9c0.9,0,1.4-0.9,1.4-1.4l0.4-2.7c0-0.9-0.4-1.4-1-1.9l-7.8-1.4c0-1.4,0-3.5,0-5.2c0-1.4-0.4-2.7-0.4-4.3
			l7.8-2.7c0.9-0.4,1-1,1-1.9l-0.9-2.7c0-0.9-1-1.4-1.9-1l-7.8,1c-0.9-3-2.3-5.8-3.9-8.6l6.2-5.2c0.9-0.4,0.9-1.4,0.4-2.3l-1.4-2.3
			c-0.4-0.9-1.4-1-2.3-0.9l-6.9,3.9c-1.9-2.3-4.3-4.8-6.2-6.6l4.3-7.1c0.4-0.9,0.4-1.4-0.4-2.3l-2.3-1.4
			C328.9,247.5,327.9,247.5,327,248.2z M293.8,254.8c5.3-0.4,10.8,0.4,15.7,1.9l-9.6,19.3c-1.4-0.4-3-0.4-4.5-0.4
			c-1.9,0-3.5,0.4-4.9,1l-11.8-18.3C283,256.6,288.3,254.8,293.8,254.8z M322.6,326.8l-11.8-18.3c2.3-2.3,3.9-5.3,4.5-9.1l21.4-1
			C335.8,309.7,330.5,319.8,322.6,326.8z M269.6,264.8l11.8,18.3c-1.9,2.3-3.5,5.3-4.3,8.6l-21.4,1
			C256.9,281.3,262,271.7,269.6,264.8z M288.7,296.1c-0.4-4.3,3-8.2,7.3-8.2c4.3-0.4,7.9,3,7.9,7.3s-3,8.2-7.3,8.2
			C292.5,303.5,288.7,300.5,288.7,296.1z M256.5,303.2l21.4-1c1,3,2.6,5.8,4.9,7.8l-9.6,19.3C265.1,323.5,258.9,314,256.5,303.2z
			 M298.7,335.9c-5.8,0.4-11.2-0.4-16.1-2.3l9.6-19.3c1.4,0.4,3.5,0.4,4.9,0.4s3-0.4,4.3-0.9l11.8,18.3
			C309.2,334.6,304,335.9,298.7,335.9z M335.8,287.9l-21.4,1c-1-3-3-6.2-5.3-8.6l9.6-19.3C327.5,267.4,333.9,276.9,335.8,287.9z"/>
	</g>
</g>
</svg>
