<?xml version="1.0" encoding="utf-8"?>
<!-- Generator: Adobe Illustrator 19.2.1, SVG Export Plug-In . SVG Version: 6.00 Build 0)  -->
<svg version="1.1" id="Layer_1" xmlns="http://www.w3.org/2000/svg" xmlns:xlink="http://www.w3.org/1999/xlink" x="0px" y="0px"
	 viewBox="0 0 385 385" style="enable-background:new 0 0 385 385;" xml:space="preserve">
<style type="text/css">
	.st0{fill:url(#square_2_);}
	.st1{fill:#46484A;}
	.st2{fill:none;}
	.st3{fill:url(#SVGID_1_);}
	.st4{fill:url(#SVGID_2_);}
	.st5{fill:url(#SVGID_3_);}
	.st6{fill:url(#SVGID_4_);}
	.st7{fill:url(#SVGID_5_);}
	.st8{fill:url(#SVGID_6_);}
	.st9{fill:url(#SVGID_7_);}
	.st10{fill:url(#SVGID_8_);}
	.st11{fill:url(#SVGID_9_);}
	.st12{fill:url(#SVGID_10_);}
	.st13{fill:url(#SVGID_11_);}
	.st14{fill:#FFFFFF;}
	.st15{font-family:'ArialMT';}
	.st16{font-size:48px;}
	.st17{fill:none;stroke:#5A6E5C;stroke-width:2;stroke-miterlimit:10;}
	.st18{fill:#19496E;}
	.st19{fill:#ECE3E4;}
</style>
<linearGradient id="square_2_" gradientUnits="userSpaceOnUse" x1="195.25" y1="50.5" x2="195.25" y2="335.6">
	<stop  offset="0" style="stop-color:#FFFFFF"/>
	<stop  offset="1" style="stop-color:#FFF8E8"/>
</linearGradient>
<path id="square_16_" class="st0" d="M337.8,304.3c0,17.2-14.1,31.3-31.3,31.3H84c-17.3-0.1-31.3-14.1-31.3-31.3V81.8
	c0-17.2,14.1-31.3,31.3-31.3h222.5c17.2,0,31.3,14.1,31.3,31.3"/>
<path class="st1" d="M-266.3,164.1"/>
<g>
	<path class="st2" d="M80.9,50.5h115.6c-0.1,0.6-0.2,1.2-0.2,1.8v10H69.8c-6.6,0-12,5.4-12,12v250.9c-5.1-5.5-8.2-12.9-8.2-21V81.8
		C49.6,64.6,63.7,50.5,80.9,50.5z"/>
	
		<linearGradient id="SVGID_1_" gradientUnits="userSpaceOnUse" x1="148.5" y1="198.9313" x2="326.5" y2="198.9313" gradientTransform="matrix(-1 0 0 1 384.3 0)">
		<stop  offset="0" style="stop-color:#026580"/>
		<stop  offset="1" style="stop-color:#038193"/>
	</linearGradient>
	<path class="st3" d="M69.8,62.4h126.5v32.8H141c-6.6,0-12,5.4-12,12v228.3H80.9c-9.1,0-17.4-3.9-23.1-10.2V74.4
		C57.8,67.8,63.2,62.4,69.8,62.4z"/>
	
		<linearGradient id="SVGID_2_" gradientUnits="userSpaceOnUse" x1="148.5" y1="215.3491" x2="326.5" y2="215.3491" gradientTransform="matrix(-1 0 0 1 384.3 0)">
		<stop  offset="0" style="stop-color:#026580"/>
		<stop  offset="1" style="stop-color:#038193"/>
	</linearGradient>
	<path class="st4" d="M141,95.2h55.2v240.3H129V107.2C129,100.6,134.5,95.2,141,95.2z"/>
	
		<linearGradient id="SVGID_3_" gradientUnits="userSpaceOnUse" x1="77.25" y1="215.3491" x2="255.25" y2="215.3491" gradientTransform="matrix(-1 0 0 1 384.3 0)">
		<stop  offset="0" style="stop-color:#346B37"/>
		<stop  offset="0.1989" style="stop-color:#387139"/>
		<stop  offset="0.4563" style="stop-color:#42813D"/>
		<stop  offset="0.7446" style="stop-color:#529B45"/>
		<stop  offset="1" style="stop-color:#65B94D"/>
	</linearGradient>
	<path class="st5" d="M141,95.2h55.2v240.3H129V107.2C129,100.6,134.5,95.2,141,95.2z"/>
	
		<linearGradient id="SVGID_4_" gradientUnits="userSpaceOnUse" x1="10" y1="192.889" x2="188" y2="192.889" gradientTransform="matrix(-1 0 0 1 384.3 0)">
		<stop  offset="0" style="stop-color:#D5C015"/>
		<stop  offset="0.2791" style="stop-color:#D5BB1B"/>
		<stop  offset="0.6396" style="stop-color:#D6AD2B"/>
		<stop  offset="1" style="stop-color:#D79842"/>
	</linearGradient>
	<path class="st6" d="M295,95.2h-59.2V74.4c0-6.6-5.4-12-12-12h-27.5v-10c0-0.6,0.1-1.2,0.2-1.8h106.9c17.2,0,31.3,14.1,31.3,31.3
		v222.4c0,16-12.2,29.3-27.7,31.1V107.2C307,100.6,301.6,95.2,295,95.2z"/>
	
		<linearGradient id="SVGID_5_" gradientUnits="userSpaceOnUse" x1="148.5" y1="78.7804" x2="326.5" y2="78.7804" gradientTransform="matrix(-1 0 0 1 384.3 0)">
		<stop  offset="0" style="stop-color:#026580"/>
		<stop  offset="1" style="stop-color:#038193"/>
	</linearGradient>
	<path class="st7" d="M235.8,74.4v20.8h-39.5V62.4h27.5C230.4,62.4,235.8,67.8,235.8,74.4z"/>
	
		<linearGradient id="SVGID_6_" gradientUnits="userSpaceOnUse" x1="10" y1="78.7804" x2="188" y2="78.7804" gradientTransform="matrix(-1 0 0 1 384.3 0)">
		<stop  offset="0" style="stop-color:#D5C015"/>
		<stop  offset="0.2791" style="stop-color:#D5BB1B"/>
		<stop  offset="0.6396" style="stop-color:#D6AD2B"/>
		<stop  offset="1" style="stop-color:#D79842"/>
	</linearGradient>
	<path class="st8" d="M235.8,74.4v20.8h-39.5V62.4h27.5C230.4,62.4,235.8,67.8,235.8,74.4z"/>
	
		<linearGradient id="SVGID_7_" gradientUnits="userSpaceOnUse" x1="77.25" y1="215.3491" x2="255.25" y2="215.3491" gradientTransform="matrix(-1 0 0 1 384.3 0)">
		<stop  offset="0" style="stop-color:#346B37"/>
		<stop  offset="0.1989" style="stop-color:#387139"/>
		<stop  offset="0.4563" style="stop-color:#42813D"/>
		<stop  offset="0.7446" style="stop-color:#529B45"/>
		<stop  offset="1" style="stop-color:#65B94D"/>
	</linearGradient>
	<path class="st9" d="M295,95.2c6.6,0,12,5.4,12,12v228.1c-1.2,0.1-2.4,0.2-3.7,0.2h-67.6V95.2H295z"/>
	
		<linearGradient id="SVGID_8_" gradientUnits="userSpaceOnUse" x1="10" y1="215.3491" x2="188" y2="215.3491" gradientTransform="matrix(-1 0 0 1 384.3 0)">
		<stop  offset="0" style="stop-color:#D5C015"/>
		<stop  offset="0.2791" style="stop-color:#D5BB1B"/>
		<stop  offset="0.6396" style="stop-color:#D6AD2B"/>
		<stop  offset="1" style="stop-color:#D79842"/>
	</linearGradient>
	<path class="st10" d="M295,95.2c6.6,0,12,5.4,12,12v228.1c-1.2,0.1-2.4,0.2-3.7,0.2h-67.6V95.2H295z"/>
	
		<linearGradient id="SVGID_9_" gradientUnits="userSpaceOnUse" x1="148.5" y1="215.3491" x2="326.5" y2="215.3491" gradientTransform="matrix(-1 0 0 1 384.3 0)">
		<stop  offset="0" style="stop-color:#026580"/>
		<stop  offset="1" style="stop-color:#038193"/>
	</linearGradient>
	<rect x="196.3" y="95.2" class="st11" width="39.5" height="240.3"/>
	
		<linearGradient id="SVGID_10_" gradientUnits="userSpaceOnUse" x1="77.25" y1="215.3491" x2="255.25" y2="215.3491" gradientTransform="matrix(-1 0 0 1 384.3 0)">
		<stop  offset="0" style="stop-color:#346B37"/>
		<stop  offset="0.1989" style="stop-color:#387139"/>
		<stop  offset="0.4563" style="stop-color:#42813D"/>
		<stop  offset="0.7446" style="stop-color:#529B45"/>
		<stop  offset="1" style="stop-color:#65B94D"/>
	</linearGradient>
	<rect x="196.3" y="95.2" class="st12" width="39.5" height="240.3"/>
	
		<linearGradient id="SVGID_11_" gradientUnits="userSpaceOnUse" x1="10" y1="215.3491" x2="188" y2="215.3491" gradientTransform="matrix(-1 0 0 1 384.3 0)">
		<stop  offset="0" style="stop-color:#D5C015"/>
		<stop  offset="0.2791" style="stop-color:#D5BB1B"/>
		<stop  offset="0.6396" style="stop-color:#D6AD2B"/>
		<stop  offset="1" style="stop-color:#D79842"/>
	</linearGradient>
	<rect x="196.3" y="95.2" class="st13" width="39.5" height="240.3"/>
</g>
<text transform="matrix(2.244830e-10 1 -1 2.244830e-10 70.7402 87.7802)" class="st14 st15 st16">Guide 1</text>
<text transform="matrix(2.244830e-10 1 -1 2.244830e-10 144.0508 144.9625)" class="st14 st15 st16">Guide 2</text>
<text transform="matrix(2.244830e-10 1 -1 2.244830e-10 216.0508 72.4757)" class="st14 st15 st16">Guide 3</text>
<path id="square_1_" class="st17" d="M303.4,335.5H80.9c-17.2,0-31.3-14.1-31.3-31.3V81.8c0-17.2,14.1-31.3,31.3-31.3h222.5
	c17.2,0,31.3,14.1,31.3,31.3v222.5C334.7,321.5,320.6,335.5,303.4,335.5z"/>
<g id="Layer_3_1_">
	<g id="Gear_1_">
		<ellipse class="st18" cx="294.9" cy="298" rx="67.1" ry="68.1"/>
		<path class="st19" d="M327,248.2l-5.3,6.2c-2.6-1.4-5.3-3-7.9-4.3l1.4-8.2c0-0.9-0.4-1.4-1-1.9l-2.6-0.9c-0.9-0.4-1.9,0-1.9,0.9
			l-3,7.8c-3-0.9-6.2-0.9-9.2-1l-1-8.2c0-0.9-0.9-1.4-1.9-1.4H292c-0.9,0-1.4,0.9-1.4,1.4l-0.4,8.6c-3,0.4-6.2,1-8.8,1.9l-4.3-7.3
			c-0.4-0.9-1.4-1-2.3-0.9l-2.3,1c-0.9,0.4-1,1-0.9,1.9l2.6,8.2c-2.6,1.4-5.3,3-7.8,5.2l-6.5-5.8c-0.9-0.4-1.4-0.4-2.3,0l-1.9,1.4
			c-0.9,0.4-0.9,1.4,0,2.3l5.3,7.1c-1.9,2.3-3.9,4.8-5.3,7.3l-7.9-3c-0.9-0.4-1.9,0-1.9,0.9l-1,2.3c-0.4,0.9,0,1.4,0.4,2.3l7.3,4.8
			c-1,2.7-1.9,5.3-2.6,8.6l0,0h-8.8c-0.9,0-1.4,0.9-1.4,1.4l-0.4,2.7c0,0.9,0.4,1.4,1,1.9l8.3,1.9c0,1.4,0,3,0,5.2
			c0,1,0.4,2.7,0.4,4.3l0,0l-8.3,2.7c-0.9,0.4-1,1-1,1.9l0.9,2.7c0,0.9,1,1.4,1.9,1l8.3-1c0.9,2.7,1.9,5.8,3.5,8.2l-7.6,5.9
			c-0.9,0.4-0.9,1.4-0.4,2.3l1.4,2.3c0.4,0.9,1.4,1,2.3,0.9l7.8-4.3c1.9,2.3,3.9,4.8,6.2,6.6l-4.5,7.3c-0.4,0.9-0.4,1.4,0.4,2.3
			l2.3,1.4c0.9,0.4,1.4,0.4,2.3,0l5.8-6.6c2.6,1.4,5.3,3,7.9,4.3l-1.4,8.6c0,0.9,0.4,1.4,1,1.9l2.6,0.9c0.9,0.4,1.9,0,1.9-0.9l3-7.8
			c3,0.9,5.8,1,8.8,1l1,8.6c0,0.9,0.9,1.4,1.9,1.4h2.6c0.9,0,1.4-0.9,1.4-1.4l0.4-8.6c3-0.4,6.2-1,8.8-1.9l3.9,7.3
			c0.4,0.9,1.4,1,2.3,0.9l2.3-1c0.9-0.4,1-1,0.9-1.9l-2.6-7.8c2.6-1.4,5.3-3,7.8-5.2l6.2,5.3c0.9,0.4,1.4,0.4,2.3,0l1.9-1.9
			c0.9-0.4,0.9-1.4,0-2.3l-4.9-6.2c1.9-2.3,3.9-4.8,5.8-7.3l7.8,3c0.9,0.4,1.9,0,1.9-0.9l1-2.3c0.4-0.9,0-1.4-0.4-2.3l-6.9-4.3
			c1-2.7,1.9-5.8,2.6-9.1h7.9c0.9,0,1.4-0.9,1.4-1.4l0.4-2.7c0-0.9-0.4-1.4-1-1.9l-7.8-1.4c0-1.4,0-3.5,0-5.2c0-1.4-0.4-2.7-0.4-4.3
			l7.8-2.7c0.9-0.4,1-1,1-1.9l-0.9-2.7c0-0.9-1-1.4-1.9-1l-7.8,1c-0.9-3-2.3-5.8-3.9-8.6l6.2-5.2c0.9-0.4,0.9-1.4,0.4-2.3l-1.4-2.3
			c-0.4-0.9-1.4-1-2.3-0.9l-6.9,3.9c-1.9-2.3-4.3-4.8-6.2-6.6l4.3-7.1c0.4-0.9,0.4-1.4-0.4-2.3l-2.3-1.4
			C328.9,247.5,327.9,247.5,327,248.2z M293.8,254.8c5.3-0.4,10.8,0.4,15.7,1.9l-9.6,19.3c-1.4-0.4-3-0.4-4.5-0.4
			c-1.9,0-3.5,0.4-4.9,1l-11.8-18.3C283,256.6,288.3,254.8,293.8,254.8z M322.6,326.8l-11.8-18.3c2.3-2.3,3.9-5.3,4.5-9.1l21.4-1
			C335.8,309.7,330.5,319.8,322.6,326.8z M269.6,264.8l11.8,18.3c-1.9,2.3-3.5,5.3-4.3,8.6l-21.4,1
			C256.9,281.3,262,271.7,269.6,264.8z M288.7,296.1c-0.4-4.3,3-8.2,7.3-8.2c4.3-0.4,7.9,3,7.9,7.3s-3,8.2-7.3,8.2
			C292.5,303.5,288.7,300.5,288.7,296.1z M256.5,303.2l21.4-1c1,3,2.6,5.8,4.9,7.8l-9.6,19.3C265.1,323.5,258.9,314,256.5,303.2z
			 M298.7,335.9c-5.8,0.4-11.2-0.4-16.1-2.3l9.6-19.3c1.4,0.4,3.5,0.4,4.9,0.4s3-0.4,4.3-0.9l11.8,18.3
			C309.2,334.6,304,335.9,298.7,335.9z M335.8,287.9l-21.4,1c-1-3-3-6.2-5.3-8.6l9.6-19.3C327.5,267.4,333.9,276.9,335.8,287.9z"/>
	</g>
</g>
</svg>
