<?xml version="1.0" encoding="utf-8"?>
<!-- Generator: Adobe Illustrator 19.2.1, SVG Export Plug-In . SVG Version: 6.00 Build 0)  -->
<svg version="1.1" id="Layer_1" xmlns="http://www.w3.org/2000/svg" xmlns:xlink="http://www.w3.org/1999/xlink" x="0px" y="0px"
	 viewBox="0 0 385 385" style="enable-background:new 0 0 385 385;" xml:space="preserve">
<style type="text/css">
	.st0{fill:#231F20;}
	.st1{fill:#3367B2;stroke:#FFFFFF;stroke-width:7.5211;stroke-miterlimit:10;}
	.st2{fill:#FFFFFF;stroke:#231F20;stroke-width:1.1289;stroke-miterlimit:10;}
	.st3{fill:#19496E;}
	.st4{fill:#ECE3E4;}
</style>
<g id="Layer_2_1_">
</g>
<g id="Layer_1_copy">
	<circle class="st0" cx="192.1" cy="192.8" r="160.2"/>
	<ellipse class="st1" cx="192.1" cy="192.8" rx="148.5" ry="148.5"/>
	<g id="Layer_3_copy">
	</g>
	<g>
		<g>
			<path class="st2" d="M179.9,242.8c0-3.6,0-7.1,0-10.9c0-8.1,0.9-14.9,1.9-20.3c1.9-5.5,3.6-10.9,5.5-13.9
				c1.9-4.5,4.5-8.1,7.1-10.9c2.6-2.6,4.5-6.4,7.1-10c1.9-3.6,3.6-8.1,5.5-12.2c1.9-4.5,1.9-10,1.9-16.7c0-5.5-0.9-10-1.9-13.2
				c-0.9-3.6-2.6-7.1-5.5-10c-1.9-2.6-4.5-4.5-7.1-5.5c-3.6-0.9-6.4-1.9-10-1.9c-2.6,0-5.5,0-8.1,0.9s-4.5,1.9-6.4,2.6
				c-1.9,0.9-3.6,2.6-4.5,4.5c-0.9,1.9-1.9,3.6-1.9,5.5s0.9,3.6,1.9,5.5s1.9,2.6,2.6,4.5c0.9,1.9,1.9,2.6,2.6,4.5
				c0.9,1.9,1.9,3.6,1.9,5.5c0,2.6-0.9,4.5-1.9,6.4c-0.9,1.9-2.6,3.6-4.5,4.5c-1.9,1.9-3.6,2.6-6.4,3.6c-2.6,0.9-4.5,0.9-7.1,0.9
				c-3.6,0-6.4-0.9-9-1.9c-2.6-0.9-5.5-2.6-7.1-4.5c-1.9-1.9-3.6-4.5-4.5-7.1s-1.9-5.5-1.9-9c0-8.1,1.9-13.9,5.5-19.4
				c3.6-5.5,8.1-10,13.9-13.2c5.5-3.6,12.2-6.4,18.4-7.1c7.1-1.9,13.9-2.6,20.3-2.6c9,0,16.7,0.9,24.8,3.6c8.1,1.9,13.9,5.5,19.4,9
				s10,9,13.2,13.9c3.6,5.5,4.5,11.3,4.5,18.4c0,4.5-0.9,9-2.6,13.2c-0.4,3.6-2.3,7.1-4.9,10.9c-2.6,3.6-5.5,6.4-9,9
				c-3.6,2.6-6.4,6.4-10,9c-3.6,2.6-7.1,6.4-10,9c-3.6,3.6-6.4,7.1-9,10.9c-2.6,3.6-4.5,8.1-6.4,12.2c-1.9,4.5-2.6,10-2.6,15.8
				c0,0.9,0,1.9,0,3.6c0,0.9,0,1.9,0,3.6h-15.8v-0.8C179.7,242.8,179.9,242.8,179.9,242.8z M168.2,271.2c0-2.6,0.9-5.5,1.9-7.1
				c0.9-2.6,2.6-4.5,4.5-6.4c1.9-1.9,4.5-2.6,6.4-4.5c2.6-0.9,5.5-1.9,8.1-1.9s5.5,0.9,8.1,1.9s4.5,2.6,6.4,4.5s3.6,3.6,4.5,6.4
				c0.9,2.8,1.9,4.5,1.9,7.1c0,2.6-0.9,5.5-1.9,7.1c-0.9,2.6-2.6,4.5-4.5,6.4s-4.5,2.6-6.4,3.6c-2.6,0.9-5.5,1.9-8.1,1.9
				s-5.5-0.9-8.1-1.9c-2.6-0.9-4.5-2.6-6.4-3.6c-1.9-1.9-3.6-3.6-4.5-6.4C169.2,275.7,168.2,274,168.2,271.2z"/>
		</g>
	</g>
</g>
<g id="Layer_3_1_">
	<g id="Gear_1_">
		<ellipse class="st3" cx="294.9" cy="298" rx="67.1" ry="68.1"/>
		<path class="st4" d="M327,248.2l-5.3,6.2c-2.6-1.4-5.3-3-7.9-4.3l1.4-8.2c0-0.9-0.4-1.4-1-1.9l-2.6-0.9c-0.9-0.4-1.9,0-1.9,0.9
			l-3,7.8c-3-0.9-6.2-0.9-9.2-1l-1-8.2c0-0.9-0.9-1.4-1.9-1.4H292c-0.9,0-1.4,0.9-1.4,1.4l-0.4,8.6c-3,0.4-6.2,1-8.8,1.9l-4.3-7.3
			c-0.4-0.9-1.4-1-2.3-0.9l-2.3,1c-0.9,0.4-1,1-0.9,1.9l2.6,8.2c-2.6,1.4-5.3,3-7.8,5.2l-6.5-5.8c-0.9-0.4-1.4-0.4-2.3,0l-1.9,1.4
			c-0.9,0.4-0.9,1.4,0,2.3l5.3,7.1c-1.9,2.3-3.9,4.8-5.3,7.3l-7.9-3c-0.9-0.4-1.9,0-1.9,0.9l-1,2.3c-0.4,0.9,0,1.4,0.4,2.3l7.3,4.8
			c-1,2.7-1.9,5.3-2.6,8.6l0,0h-8.8c-0.9,0-1.4,0.9-1.4,1.4l-0.4,2.7c0,0.9,0.4,1.4,1,1.9l8.3,1.9c0,1.4,0,3,0,5.2
			c0,1,0.4,2.7,0.4,4.3l0,0l-8.3,2.7c-0.9,0.4-1,1-1,1.9l0.9,2.7c0,0.9,1,1.4,1.9,1l8.3-1c0.9,2.7,1.9,5.8,3.5,8.2l-7.6,5.9
			c-0.9,0.4-0.9,1.4-0.4,2.3l1.4,2.3c0.4,0.9,1.4,1,2.3,0.9l7.8-4.3c1.9,2.3,3.9,4.8,6.2,6.6l-4.5,7.3c-0.4,0.9-0.4,1.4,0.4,2.3
			l2.3,1.4c0.9,0.4,1.4,0.4,2.3,0l5.8-6.6c2.6,1.4,5.3,3,7.9,4.3l-1.4,8.6c0,0.9,0.4,1.4,1,1.9l2.6,0.9c0.9,0.4,1.9,0,1.9-0.9l3-7.8
			c3,0.9,5.8,1,8.8,1l1,8.6c0,0.9,0.9,1.4,1.9,1.4h2.6c0.9,0,1.4-0.9,1.4-1.4l0.4-8.6c3-0.4,6.2-1,8.8-1.9l3.9,7.3
			c0.4,0.9,1.4,1,2.3,0.9l2.3-1c0.9-0.4,1-1,0.9-1.9l-2.6-7.8c2.6-1.4,5.3-3,7.8-5.2l6.2,5.3c0.9,0.4,1.4,0.4,2.3,0l1.9-1.9
			c0.9-0.4,0.9-1.4,0-2.3l-4.9-6.2c1.9-2.3,3.9-4.8,5.8-7.3l7.8,3c0.9,0.4,1.9,0,1.9-0.9l1-2.3c0.4-0.9,0-1.4-0.4-2.3l-6.9-4.3
			c1-2.7,1.9-5.8,2.6-9.1h7.9c0.9,0,1.4-0.9,1.4-1.4l0.4-2.7c0-0.9-0.4-1.4-1-1.9l-7.8-1.4c0-1.4,0-3.5,0-5.2c0-1.4-0.4-2.7-0.4-4.3
			l7.8-2.7c0.9-0.4,1-1,1-1.9l-0.9-2.7c0-0.9-1-1.4-1.9-1l-7.8,1c-0.9-3-2.3-5.8-3.9-8.6l6.2-5.2c0.9-0.4,0.9-1.4,0.4-2.3l-1.4-2.3
			c-0.4-0.9-1.4-1-2.3-0.9l-6.9,3.9c-1.9-2.3-4.3-4.8-6.2-6.6l4.3-7.1c0.4-0.9,0.4-1.4-0.4-2.3l-2.3-1.4
			C328.9,247.5,327.9,247.5,327,248.2z M293.8,254.8c5.3-0.4,10.8,0.4,15.7,1.9l-9.6,19.3c-1.4-0.4-3-0.4-4.5-0.4
			c-1.9,0-3.5,0.4-4.9,1l-11.8-18.3C283,256.6,288.3,254.8,293.8,254.8z M322.6,326.8l-11.8-18.3c2.3-2.3,3.9-5.3,4.5-9.1l21.4-1
			C335.8,309.7,330.5,319.8,322.6,326.8z M269.6,264.8l11.8,18.3c-1.9,2.3-3.5,5.3-4.3,8.6l-21.4,1
			C256.9,281.3,262,271.7,269.6,264.8z M288.7,296.1c-0.4-4.3,3-8.2,7.3-8.2c4.3-0.4,7.9,3,7.9,7.3s-3,8.2-7.3,8.2
			C292.5,303.5,288.7,300.5,288.7,296.1z M256.5,303.2l21.4-1c1,3,2.6,5.8,4.9,7.8l-9.6,19.3C265.1,323.5,258.9,314,256.5,303.2z
			 M298.7,335.9c-5.8,0.4-11.2-0.4-16.1-2.3l9.6-19.3c1.4,0.4,3.5,0.4,4.9,0.4s3-0.4,4.3-0.9l11.8,18.3
			C309.2,334.6,304,335.9,298.7,335.9z M335.8,287.9l-21.4,1c-1-3-3-6.2-5.3-8.6l9.6-19.3C327.5,267.4,333.9,276.9,335.8,287.9z"/>
	</g>
</g>
</svg>
