<?xml version="1.0" encoding="utf-8"?>
<!-- Generator: Adobe Illustrator 19.2.1, SVG Export Plug-In . SVG Version: 6.00 Build 0)  -->
<svg version="1.1" id="Layer_1" xmlns="http://www.w3.org/2000/svg" xmlns:xlink="http://www.w3.org/1999/xlink" x="0px" y="0px"
	 viewBox="0 0 385 385" style="enable-background:new 0 0 385 385;" xml:space="preserve">
<style type="text/css">
	.st0{fill:none;stroke:#5A6E5C;stroke-width:0.9965;stroke-miterlimit:10;}
	.st1{fill:none;}
	.st2{fill:#D8A344;}
	.st3{fill:#DDDDDD;}
	.st4{fill:#F7D079;}
	.st5{opacity:0.25;fill:#016064;enable-background:new    ;}
	.st6{fill:none;stroke:#5A6E5C;stroke-width:2;stroke-miterlimit:10;}
	.st7{fill:#19496E;}
	.st8{fill:#ECE3E4;}
</style>
<g id="Layer_1_1_">
	<path id="square" class="st0" d="M303.4,335.5H80.9c-17.2,0-31.3-14.1-31.3-31.3V81.8c0-17.2,14.1-31.3,31.3-31.3h222.5
		c17.2,0,31.3,14.1,31.3,31.3v222.5C334.7,321.5,320.6,335.5,303.4,335.5z"/>
</g>
<g id="Layer_13">
	<g>
		<path class="st1" d="M52.9,98v-4.1c0-6.8,5.5-21.4,12.2-21.4h131.7c6.9,0,12.4,14.6,12.4,21.4V98h125.6V81.8
			c0-17.2-14.1-31.3-31.3-31.3H81c-17.2,0-31.3,14.1-31.3,31.3V98H52.9z"/>
		<path class="st2" d="M209.2,93.9c0-6.8-5.5-21.4-12.4-21.4H65.1c-6.8,0-12.2,14.6-12.2,21.4V98h-3.2v8.9h285.1V98H209.2V93.9z"/>
		<rect x="49.7" y="106.9" class="st3" width="285.1" height="14.3"/>
		<path class="st4" d="M49.7,304.3c0,17.2,14,31.2,31.3,31.3h222.5c17.2,0,31.3-14.1,31.3-31.3V121.1H49.7V304.3z M124.8,263.5
			c7.5-9.6,22.7-18.4,34.5-21.6c4.6-1.5,10.4-2.9,15-6.1c-1.4-1.7-1.4-3.2-1.4-3.2l13.5-5.4c0,0,1.4,0,1.4,1.5v-10.5
			c-3.2-2.9-6.3-5.8-7.8-9c-7.8-10.5-7.8-36-7.8-36s1.4-35.8,37.7-35.8c29.9,0,33.1,38.2,33.1,38.2s6.3,23-1.4,33.5
			c-1.7,2.9-4.6,5.8-7.8,9v10.5c1.4-1.5,1.4-1.5,1.4-1.5l13.5,7.9c0,0-1.4,1.7-1.4,3.2c4.6,2.9,10.4,4.7,15,6.1
			c11.8,3.2,26.8,12.5,34.5,21.6c4.3,6.4,3.7,29,3.7,29s-4.3,7.3-10.4,11.9c-6.3,3.2-18.1,7.9-18.1,7.9s-15,11.9-61.7,11.9
			c-45.1,0-61.7-14.4-61.7-14.4s-12.1-3.2-18.1-7.9c-5.8-4.1-10.4-11.9-10.4-11.9S120.2,269.6,124.8,263.5z"/>
		<path class="st4" d="M130.6,304.3c6,4.7,18.1,7.9,18.1,7.9s16.7,14.4,61.7,14.4c46.8,0,61.7-11.9,61.7-11.9s11.8-4.7,18.1-7.9
			c6-4.7,10.4-11.9,10.4-11.9s0.6-22.6-3.7-29c-7.8-9-22.7-18.4-34.5-21.6c-4.6-1.5-10.4-3.2-15-6.1c0-1.5,1.4-3.2,1.4-3.2
			l-13.5-7.9c0,0,0,0-1.4,1.5V218c3.2-3.2,6-6.1,7.8-9c7.8-10.5,1.4-33.5,1.4-33.5s-3.2-38.2-33.1-38.2c-36.3,0-37.7,35.8-37.7,35.8
			s0,25.5,7.8,36c1.4,3.2,4.6,6.1,7.8,9v10.5c0-1.5-1.4-1.5-1.4-1.5l-13.5,5.4c0,0,0,1.5,1.4,3.2c-4.6,3.2-10.4,4.7-15,6.1
			c-11.8,3.2-27.1,11.9-34.5,21.6c-4.6,6.1-4.6,28.8-4.6,28.8S124.8,300.2,130.6,304.3z"/>
		<path class="st5" d="M117.6,302.3c6,4.7,18.1,7.9,18.1,7.9s16.7,14.4,61.7,14.4c46.8,0,61.7-11.9,61.7-11.9s11.8-4.7,18.1-7.9
			c6-4.7,10.4-11.9,10.4-11.9s0.6-22.6-3.7-29c-7.8-9-22.7-18.4-34.5-21.6c-4.6-1.5-10.4-3.2-15-6.1c0-1.5,1.4-3.2,1.4-3.2
			l-13.5-7.9c0,0,0,0-1.4,1.5V216c3.2-3.2,6-6.1,7.8-9c7.8-10.5,1.4-33.5,1.4-33.5s-3.2-38.2-33.1-38.2c-36.3,0-37.7,35.8-37.7,35.8
			s0,25.5,7.8,36c1.4,3.2,4.6,6.1,7.8,9v10.5c0-1.5-1.4-1.5-1.4-1.5l-13.5,5.4c0,0,0,1.5,1.4,3.2c-4.6,3.2-10.4,4.7-15,6.1
			c-11.8,3.2-27.1,11.9-34.5,21.6c-4.6,6.1-4.6,28.8-4.6,28.8S111.8,298.2,117.6,302.3z"/>
	</g>
</g>
<path id="square_12_" class="st6" d="M49.7,304.3V81.8c0-17.2,14.1-31.3,31.3-31.3h222.5c17.2,0,31.3,14.1,31.3,31.3v222.5
	c0,17.2-14.1,31.3-31.3,31.3H81C63.7,335.5,49.7,321.5,49.7,304.3z"/>
<g id="Layer_3_1_">
	<g id="Gear_1_">
		<ellipse class="st7" cx="294.9" cy="298" rx="67.1" ry="68.1"/>
		<path class="st8" d="M327,248.2l-5.3,6.2c-2.6-1.4-5.3-3-7.9-4.3l1.4-8.2c0-0.9-0.4-1.4-1-1.9l-2.6-0.9c-0.9-0.4-1.9,0-1.9,0.9
			l-3,7.8c-3-0.9-6.2-0.9-9.2-1l-1-8.2c0-0.9-0.9-1.4-1.9-1.4H292c-0.9,0-1.4,0.9-1.4,1.4l-0.4,8.6c-3,0.4-6.2,1-8.8,1.9l-4.3-7.3
			c-0.4-0.9-1.4-1-2.3-0.9l-2.3,1c-0.9,0.4-1,1-0.9,1.9l2.6,8.2c-2.6,1.4-5.3,3-7.8,5.2l-6.5-5.8c-0.9-0.4-1.4-0.4-2.3,0l-1.9,1.4
			c-0.9,0.4-0.9,1.4,0,2.3l5.3,7.1c-1.9,2.3-3.9,4.8-5.3,7.3l-7.9-3c-0.9-0.4-1.9,0-1.9,0.9l-1,2.3c-0.4,0.9,0,1.4,0.4,2.3l7.3,4.8
			c-1,2.7-1.9,5.3-2.6,8.6l0,0h-8.8c-0.9,0-1.4,0.9-1.4,1.4l-0.4,2.7c0,0.9,0.4,1.4,1,1.9l8.3,1.9c0,1.4,0,3,0,5.2
			c0,1,0.4,2.7,0.4,4.3l0,0l-8.3,2.7c-0.9,0.4-1,1-1,1.9l0.9,2.7c0,0.9,1,1.4,1.9,1l8.3-1c0.9,2.7,1.9,5.8,3.5,8.2l-7.6,5.9
			c-0.9,0.4-0.9,1.4-0.4,2.3l1.4,2.3c0.4,0.9,1.4,1,2.3,0.9l7.8-4.3c1.9,2.3,3.9,4.8,6.2,6.6l-4.5,7.3c-0.4,0.9-0.4,1.4,0.4,2.3
			l2.3,1.4c0.9,0.4,1.4,0.4,2.3,0l5.8-6.6c2.6,1.4,5.3,3,7.9,4.3l-1.4,8.6c0,0.9,0.4,1.4,1,1.9l2.6,0.9c0.9,0.4,1.9,0,1.9-0.9l3-7.8
			c3,0.9,5.8,1,8.8,1l1,8.6c0,0.9,0.9,1.4,1.9,1.4h2.6c0.9,0,1.4-0.9,1.4-1.4l0.4-8.6c3-0.4,6.2-1,8.8-1.9l3.9,7.3
			c0.4,0.9,1.4,1,2.3,0.9l2.3-1c0.9-0.4,1-1,0.9-1.9l-2.6-7.8c2.6-1.4,5.3-3,7.8-5.2l6.2,5.3c0.9,0.4,1.4,0.4,2.3,0l1.9-1.9
			c0.9-0.4,0.9-1.4,0-2.3l-4.9-6.2c1.9-2.3,3.9-4.8,5.8-7.3l7.8,3c0.9,0.4,1.9,0,1.9-0.9l1-2.3c0.4-0.9,0-1.4-0.4-2.3l-6.9-4.3
			c1-2.7,1.9-5.8,2.6-9.1h7.9c0.9,0,1.4-0.9,1.4-1.4l0.4-2.7c0-0.9-0.4-1.4-1-1.9l-7.8-1.4c0-1.4,0-3.5,0-5.2c0-1.4-0.4-2.7-0.4-4.3
			l7.8-2.7c0.9-0.4,1-1,1-1.9l-0.9-2.7c0-0.9-1-1.4-1.9-1l-7.8,1c-0.9-3-2.3-5.8-3.9-8.6l6.2-5.2c0.9-0.4,0.9-1.4,0.4-2.3l-1.4-2.3
			c-0.4-0.9-1.4-1-2.3-0.9l-6.9,3.9c-1.9-2.3-4.3-4.8-6.2-6.6l4.3-7.1c0.4-0.9,0.4-1.4-0.4-2.3l-2.3-1.4
			C328.9,247.5,327.9,247.5,327,248.2z M293.8,254.8c5.3-0.4,10.8,0.4,15.7,1.9l-9.6,19.3c-1.4-0.4-3-0.4-4.5-0.4
			c-1.9,0-3.5,0.4-4.9,1l-11.8-18.3C283,256.6,288.3,254.8,293.8,254.8z M322.6,326.8l-11.8-18.3c2.3-2.3,3.9-5.3,4.5-9.1l21.4-1
			C335.8,309.7,330.5,319.8,322.6,326.8z M269.6,264.8l11.8,18.3c-1.9,2.3-3.5,5.3-4.3,8.6l-21.4,1
			C256.9,281.3,262,271.7,269.6,264.8z M288.7,296.1c-0.4-4.3,3-8.2,7.3-8.2c4.3-0.4,7.9,3,7.9,7.3s-3,8.2-7.3,8.2
			C292.5,303.5,288.7,300.5,288.7,296.1z M256.5,303.2l21.4-1c1,3,2.6,5.8,4.9,7.8l-9.6,19.3C265.1,323.5,258.9,314,256.5,303.2z
			 M298.7,335.9c-5.8,0.4-11.2-0.4-16.1-2.3l9.6-19.3c1.4,0.4,3.5,0.4,4.9,0.4s3-0.4,4.3-0.9l11.8,18.3
			C309.2,334.6,304,335.9,298.7,335.9z M335.8,287.9l-21.4,1c-1-3-3-6.2-5.3-8.6l9.6-19.3C327.5,267.4,333.9,276.9,335.8,287.9z"/>
	</g>
</g>
</svg>
