<?xml version="1.0" encoding="utf-8"?>
<!-- Generator: Adobe Illustrator 18.1.1, SVG Export Plug-In . SVG Version: 6.00 Build 0)  -->
<svg version="1.1" id="Layer_1" xmlns="http://www.w3.org/2000/svg" xmlns:xlink="http://www.w3.org/1999/xlink" x="0px" y="0px"
	 viewBox="0 0 37 37" enable-background="new 0 0 37 37" xml:space="preserve">
<path fill="#2B6080" d="M35,37H2c-1.1,0-2-0.9-2-2V2c0-1.1,0.9-2,2-2h33c1.1,0,2,0.9,2,2v33C37,36.1,36.1,37,35,37z"/>
<rect x="7.9" y="7.8" fill="#F7F7DC" width="5" height="5"/>
<rect x="15.8" y="7.8" fill="#F7F7DC" width="5" height="5"/>
<rect x="23.8" y="7.8" fill="#F7F7DC" width="5" height="5"/>
<rect x="7.9" y="16" fill="#F7F7DC" width="5" height="5"/>
<rect x="15.8" y="16" fill="#F7F7DC" width="5" height="5"/>
<rect x="23.8" y="16" fill="#F7F7DC" width="5" height="5"/>
<rect x="7.9" y="23.9" fill="#F7F7DC" width="5" height="5"/>
<rect x="15.8" y="23.9" fill="#F7F7DC" width="5" height="5"/>
<rect x="23.8" y="23.9" fill="#F7F7DC" width="5" height="5"/>
</svg>
