<?xml version="1.0" encoding="utf-8"?>
<!-- Generator: Adobe Illustrator 19.1.0, SVG Export Plug-In . SVG Version: 6.00 Build 0)  -->
<svg version="1.1" id="Layer_1" xmlns="http://www.w3.org/2000/svg" xmlns:xlink="http://www.w3.org/1999/xlink" x="0px" y="0px"
	 viewBox="-70 72 50 50" style="enable-background:new -70 72 50 50;" xml:space="preserve">
<style type="text/css">
	.st0{clip-path:url(#SVGID_2_);}
	.st1{clip-path:url(#SVGID_6_);}
	.st2{clip-path:url(#SVGID_7_);}
	.st3{clip-path:url(#SVGID_8_);fill:#BFBFBF;}
	.st4{clip-path:url(#SVGID_8_);fill:#606060;}
	.st5{clip-path:url(#SVGID_8_);}
	.st6{clip-path:url(#SVGID_10_);}
	.st7{clip-path:url(#SVGID_12_);fill:url(#SVGID_13_);}
	.st8{clip-path:url(#SVGID_15_);}
	.st9{clip-path:url(#SVGID_17_);fill:#606060;}
	.st10{clip-path:url(#SVGID_19_);}
	.st11{clip-path:url(#SVGID_21_);fill:url(#SVGID_22_);}
	.st12{clip-path:url(#SVGID_24_);}
	.st13{clip-path:url(#SVGID_26_);fill:url(#SVGID_27_);}
	.st14{clip-path:url(#SVGID_29_);}
	.st15{clip-path:url(#SVGID_31_);fill:url(#SVGID_32_);}
	.st16{clip-path:url(#SVGID_34_);}
	.st17{clip-path:url(#SVGID_37_);}
	.st18{clip-path:url(#SVGID_38_);fill:#171923;}
	.st19{clip-path:url(#SVGID_38_);fill:#5E97D1;}
	.st20{clip-path:url(#SVGID_40_);}
	.st21{clip-path:url(#SVGID_42_);fill:url(#SVGID_43_);}
	.st22{clip-path:url(#SVGID_45_);}
	.st23{clip-path:url(#SVGID_47_);}
	.st24{clip-path:url(#SVGID_49_);}
	.st25{clip-path:url(#SVGID_51_);fill:url(#SVGID_52_);}
	.st26{clip-path:url(#SVGID_54_);}
	.st27{clip-path:url(#SVGID_56_);fill:url(#SVGID_57_);}
	.st28{fill:#FFFFFF;}
	.st29{font-family:'HelveticaNeue';}
	.st30{font-size:4.3661px;}
	.st31{font-size:3.1362px;}
	.st32{enable-background:new    ;}
	.st33{fill:none;stroke:#FFFFFF;stroke-width:0.5;stroke-miterlimit:10;}
</style>
<g id="Layer_3">
</g>
<g>
	<g>
		<g>
			<defs>
				<rect id="SVGID_1_" x="-63.3" y="72.3" width="36" height="46.9"/>
			</defs>
			<clipPath id="SVGID_2_">
				<use xlink:href="#SVGID_1_"  style="overflow:visible;"/>
			</clipPath>
			<g class="st0">
				<g>
					<defs>
						<rect id="SVGID_3_" x="-63.3" y="72.3" width="36" height="46.9"/>
					</defs>
					<defs>
						<rect id="SVGID_4_" x="-63.3" y="72.3" width="36" height="46.9"/>
					</defs>
					<defs>
						<rect id="SVGID_5_" x="-63.3" y="72.3" width="36" height="46.9"/>
					</defs>
					<clipPath id="SVGID_6_">
						<use xlink:href="#SVGID_3_"  style="overflow:visible;"/>
					</clipPath>
					<clipPath id="SVGID_7_" class="st1">
						<use xlink:href="#SVGID_4_"  style="overflow:visible;"/>
					</clipPath>
					<clipPath id="SVGID_8_" class="st2">
						<use xlink:href="#SVGID_5_"  style="overflow:visible;"/>
					</clipPath>
					<path class="st3" d="M-27.4,117.5c0,0.9-0.8,1.7-1.7,1.7h-32.5c-0.9,0-1.7-0.8-1.7-1.7V74c0-0.9,0.8-1.7,1.7-1.7H-29
						c0.9,0,1.7,0.8,1.7,1.7v43.5H-27.4z"/>
					<path class="st4" d="M-27.5,117.5c0,0.9-0.7,1.5-1.5,1.5h-32.6c-0.9,0-1.5-0.7-1.5-1.5V74c0-0.9,0.7-1.5,1.5-1.5H-29
						c0.9,0,1.5,0.7,1.5,1.5V117.5z"/>
					<path class="st5" d="M-29.1,72.5h-32.5c-0.8,0-1.5,0.7-1.5,1.5v43.5c0,0.8,0.6,1.4,1.4,1.4h32.6c0.8,0,1.4-0.6,1.4-1.4V74
						C-27.7,73.2-28.3,72.5-29.1,72.5 M-31,114.8c0,0.1-0.1,0.2-0.2,0.2h-28.2c-0.1,0-0.2-0.1-0.2-0.2v-38c0-0.1,0.1-0.2,0.2-0.2
						h28.3c0.1,0,0.2,0.1,0.2,0.2v38H-31z"/>
				</g>
				<g>
					<defs>
						<rect id="SVGID_9_" x="-63.3" y="72.3" width="36" height="46.9"/>
					</defs>
					<clipPath id="SVGID_10_">
						<use xlink:href="#SVGID_9_"  style="overflow:visible;"/>
					</clipPath>
					<g class="st6">
						<g>
							<defs>
								<path id="SVGID_11_" d="M-47.1,72.5l1.3,4h14.6c0.1,0,0.2,0.1,0.2,0.2v38c0,0.1-0.1,0.2-0.2,0.2h-2l1,3.2l0.3,0.8h2.8
									c0.8,0,1.4-0.6,1.4-1.4V74c0-0.8-0.6-1.4-1.4-1.4L-47.1,72.5L-47.1,72.5z"/>
							</defs>
							<clipPath id="SVGID_12_">
								<use xlink:href="#SVGID_11_"  style="overflow:visible;"/>
							</clipPath>
							
								<linearGradient id="SVGID_13_" gradientUnits="userSpaceOnUse" x1="-140.5758" y1="193.508" x2="-140.4977" y2="193.508" gradientTransform="matrix(-2.040000e-05 -466.0042 466.0042 -2.040000e-05 -90212.9141 -65402.5859)">
								<stop  offset="0" style="stop-color:#000000"/>
								<stop  offset="1" style="stop-color:#606060"/>
							</linearGradient>
							<rect x="-47.1" y="72.5" class="st7" width="19.5" height="46.3"/>
						</g>
						<g>
							<defs>
								<rect id="SVGID_14_" x="-63.3" y="72.3" width="36" height="46.9"/>
							</defs>
							<clipPath id="SVGID_15_">
								<use xlink:href="#SVGID_14_"  style="overflow:visible;"/>
							</clipPath>
							<g class="st8">
								<g>
									<defs>
										<rect id="SVGID_16_" x="-63.3" y="72.3" width="36" height="46.9"/>
									</defs>
									<clipPath id="SVGID_17_">
										<use xlink:href="#SVGID_16_"  style="overflow:visible;"/>
									</clipPath>
									<path class="st9" d="M-31.2,114.9c0.1,0,0.2-0.1,0.2-0.2v-38c0-0.1-0.1-0.2-0.2-0.2h-14.6l12.6,38.3L-31.2,114.9
										L-31.2,114.9z"/>
								</g>
								<g>
									<defs>
										<rect id="SVGID_18_" x="-63.3" y="72.3" width="36" height="46.9"/>
									</defs>
									<clipPath id="SVGID_19_">
										<use xlink:href="#SVGID_18_"  style="overflow:visible;"/>
									</clipPath>
									<g class="st10">
										<g>
											<defs>
												<path id="SVGID_20_" d="M-45.8,76.6l12.6,38.3h2c0.1,0,0.2-0.1,0.2-0.2v-38c0-0.1-0.1-0.2-0.2-0.2L-45.8,76.6
													L-45.8,76.6z"/>
											</defs>
											<clipPath id="SVGID_21_">
												<use xlink:href="#SVGID_20_"  style="overflow:visible;"/>
											</clipPath>
											
												<linearGradient id="SVGID_22_" gradientUnits="userSpaceOnUse" x1="-140.517" y1="193.5025" x2="-140.4389" y2="193.5025" gradientTransform="matrix(-1.910000e-05 -437.0044 437.0044 -1.910000e-05 -84599.8438 -61296.6133)">
												<stop  offset="0" style="stop-color:#606060"/>
												<stop  offset="1" style="stop-color:#828282"/>
											</linearGradient>
											<rect x="-45.8" y="76.6" class="st11" width="14.8" height="38.3"/>
										</g>
										<g>
											<defs>
												<rect id="SVGID_23_" x="-63.3" y="72.3" width="36" height="46.9"/>
											</defs>
											<clipPath id="SVGID_24_">
												<use xlink:href="#SVGID_23_"  style="overflow:visible;"/>
											</clipPath>
											<g class="st12">
												<g>
													<defs>
														<path id="SVGID_25_" d="M-45.7,74.4c0,0.1,0.1,0.2,0.2,0.2s0.2-0.1,0.2-0.2s-0.1-0.2-0.2-0.2
															C-45.5,74.2-45.7,74.3-45.7,74.4"/>
													</defs>
													<clipPath id="SVGID_26_">
														<use xlink:href="#SVGID_25_"  style="overflow:visible;"/>
													</clipPath>
													
														<linearGradient id="SVGID_27_" gradientUnits="userSpaceOnUse" x1="-44.9228" y1="338.5938" x2="-44.8446" y2="338.5938" gradientTransform="matrix(2.6956 2.6956 -2.6956 2.6956 988.305 -717.3217)">
														<stop  offset="0" style="stop-color:#1E1E1E"/>
														<stop  offset="1" style="stop-color:#3C3C3C"/>
													</linearGradient>
													<polygon class="st13" points="-45.4,73.9 -44.9,74.4 -45.4,74.9 -45.9,74.4 													"/>
												</g>
												<g>
													<defs>
														<rect id="SVGID_28_" x="-63.3" y="72.3" width="36" height="46.9"/>
													</defs>
													<clipPath id="SVGID_29_">
														<use xlink:href="#SVGID_28_"  style="overflow:visible;"/>
													</clipPath>
													<g class="st14">
														<g>
															<defs>
																<path id="SVGID_30_" d="M-45.5,74.4C-45.5,74.5-45.4,74.5-45.5,74.4c0.2,0.1,0.2,0,0.2,0
																	C-45.3,74.3-45.4,74.3-45.5,74.4C-45.5,74.3-45.5,74.3-45.5,74.4"/>
															</defs>
															<clipPath id="SVGID_31_">
																<use xlink:href="#SVGID_30_"  style="overflow:visible;"/>
															</clipPath>
															
																<radialGradient id="SVGID_32_" cx="-230.4841" cy="627.7661" r="7.817744e-02" gradientTransform="matrix(1.4869 0 0 1.4869 297.2915 -859.0372)" gradientUnits="userSpaceOnUse">
																<stop  offset="0" style="stop-color:#00589C"/>
																<stop  offset="0.8098" style="stop-color:#002674"/>
																<stop  offset="1" style="stop-color:#00589C"/>
															</radialGradient>
															<rect x="-45.5" y="74.3" class="st15" width="0.2" height="0.2"/>
														</g>
														<g>
															<defs>
																<rect id="SVGID_33_" x="-63.3" y="72.3" width="36" height="46.9"/>
															</defs>
															<clipPath id="SVGID_34_">
																<use xlink:href="#SVGID_33_"  style="overflow:visible;"/>
															</clipPath>
															<g class="st16">
																<g>
																	<defs>
																		<rect id="SVGID_35_" x="-63.3" y="72.3" width="36" height="46.9"/>
																	</defs>
																	<defs>
																		<rect id="SVGID_36_" x="-63.3" y="72.3" width="36" height="46.9"/>
																	</defs>
																	<clipPath id="SVGID_37_">
																		<use xlink:href="#SVGID_35_"  style="overflow:visible;"/>
																	</clipPath>
																	<clipPath id="SVGID_38_" class="st17">
																		<use xlink:href="#SVGID_36_"  style="overflow:visible;"/>
																	</clipPath>
																	<path class="st18" d="M-45.4,74.4L-45.4,74.4c0.1-0.1,0.1,0,0.1,0C-45.3,74.5-45.4,74.5-45.4,74.4
																		C-45.4,74.5-45.4,74.5-45.4,74.4"/>
																	<path class="st19" d="M-45.5,74.5C-45.5,74.4-45.5,74.4-45.5,74.5C-45.4,74.4-45.4,74.4-45.5,74.5
																		C-45.4,74.5-45.4,74.5-45.5,74.5L-45.5,74.5"/>
																</g>
																<g>
																	<defs>
																		<rect id="SVGID_39_" x="-63.3" y="72.3" width="36" height="46.9"/>
																	</defs>
																	<clipPath id="SVGID_40_">
																		<use xlink:href="#SVGID_39_"  style="overflow:visible;"/>
																	</clipPath>
																	<g class="st20">
																		<g>
																			<defs>
																				<path id="SVGID_41_" d="M-46.5,117.1c0,0.6,0.5,1.1,1.1,1.1c0.6,0,1.1-0.5,1.1-1.1s-0.5-1.1-1.1-1.1
																					C-46,116-46.5,116.5-46.5,117.1"/>
																			</defs>
																			<clipPath id="SVGID_42_">
																				<use xlink:href="#SVGID_41_"  style="overflow:visible;"/>
																			</clipPath>
																			
																				<linearGradient id="SVGID_43_" gradientUnits="userSpaceOnUse" x1="-132.3735" y1="200.4308" x2="-132.2954" y2="200.4308" gradientTransform="matrix(-9.000000e-07 20.8978 -20.8978 -9.000000e-07 4143.1636 2881.9023)">
																				<stop  offset="0" style="stop-color:#4D4D4D"/>
																				<stop  offset="1" style="stop-color:#000000"/>
																			</linearGradient>
																			<rect x="-46.5" y="116" class="st21" width="2.2" height="2.2"/>
																		</g>
																		<g>
																			<defs>
																				<rect id="SVGID_44_" x="-63.3" y="72.3" width="36" height="46.9"/>
																			</defs>
																			<clipPath id="SVGID_45_">
																				<use xlink:href="#SVGID_44_"  style="overflow:visible;"/>
																			</clipPath>
																			<g class="st22">
																				<g>
																					<defs>
																						<rect id="SVGID_46_" x="-63.3" y="72.3" width="36" height="46.9"/>
																					</defs>
																					<clipPath id="SVGID_47_">
																						<use xlink:href="#SVGID_46_"  style="overflow:visible;"/>
																					</clipPath>
																					<path class="st23" d="M-45.4,118.2c-0.6,0-1.1-0.5-1.1-1.1c0-0.6,0.5-1.1,1.1-1.1c0.6,0,1.1,0.5,1.1,1.1
																						C-44.4,117.7-44.8,118.2-45.4,118.2"/>
																				</g>
																				<g>
																					<defs>
																						<rect id="SVGID_48_" x="-63.3" y="72.3" width="36" height="46.9"/>
																					</defs>
																					<clipPath id="SVGID_49_">
																						<use xlink:href="#SVGID_48_"  style="overflow:visible;"/>
																					</clipPath>
																					<g class="st24">
																						<g>
																							<defs>
																								<path id="SVGID_50_" d="M-45.4,117.2c-0.4,0-0.7,0-1.1-0.1c0,0.6,0.5,1,1.1,1c0.6,0,1-0.5,1.1-1
																									C-44.7,117.2-45.1,117.2-45.4,117.2"/>
																							</defs>
																							<clipPath id="SVGID_51_">
																								<use xlink:href="#SVGID_50_"  style="overflow:visible;"/>
																							</clipPath>
																							
																								<linearGradient id="SVGID_52_" gradientUnits="userSpaceOnUse" x1="-149.7604" y1="183.8281" x2="-149.6822" y2="183.8281" gradientTransform="matrix(-6.000000e-07 -13.2168 13.2168 -6.000000e-07 -2475.0691 -1861.1897)">
																								<stop  offset="0" style="stop-color:#646464"/>
																								<stop  offset="1" style="stop-color:#141414"/>
																							</linearGradient>
																							<rect x="-46.5" y="117.1" class="st25" width="2.1" height="1"/>
																						</g>
																						<g>
																							<defs>
																								<rect id="SVGID_53_" x="-63.3" y="72.3" width="36" height="46.9"/>
																							</defs>
																							<clipPath id="SVGID_54_">
																								<use xlink:href="#SVGID_53_"  style="overflow:visible;"/>
																							</clipPath>
																							<g class="st26">
																								<g>
																									<defs>
																										<path id="SVGID_55_" d="M-45.8,117.3v-0.5c0-0.1,0.1-0.1,0.1-0.1h0.5c0.1,0,0.1,0.1,0.1,0.1v0.5
																											c0,0.1-0.1,0.1-0.1,0.1h-0.5C-45.7,117.5-45.8,117.4-45.8,117.3 M-45.7,116.7c-0.1,0-0.2,0.1-0.2,0.2v0.5
																											c0,0.1,0.1,0.2,0.2,0.2h0.5c0.1,0,0.2-0.1,0.2-0.2v-0.5c0-0.1-0.1-0.2-0.2-0.2H-45.7z"/>
																									</defs>
																									<clipPath id="SVGID_56_">
																										<use xlink:href="#SVGID_55_"  style="overflow:visible;"/>
																									</clipPath>
																									
																										<linearGradient id="SVGID_57_" gradientUnits="userSpaceOnUse" x1="-157.6665" y1="176.7106" x2="-157.5883" y2="176.7106" gradientTransform="matrix(-3.000000e-07 -7.7685 7.7685 -3.000000e-07 -1418.1764 -1107.3682)">
																										<stop  offset="0" style="stop-color:#646464"/>
																										<stop  offset="1" style="stop-color:#DADADA"/>
																									</linearGradient>
																									<rect x="-45.8" y="116.7" class="st27" width="0.8" height="0.8"/>
																								</g>
																							</g>
																						</g>
																						<text transform="matrix(1 0 0 1 -57.0752 82.2529)" class="st28 st29 st30">Registration</text>
																						<g>
																							<rect x="-46.6" y="89.1" class="st28" width="13.6" height="2.9"/>
																							<text transform="matrix(0.8681 0 0 1 -53.7666 91.5068)" class="st28 st29 st31">First</text>
																							<rect x="-46.6" y="93.5" class="st28" width="13.6" height="2.9"/>
																							<text transform="matrix(0.8681 0 0 1 -53.668 95.8628)" class="st28 st29 st31">Last</text>
																							<rect x="-46.6" y="97.8" class="st28" width="13.6" height="2.9"/>
																							<text transform="matrix(0.8681 0 0 1 -58.5093 100.2178)" class="st32"><tspan x="0" y="0" class="st28 st29 st31">Add</tspan><tspan x="5.8" y="0" class="st28 st29 st31">r</tspan><tspan x="6.7" y="0" class="st28 st29 st31">ess</tspan></text>
																							<rect x="-46.6" y="102.2" class="st28" width="13.6" height="2.9"/>
																							<text transform="matrix(0.8681 0 0 1 -53.2626 104.5732)" class="st28 st29 st31">City</text>
																							<rect x="-46.6" y="106.5" class="st28" width="13.6" height="2.9"/>
																							<text transform="matrix(0.8681 0 0 1 -52.3565 108.9297)" class="st28 st29 st31">Zip</text>
																						</g>
																						<line class="st33" x1="-57.8" y1="85.8" x2="-33" y2="85.8"/>
																					</g>
																				</g>
																			</g>
																		</g>
																	</g>
																</g>
															</g>
														</g>
													</g>
												</g>
											</g>
										</g>
									</g>
								</g>
							</g>
						</g>
					</g>
				</g>
			</g>
		</g>
	</g>
</g>
</svg>
