<?xml version="1.0" encoding="utf-8"?>
<!-- Generator: Adobe Illustrator 19.2.1, SVG Export Plug-In . SVG Version: 6.00 Build 0)  -->
<svg version="1.1" id="Layer_1" xmlns="http://www.w3.org/2000/svg" xmlns:xlink="http://www.w3.org/1999/xlink" x="0px" y="0px"
	 viewBox="0 0 385 385" style="enable-background:new 0 0 385 385;" xml:space="preserve">
<style type="text/css">
	.st0{fill:none;}
	.st1{fill:url(#SVGID_1_);}
	.st2{fill:url(#SVGID_2_);}
	.st3{fill:url(#SVGID_3_);}
	.st4{fill:url(#SVGID_4_);}
	.st5{fill:url(#SVGID_5_);}
	.st6{fill:url(#SVGID_6_);}
	.st7{fill:url(#SVGID_7_);}
	.st8{fill:url(#SVGID_8_);}
	.st9{fill:#CDD0D3;}
	.st10{fill:none;stroke:#5A6E5C;stroke-width:0.9965;stroke-miterlimit:10;}
	.st11{display:none;}
	.st12{display:inline;fill:#FFFFFF;}
</style>
<g>
	<path class="st0" d="M65.7,54.5c-2.9,1.7-5.6,3.8-7.9,6.2h7.9V54.5z"/>
	<path class="st0" d="M326.5,60.7c-2.4-2.7-5.3-4.9-8.5-6.6v6.6H326.5z"/>
	<rect x="97.4" y="50.5" class="st0" width="188.5" height="10.2"/>
	<path class="st0" d="M333.7,74v37.5v200.7c0.7-2.5,1-5.1,1-7.8V81.8C334.7,79.1,334.4,76.5,333.7,74z"/>
	<path class="st0" d="M85.3,60.7V50.5h-4.4c-1.1,0-2.1,0.1-3.1,0.2v10.1h7.5V60.7z"/>
	<path class="st0" d="M305.8,60.7V50.6c-0.8-0.1-1.6-0.1-2.4-0.1h-5.3v10.2H305.8z"/>
	
		<linearGradient id="SVGID_1_" gradientUnits="userSpaceOnUse" x1="205.1321" y1="206.6979" x2="204.4088" y2="309.9153" gradientTransform="matrix(1.5145 0 0 1.5145 11.1364 -131.2222)">
		<stop  offset="0" style="stop-color:#FFFFFF"/>
		<stop  offset="1" style="stop-color:#E6E7E8"/>
	</linearGradient>
	<path class="st1" d="M317.9,61.8h9.5c-0.3-0.4-0.6-0.7-0.9-1.1H318v1.1H317.9z"/>
	
		<linearGradient id="SVGID_2_" gradientUnits="userSpaceOnUse" x1="32.5754" y1="205.4888" x2="31.8522" y2="308.7062" gradientTransform="matrix(1.5145 0 0 1.5145 11.1364 -131.2222)">
		<stop  offset="0" style="stop-color:#FFFFFF"/>
		<stop  offset="1" style="stop-color:#E6E7E8"/>
	</linearGradient>
	<path class="st2" d="M65.7,60.7h-7.9c-0.3,0.4-0.6,0.7-0.9,1.1h8.8V60.7z"/>
	
		<linearGradient id="SVGID_3_" gradientUnits="userSpaceOnUse" x1="118.6367" y1="206.0919" x2="117.9135" y2="309.3092" gradientTransform="matrix(1.5145 0 0 1.5145 11.1364 -131.2222)">
		<stop  offset="0" style="stop-color:#FFFFFF"/>
		<stop  offset="1" style="stop-color:#E6E7E8"/>
	</linearGradient>
	<rect x="97.4" y="60.7" class="st3" width="188.5" height="1.1"/>
	
		<linearGradient id="SVGID_4_" gradientUnits="userSpaceOnUse" x1="119.3331" y1="206.0967" x2="118.6098" y2="309.3141" gradientTransform="matrix(1.5145 0 0 1.5145 11.1364 -131.2222)">
		<stop  offset="0" style="stop-color:#FFFFFF"/>
		<stop  offset="1" style="stop-color:#E6E7E8"/>
	</linearGradient>
	<path class="st4" d="M49.6,111.5v192.7c0,17.2,14.1,31.3,31.3,31.3h222.5c14.5,0,26.8-9.9,30.3-23.4V111.5H49.6z"/>
	
		<linearGradient id="SVGID_5_" gradientUnits="userSpaceOnUse" x1="191.4953" y1="206.6023" x2="190.772" y2="309.8197" gradientTransform="matrix(1.5145 0 0 1.5145 11.1364 -131.2222)">
		<stop  offset="0" style="stop-color:#FFFFFF"/>
		<stop  offset="1" style="stop-color:#E6E7E8"/>
	</linearGradient>
	<rect x="298.1" y="60.7" class="st5" width="7.8" height="1.1"/>
	
		<linearGradient id="SVGID_6_" gradientUnits="userSpaceOnUse" x1="45.9759" y1="205.5827" x2="45.2526" y2="308.8001" gradientTransform="matrix(1.5145 0 0 1.5145 11.1364 -131.2222)">
		<stop  offset="0" style="stop-color:#FFFFFF"/>
		<stop  offset="1" style="stop-color:#E6E7E8"/>
	</linearGradient>
	<rect x="77.8" y="60.7" class="st6" width="7.6" height="1.1"/>
	
		<linearGradient id="SVGID_7_" gradientUnits="userSpaceOnUse" x1="118.8001" y1="206.093" x2="118.0768" y2="309.3103" gradientTransform="matrix(1.5145 0 0 1.5145 11.1364 -131.2222)">
		<stop  offset="0" style="stop-color:#FFFFFF"/>
		<stop  offset="1" style="stop-color:#E6E7E8"/>
	</linearGradient>
	<path class="st7" d="M333.7,74c-1.2-4.5-3.4-8.7-6.3-12.2h-9.5v16c0,5.4-3.7,9.7-9.7,9.7h-0.6c-1.1,0-1.7-0.6-1.7-0.6V61.8h-7.8
		v17.1c0,5.4-3.7,9.7-9.7,9.7h-0.6c-1.1,0-1.7-1.1-1.7-1.7V61.8H97.4v20.3c0,3.2-2.2,6.5-6.5,6.5h-0.6c-2.2,0-5-2.2-5-5V61.8h-7.6
		v16c0,5.4-4.8,9.7-9.7,9.7h-0.6c-1.1,0-1.7-0.6-1.7-0.6V61.8h-8.8c-4.5,5.4-7.3,12.4-7.3,20v29.7h284.1V74z"/>
	
		<linearGradient id="SVGID_8_" gradientUnits="userSpaceOnUse" x1="25.396" y1="155.5115" x2="213.6438" y2="155.5115" gradientTransform="matrix(1.5145 0 0 1.5145 11.1364 -131.2222)">
		<stop  offset="0" style="stop-color:#AA0017"/>
		<stop  offset="0.2426" style="stop-color:#BF0025"/>
		<stop  offset="0.804" style="stop-color:#BF0025"/>
		<stop  offset="1" style="stop-color:#AA0017"/>
	</linearGradient>
	<path class="st8" d="M334.7,85.5c0-6.8-0.4-12.9-3.3-18.1h-13.5v23.8c0,8-3.7,14.5-9.7,14.5h-0.6c-1.1,0-1.7-1-1.7-1V67.3h-7.8
		v25.4c0,8-3.7,14.5-9.7,14.5h-0.6c-1.1,0-1.7-1.6-1.7-2.6V67.3H97.4v30.2c0,4.8-2.2,9.7-6.5,9.7h-0.6c-2.2,0-5-3.2-5-7.4V67.3h-7.6
		v23.8c0,8-4.8,14.5-9.7,14.5h-0.6c-1.1,0-1.7-1-1.7-1V67.3H53.9c-4.5,8.1-4.3,18.5-4.3,29.8v44.2h285.1V85.5z"/>
	<path class="st9" d="M65.7,67.3v37.3c0,0,0.6,1,1.7,1H68c5,0,9.7-6.4,9.7-14.5V67.3v-1.6v-15c-4.3,0.7-8.4,1.7-12.1,4.7v10.3v1.6
		H65.7z"/>
	<path class="st9" d="M85.3,67.3v32.5c0,4.2,2.8,7.4,5,7.4H91c4.3,0,6.5-4.8,6.5-9.7V67.3v-1.6V50.5H85.3v15.2V67.3z"/>
	<path class="st9" d="M286,67.3v37.3c0,1,0.6,2.6,1.7,2.6h0.6c6,0,9.7-6.4,9.7-14.5V67.3v-1.6V50.5h-12v15.2V67.3z"/>
	<path class="st9" d="M305.8,67.3v37.3c0,0,0.6,1,1.7,1h0.6c6,0,9.7-6.4,9.7-14.5V67.3v-1.6V54.9c-3.7-2.9-7.8-3.7-12.1-4.2v15.1
		L305.8,67.3L305.8,67.3z"/>
</g>
<path id="square_9_" class="st10" d="M303.4,335.5H80.9c-17.2,0-31.3-14.1-31.3-31.3V81.8c0-17.2,14.1-31.3,31.3-31.3h222.5
	c17.2,0,31.3,14.1,31.3,31.3v222.5C334.7,321.5,320.6,335.5,303.4,335.5z"/>
<g class="st11">
	<path class="st12" d="M148.1,110.4c0,0.7,0.7,0.7,0.7,1.5c0-0.7,0.7-0.7,0.7-1.5c0-0.7,0.7-0.7,0.7-1.5L165,83.1c0-0.7,0-0.7,0-0.7
		s0.7,0,1.5,0h4.4v42.8h-5.1V93.5c0-0.7,0-0.7,0-1.5c0-0.7,0-0.7,0-1.5L151,117.1c-0.7,0.7-1.5,1.5-2.2,1.5h-0.7
		c-0.7,0-1.5-0.7-2.2-1.5l-14.7-26.6c0,0.7,0,0.7,0,1.5s0,0.7,0,1.5v30.9h-5.1V81.7h4.4c0.7,0,0.7,0,1.5,0l0.7,0.7l14.7,25.8
		C147.4,109.7,148.1,109.7,148.1,110.4z"/>
	<path class="st12" d="M216,124.4h-4.4c-0.7,0-0.7,0-1.5-0.7c-0.7-0.7-0.7-0.7-0.7-0.7l-3.6-10.4h-19.1L183,123c0,0,0,0.7-0.7,0.7
		s-0.7,0.7-1.5,0.7h-4.4l16.9-42.8h5.8L216,124.4z M188,109h15.5l-6.6-17c0-0.7-0.7-0.7-0.7-1.5s-0.7-1.5-0.7-2.2
		c0,0.7-0.7,1.5-0.7,2.2S194,92,194,92L188,109z"/>
	<path class="st12" d="M226.9,106.8v17.6h-5.8V81.7h11.8c2.9,0,5.1,0,6.5,0.7c1.5,0.7,3.6,1.5,5.1,2.2s2.2,2.2,2.9,3.6
		c0.7,1.5,0.7,2.9,0.7,5.1c0,1.5,0,2.9-0.7,4.4c0,1.5-0.7,2.2-1.5,3.6c-0.7,0.7-2.2,2.2-2.9,2.9c-1.5,0.7-2.9,1.5-4.4,1.5
		c0.7,0.7,1.5,0.7,2.2,1.5l12.6,16.9h-5.1c-0.7,0-1.5-0.7-2.2-1.5L235,107.1c0-0.7-0.7-0.7-0.7-0.7c-0.7,0-0.7,0-1.5,0h-6
		L226.9,106.8L226.9,106.8z M226.9,102.4h5.8c1.5,0,2.9,0,4.4-0.7c1.5,0,2.9-0.7,3.6-1.5c0.7-0.7,1.5-1.5,2.2-2.9
		c0.7-0.7,0.7-2.2,0.7-3.6c0-2.2-0.7-4.4-2.2-5.8s-4.4-2.2-7.5-2.2h-6.5v16.9h-0.5V102.4z"/>
</g>
<g>
	<path d="M131.9,159.4c5.8,0,11.1,0.7,16.2,2.2c5.1,1.5,9.6,4.4,13.3,7.5c3.6,2.9,6.5,7.5,8.9,11.8c2.2,4.4,2.9,10.4,2.9,16.2
		c0,5.1-0.7,9.6-2.2,14s-3.6,8.2-5.8,12.6c-2.9,3.6-5.8,7.5-8.9,11.8c-3.6,3.6-6.5,7.5-11.1,11.1L109,283.4c2.2-0.7,5.1-1.5,7.5-1.5
		s5.1-0.7,7.5-0.7h45.7c1.5,0,2.9,0.7,4.4,1.5c0.7,0.7,1.5,2.2,1.5,4.4v10.4H85.3V291c0-1.5,0-2.2,0.7-3.6c0.7-1.5,1.5-2.2,2.2-3.6
		l43.5-43.5c3.6-3.6,6.5-7.5,9.6-10.4s5.1-6.5,7.5-10.4c2.2-3.6,3.6-6.5,5.1-10.4c1.5-3.6,1.5-7.5,1.5-11.1s-0.7-7.5-2.2-10.4
		c-1.5-3.1-2.9-5.3-5.1-7.6c-2.2-2.2-4.4-3.6-7.5-4.4c-2.9-0.7-5.8-1.5-9.6-1.5c-3.6,0-6.5,0.7-9.6,1.5c-2.9,0.7-5.1,2.2-7.5,4.4
		c-2.2,2.2-4.4,3.6-5.8,6.5c-1.5,2.2-2.9,5.1-2.9,8.2c-0.7,2.2-1.5,3.6-2.9,4.4c-1.5,0.7-2.9,0.7-5.1,0.7l-8.9-1.5
		c0.7-5.8,2.9-11.8,5.1-16.2s5.8-8.9,9.6-11.8c3.6-2.9,8.2-5.8,13.3-7.5C120.8,160.1,125.9,159.4,131.9,159.4z"/>
	<path d="M230.7,211.8c-1.5,1.5-2.2,2.9-3.6,4.4c-0.7,1.5-2.2,2.9-2.9,4.4c2.9-2.2,6.5-3.6,10.4-5.1c3.6-1.5,8.2-1.5,12.6-1.5
		c5.1,0,10.4,0.7,15.5,2.9c5.1,1.5,8.9,4.4,12.6,8.2c3.6,3.6,6.5,7.5,8.9,12.6c2.2,5.1,2.9,11.1,2.9,16.9s-1.5,11.8-3.6,17.6
		c-2.2,5.8-5.1,10.4-9.6,14s-8.9,7.5-14.7,9.6c-5.8,2.2-11.1,2.2-17.6,2.2s-13.3-0.7-18.4-2.9c-5.8-2.2-10.4-5.1-14-9.6
		c-3.6-3.6-6.5-8.9-8.9-14.7c-2.2-5.8-2.9-11.8-2.9-19.1c0-5.8,1.5-12.6,3.6-19.1c2.9-6.5,6.5-14,12.6-21.5l34.6-46.4
		c0.7-1.5,2.2-2.2,3.6-2.9c1.5-0.7,3.6-1.5,5.1-1.5h14.7L230.7,211.8z M212.1,254.5c0,4.4,0.7,8.2,2.2,11.8c1.5,3.6,2.9,6.5,5.8,9.6
		c2.2,2.9,5.1,4.4,8.9,5.8c3.6,1.5,7.5,2.2,11.8,2.2c4.4,0,8.9-0.7,12.6-2.2c3.6-1.5,6.5-3.6,9.6-5.8c2.9-2.9,4.4-5.8,5.8-8.9
		c1.5-3.6,2.2-7.5,2.2-11.8c0-4.4-0.7-8.2-2.2-11.8s-3.6-6.5-5.8-8.9c-2.2-2.2-5.8-4.4-8.9-5.8c-3.6-1.5-7.5-2.2-11.8-2.2
		c-4.4,0-8.9,0.7-12.6,2.2c-3.6,1.5-6.5,3.6-9.6,5.8c-2.2,2.9-4.4,5.8-5.8,8.9C212.9,247.1,212.1,250.7,212.1,254.5z"/>
</g>
</svg>
