<?xml version="1.0" encoding="utf-8"?>
<!-- Generator: Adobe Illustrator 19.2.1, SVG Export Plug-In . SVG Version: 6.00 Build 0)  -->
<svg version="1.1" id="Layer_1" xmlns="http://www.w3.org/2000/svg" xmlns:xlink="http://www.w3.org/1999/xlink" x="0px" y="0px"
	 viewBox="0 0 385 385" style="enable-background:new 0 0 385 385;" xml:space="preserve">
<style type="text/css">
	.st0{fill:#46484A;}
	.st1{fill:url(#square_3_);stroke:#5A6E5C;stroke-width:2;stroke-miterlimit:10;}
	.st2{display:none;fill:#FFFFFF;stroke:#000000;stroke-width:2.1805;stroke-miterlimit:10;}
	.st3{display:none;}
	.st4{display:inline;}
	.st5{fill:#FFDA15;stroke:#333333;stroke-width:2.1901;stroke-miterlimit:10;}
	.st6{fill:#0955CE;stroke:#333333;stroke-width:2.1901;stroke-miterlimit:10;}
	.st7{fill:#FFFFFF;stroke:#000000;stroke-width:2.1805;stroke-miterlimit:10;}
	.st8{fill:#AD3DE8;stroke:#333333;stroke-width:2.1901;stroke-miterlimit:10;}
	.st9{fill:none;stroke:#5A6E5C;stroke-width:2;stroke-miterlimit:10;}
	.st10{fill:#E4F2CE;}
	.st11{fill:none;stroke:#231F20;stroke-width:2.1901;stroke-miterlimit:10;}
	.st12{fill:#20C62B;stroke:#333333;stroke-width:2.1901;stroke-miterlimit:10;}
	.st13{fill:#69724F;}
	.st14{font-family:'CenturyGothic-Bold';}
	.st15{font-size:72px;}
</style>
<path class="st0" d="M-8,58.3"/>
<linearGradient id="square_3_" gradientUnits="userSpaceOnUse" x1="49.6" y1="193" x2="334.7" y2="193">
	<stop  offset="0" style="stop-color:#007994"/>
	<stop  offset="1" style="stop-color:#005C94"/>
</linearGradient>
<path id="square_1_" class="st1" d="M303.4,335.5H80.9c-17.2,0-31.3-14.1-31.3-31.3V81.8c0-17.2,14.1-31.3,31.3-31.3h222.5
	c17.2,0,31.3,14.1,31.3,31.3v222.5C334.7,321.5,320.6,335.5,303.4,335.5z"/>
<rect x="79.3" y="73.6" class="st2" width="99" height="87.7"/>
<rect x="200.3" y="79.7" class="st2" width="97.3" height="87.7"/>
<g class="st3">
	<g class="st4">
		<g>
			<path class="st5" d="M75.3,290.8h99.9V188.3H75.3V290.8z M90.3,217.3l13.1-13.1c0,0,20.9,21.8,21.8,21.8
				c1.7,0,21.8-21.8,21.8-21.8l13.1,13.1c0,0-21.8,20.9-21.8,21.8c0,1.7,21.8,21.8,21.8,21.8L147,274c0,0-20.9-21.8-21.8-21.8
				c-1.7,0-21.8,21.8-21.8,21.8l-13.1-13.1c0,0,21.8-20.1,21.8-21.8C113,238.2,90.3,217.3,90.3,217.3z"/>
		</g>
	</g>
</g>
<g class="st3">
	<g class="st4">
		<g>
			<path class="st6" d="M79.3,170h99.9V73.6H79.3V170z M102.2,110.5h60.4v22.7h-60.4C102.2,133.2,102.2,110.5,102.2,110.5z"/>
		</g>
	</g>
</g>
<rect x="78.7" y="197" class="st7" width="95.5" height="87.7"/>
<rect x="213.3" y="197" class="st7" width="97.3" height="87.7"/>
<g>
	<g>
		<g>
			<path class="st8" d="M75.7,190.6v97.3h99.9v-97.3H75.7z M165.1,250.1h-27.3v28.1h-23.5v-28.1H87v-23.8h27.3v-27h23.5v27.3h27.3
				L165.1,250.1L165.1,250.1z"/>
		</g>
	</g>
</g>
<path id="square_2_" class="st9" d="M303.4,335.5H80.9c-17.2,0-31.3-14.1-31.3-31.3V81.8c0-17.2,14.1-31.3,31.3-31.3h222.5
	c17.2,0,31.3,14.1,31.3,31.3v222.5C334.7,321.5,320.6,335.5,303.4,335.5z"/>
<g>
	<g>
		<rect x="68" y="72.7" class="st10" width="247.9" height="89.4"/>
		<rect x="68" y="72.7" class="st11" width="247.9" height="89.4"/>
	</g>
</g>
<g>
	<g>
		<g>
			<path class="st12" d="M210.7,288.4h99.9V185.9h-99.9L210.7,288.4L210.7,288.4z M230.7,207.9h60.4v22.7h-60.4L230.7,207.9
				L230.7,207.9z M230.7,247.2h60.4v22.9h-60.4L230.7,247.2L230.7,247.2z"/>
		</g>
	</g>
</g>
<text transform="matrix(1 0 0 1 115.3277 145.5962)" class="st13 st14 st15">GPA</text>
</svg>
