<?xml version="1.0" encoding="utf-8"?>
<!-- Generator: Adobe Illustrator 19.2.1, SVG Export Plug-In . SVG Version: 6.00 Build 0)  -->
<svg version="1.1" id="Layer_1" xmlns="http://www.w3.org/2000/svg" xmlns:xlink="http://www.w3.org/1999/xlink" x="0px" y="0px"
	 viewBox="0 0 385 385" style="enable-background:new 0 0 385 385;" xml:space="preserve">
<style type="text/css">
	.st0{fill:none;}
	.st1{fill:url(#SVGID_1_);}
	.st2{fill:url(#SVGID_2_);}
	.st3{fill:url(#SVGID_3_);}
	.st4{fill:url(#SVGID_4_);}
	.st5{fill:url(#SVGID_5_);}
	.st6{fill:#F4F9F4;}
	.st7{font-family:'ArialMT';}
	.st8{font-size:48px;}
	.st9{fill:none;stroke:#5A6E5C;stroke-width:2;stroke-miterlimit:10;}
</style>
<g>
	<path class="st0" d="M303.4,50.5H80.9c-15.7,0-28.8,11.7-31,26.8c2.4-3.2,6.3-5.3,10.6-5.3h68.6c7.3,0,13.4,6,13.4,13.4v250.1h0.9
		V70c0-7.3,6-13.4,13.4-13.4h68.7c7.3,0,13.4,6,13.4,13.4v16.3c1.9-5,6.8-8.6,12.5-8.6h68.9c7.4,0,13.4,6,13.4,13.4v221.1
		c0.7-2.5,1-5.1,1-7.9V81.8C334.7,64.6,320.6,50.5,303.4,50.5z"/>
	<linearGradient id="SVGID_1_" gradientUnits="userSpaceOnUse" x1="47.2195" y1="203.75" x2="142.5648" y2="203.75">
		<stop  offset="0" style="stop-color:#B3553D"/>
		<stop  offset="1" style="stop-color:#802E1E"/>
	</linearGradient>
	<path class="st1" d="M129.2,72H60.6c-4.3,0-8.2,2.1-10.6,5.3c-0.2,1.5-0.3,2.9-0.3,4.5v222.4c0,17.2,14.1,31.3,31.3,31.3h61.7V85.4
		C142.6,78,136.6,72,129.2,72z"/>
	<linearGradient id="SVGID_2_" gradientUnits="userSpaceOnUse" x1="143.4753" y1="196.0752" x2="238.895" y2="196.0752">
		<stop  offset="0" style="stop-color:#026580"/>
		<stop  offset="1" style="stop-color:#038193"/>
	</linearGradient>
	<path class="st2" d="M238.9,86.3V70c0-7.3-6-13.4-13.4-13.4h-68.7c-7.3,0-13.4,6-13.4,13.4v265.5H238V91
		C238,89.4,238.3,87.8,238.9,86.3z"/>
	<linearGradient id="SVGID_3_" gradientUnits="userSpaceOnUse" x1="238.0092" y1="206.5752" x2="333.6912" y2="206.5752">
		<stop  offset="0" style="stop-color:#007F5D"/>
		<stop  offset="1" style="stop-color:#00A13C"/>
	</linearGradient>
	<path class="st3" d="M320.3,77.7h-68.9c-5.7,0-10.6,3.6-12.5,8.6v249.2h64.5c14.5,0,26.8-9.9,30.3-23.3V91
		C333.7,83.7,327.7,77.7,320.3,77.7z"/>
	<linearGradient id="SVGID_4_" gradientUnits="userSpaceOnUse" x1="143.4754" y1="210.8973" x2="238.8949" y2="210.8973">
		<stop  offset="0" style="stop-color:#026580"/>
		<stop  offset="1" style="stop-color:#038193"/>
	</linearGradient>
	<path class="st4" d="M238,91v244.5h0.9V86.3C238.3,87.8,238,89.4,238,91z"/>
	<linearGradient id="SVGID_5_" gradientUnits="userSpaceOnUse" x1="238.0092" y1="210.8973" x2="333.6912" y2="210.8973">
		<stop  offset="0" style="stop-color:#007F5D"/>
		<stop  offset="1" style="stop-color:#00A13C"/>
	</linearGradient>
	<path class="st5" d="M238,91v244.5h0.9V86.3C238.3,87.8,238,89.4,238,91z"/>
</g>
<text transform="matrix(2.244830e-10 1 -1 2.244830e-10 178.3828 138.0068)" class="st6 st7 st8">MATH</text>
<text transform="matrix(2.244830e-10 1 -1 2.244830e-10 271.0469 113.1738)" class="st6 st7 st8">PHYSICS</text>
<text transform="matrix(2.244830e-10 1 -1 2.244830e-10 82.0898 108.2734)" class="st6 st7 st8">ENGLISH</text>
<path id="square_9_" class="st9" d="M303.4,335.5H80.9c-17.2,0-31.3-14.1-31.3-31.3V81.8c0-17.2,14.1-31.3,31.3-31.3h222.5
	c17.2,0,31.3,14.1,31.3,31.3v222.5C334.7,321.5,320.6,335.5,303.4,335.5z"/>
</svg>
