<?xml version="1.0" encoding="utf-8"?>
<!-- Generator: Adobe Illustrator 19.2.1, SVG Export Plug-In . SVG Version: 6.00 Build 0)  -->
<svg version="1.1" id="Layer_1" xmlns="http://www.w3.org/2000/svg" xmlns:xlink="http://www.w3.org/1999/xlink" x="0px" y="0px"
	 viewBox="0 0 385 385" style="enable-background:new 0 0 385 385;" xml:space="preserve">
<style type="text/css">
	.st0{fill:url(#square_1_);}
	.st1{fill:#12A012;stroke:#5A6E5C;stroke-width:2;stroke-miterlimit:10;}
	.st2{fill:#9D885E;stroke:#8C7257;stroke-width:2.0367;stroke-miterlimit:10;}
	.st3{fill:#E5C8AA;stroke:#AD9D71;stroke-width:2;stroke-miterlimit:10;}
	.st4{opacity:0.75;fill:#51514C;enable-background:new    ;}
	.st5{fill:#FFFFFF;stroke:#51514C;stroke-width:2;stroke-miterlimit:10;}
	.st6{fill:none;stroke:#5A6E5C;stroke-width:2;stroke-miterlimit:10;}
	.st7{fill:#E74C3C;stroke:#231F20;stroke-width:1.7064;stroke-miterlimit:10;}
</style>
<g id="Layer_2_1_">
	
		<linearGradient id="square_1_" gradientUnits="userSpaceOnUse" x1="192.25" y1="334.5" x2="192.25" y2="49.4" gradientTransform="matrix(1 0 0 -1 0 385)">
		<stop  offset="0" style="stop-color:#FFFFFF"/>
		<stop  offset="1" style="stop-color:#FFF8E8"/>
	</linearGradient>
	<path id="square_16_" class="st0" d="M334.8,304.3c0,17.2-14.1,31.3-31.3,31.3H81c-17.3-0.1-31.3-14.1-31.3-31.3V81.8
		c0-17.2,14.1-31.3,31.3-31.3h222.5c17.2,0,31.3,14.1,31.3,31.3"/>
	<path class="st1" d="M321.2,235.4c-20.3-5.7-49.7-23.7-49.7-23.7l-38.3,1.5l-38.3-1.4c0,0-29.3,17.8-49.8,23.7
		c-72.6,24.4-63.6,73-63.6,73c-2.2,11,0.6,20.3,5.9,27h216c17.2,0,31.3-14,31.3-31.2v-64.1C330.1,238.3,325.5,236.6,321.2,235.4z"/>
	<polyline class="st2" points="274.1,259.9 234.1,249.3 194.2,259.9 194.2,193 274.1,193 274.1,259.9 	"/>
	<path class="st3" d="M298.5,124.7c0,0,3.3-63.5-64.4-63.5c-62.8,0-64.4,63.5-64.4,63.5s-1.5,36.7,11.3,54.6s40.7,34.2,53,34.2
		c12.4,0,40-16.3,53-34.2C300,161.2,298.5,124.7,298.5,124.7L298.5,124.7z"/>
	<path class="st4" d="M192.6,220.8c0,0,25.2,20.4,35.9,24.4c10.6,4.8,7.4,4.8,7.4,4.8s-17.2,30.9-17.8,30.9c-1.5,0-16.3-5.7-29.3-22
		C179,246.7,166,228,166,228l28.5-8.1L192.6,220.8z"/>
	<path class="st4" d="M278.9,220.8c0,0-26.9,26.1-39.1,26.1c-2.4,0-4.1,3.3-4.1,3.3s15.4,35,17.8,35.9c0.9,0,17.2-10.6,30.2-26.1
		c8.9-11.3,20.4-28.5,21.1-30.9L278.9,220.8L278.9,220.8z"/>
	<path class="st5" d="M192.6,211.8c0,0,22,27.6,32.6,32.6s10.6,4.8,10.6,4.8s-17.2,28.5-18.7,30.2c-2.4,2.4-20.4-10.6-33.5-26.1
		c-9.8-12.2-18.7-26.1-18.7-26.1L192.6,211.8L192.6,211.8z"/>
	<path class="st5" d="M278.9,211.8c0,0-22,27.6-32.6,32.6s-10.6,4.8-10.6,4.8s15.4,33.5,17.8,35.9c2.4,2.4,21.1-16.3,34.2-31.7
		c9.8-12.2,17.2-26.1,17.2-26.1L278.9,211.8L278.9,211.8z"/>
</g>
<path id="square_9_" class="st6" d="M303.4,335.5H80.9c-17.2,0-31.3-14.1-31.3-31.3V81.8c0-17.2,14.1-31.3,31.3-31.3h222.5
	c17.2,0,31.3,14.1,31.3,31.3v222.5C334.7,321.5,320.6,335.5,303.4,335.5z"/>
<path class="st7" d="M177.8,213.5c-7.5-34.2-33.5-60.1-79.9-54.6c-0.7-7.5-1.3-17.1-1.3-17.1c-21.1,22.4-36.2,30.6-41.7,36.2
	c12.2,7.5,27.3,15.7,44.4,24.6c0,0,0.7-8.2,0-17.1C131.5,181.4,155.4,188.9,177.8,213.5z"/>
</svg>
