<?xml version="1.0" encoding="utf-8"?>
<!-- Generator: Adobe Illustrator 19.2.1, SVG Export Plug-In . SVG Version: 6.00 Build 0)  -->
<svg version="1.1" xmlns="http://www.w3.org/2000/svg" xmlns:xlink="http://www.w3.org/1999/xlink" x="0px" y="0px"
	 viewBox="0 0 385 385" style="enable-background:new 0 0 385 385;" xml:space="preserve">
<style type="text/css">
	.st0{fill:url(#square_1_);stroke:#3B61AD;stroke-width:2;stroke-miterlimit:10;}
	.st1{fill:none;}
	.st2{fill:url(#SVGID_1_);}
	.st3{fill:url(#SVGID_2_);}
	.st4{fill:url(#SVGID_3_);}
	.st5{fill:url(#SVGID_4_);}
	.st6{opacity:0.47;fill:#231F20;enable-background:new    ;}
	.st7{fill:url(#SVGID_5_);}
	.st8{fill:url(#SVGID_6_);}
	.st9{fill:url(#SVGID_7_);}
	.st10{fill:url(#SVGID_8_);}
	.st11{fill:url(#SVGID_9_);}
	.st12{fill:url(#SVGID_10_);}
	.st13{fill:url(#SVGID_11_);}
	.st14{fill:url(#SVGID_12_);}
	.st15{fill:url(#SVGID_13_);}
	.st16{fill:url(#SVGID_14_);}
	.st17{fill:url(#SVGID_15_);}
	.st18{fill:url(#SVGID_16_);}
	.st19{fill:url(#SVGID_17_);}
	.st20{fill:url(#SVGID_18_);}
	.st21{fill:url(#SVGID_19_);}
	.st22{fill:url(#SVGID_20_);}
	.st23{fill:url(#SVGID_21_);}
	.st24{fill:url(#SVGID_22_);}
	.st25{fill:url(#SVGID_23_);}
	.st26{fill:url(#SVGID_24_);}
	.st27{fill:url(#SVGID_25_);}
	.st28{fill:url(#SVGID_26_);}
	.st29{fill:url(#SVGID_27_);}
	.st30{fill:url(#SVGID_28_);}
	.st31{fill:url(#SVGID_29_);}
	.st32{fill:url(#SVGID_30_);}
	.st33{fill:#80BC0D;}
	.st34{fill:#FF8F8F;}
</style>
<g id="Layer_1">
	<linearGradient id="square_1_" gradientUnits="userSpaceOnUse" x1="192.25" y1="50.5" x2="192.25" y2="335.6">
		<stop  offset="0" style="stop-color:#FFFFFF"/>
		<stop  offset="1" style="stop-color:#D0D2D3"/>
	</linearGradient>
	<path id="square_20_" class="st0" d="M49.7,304.3V81.8c0-17.2,14.1-31.3,31.3-31.3h222.5c17.2,0,31.3,14.1,31.3,31.3v222.5
		c0,17.2-14.1,31.3-31.3,31.3H81C63.7,335.5,49.7,321.5,49.7,304.3z"/>
	<g>
		<path class="st1" d="M243.4,139c-63.3,13.2-83.7-10.9-104.1-1.4c-5.5,1.3-10.4,2.9-14.8,4.9c43.9-0.6,114,1.2,155.2,25.5
			c53.7,31.7,53.5,109.9,37.6,164.3c10.3-5.1,17.5-15.8,17.5-28.1V86.8C309.4,107.3,270.1,133,243.4,139z"/>
		<path class="st1" d="M81,142.5c0.6-19.2,0.6-41-1.6-50.6c-3.5-15.2,16.1-15,28.8-15c12.9,0,12.9,8.3,7.2,19.3
			c-1.4,8.1-13.8,22.7-17,33.7c-0.9,3.1-1.9,7.9-2.7,13.4c2.8-0.1,6.1-0.1,9.8-0.2c2.5-4.6,5.3-10,8.7-16.6
			c16.7-35.7,51.2-61.3,96.9-61.3c71.6,9.8,102.4,8.7,121.6,5.6c-4.5-11.8-15.9-20.2-29.2-20.2H81c-17.2,0-31.3,14.1-31.3,31.3v57.4
			c1.5,0.5,2.9,0.9,4.1,1.3L81,142.5z"/>
		
			<linearGradient id="SVGID_1_" gradientUnits="userSpaceOnUse" x1="17.4832" y1="35.8957" x2="25.5183" y2="145.3169" gradientTransform="matrix(1.7647 0 0 1.7647 156 204.5306)">
			<stop  offset="3.683036e-02" style="stop-color:#EB423D"/>
			<stop  offset="0.5299" style="stop-color:#BC2132"/>
			<stop  offset="0.7962" style="stop-color:#AE1E2D"/>
			<stop  offset="1" style="stop-color:#951B25"/>
		</linearGradient>
		<path class="st2" d="M279.6,168.1c-41.2-24.3-111.2-26.2-155.2-25.5c-8.1,3.7-14.6,8.7-20,14.8c13.9,1.8,23.5,5.7,23.5,10.2
			c0,6.2-17.9,11.2-40,11.2l0,0l0,0c-0.1,0-0.2,0-0.3,0c-17.6,0-32.6-3.2-38.1-7.6v133.1c0,17.2,14,31.2,31.3,31.3h222.5
			c4.9,0,9.6-1.2,13.8-3.2C333.2,278,333.3,199.7,279.6,168.1z"/>
		
			<linearGradient id="SVGID_2_" gradientUnits="userSpaceOnUse" x1="-46.2529" y1="40.576" x2="-38.2178" y2="149.9972" gradientTransform="matrix(1.7647 0 0 1.7647 156 204.5306)">
			<stop  offset="3.683036e-02" style="stop-color:#EB423D"/>
			<stop  offset="0.5299" style="stop-color:#BC2132"/>
			<stop  offset="0.7962" style="stop-color:#AE1E2D"/>
			<stop  offset="1" style="stop-color:#951B25"/>
		</linearGradient>
		<path class="st3" d="M81,142.5l-27.2-2c-1.2-0.4-2.6-0.8-4.1-1.3v24.7c4.7-3.8,16.4-6.6,30.8-7.4C80.7,152.2,80.9,147.4,81,142.5z
			"/>
		
			<linearGradient id="SVGID_3_" gradientUnits="userSpaceOnUse" x1="-26.7192" y1="39.1415" x2="-18.684" y2="148.5628" gradientTransform="matrix(1.7647 0 0 1.7647 156 204.5306)">
			<stop  offset="3.683036e-02" style="stop-color:#EB423D"/>
			<stop  offset="0.5299" style="stop-color:#BC2132"/>
			<stop  offset="0.7962" style="stop-color:#AE1E2D"/>
			<stop  offset="1" style="stop-color:#951B25"/>
		</linearGradient>
		<path class="st4" d="M98.1,156.7c2-3.8,4.5-8.2,7.4-13.7c-3.7,0.1-7,0.2-9.8,0.2c-0.7,4.2-1.2,8.8-1.7,13.2
			C95.4,156.5,96.7,156.6,98.1,156.7z"/>
		
			<linearGradient id="SVGID_4_" gradientUnits="userSpaceOnUse" x1="-29.5061" y1="39.3462" x2="-21.471" y2="148.7675" gradientTransform="matrix(1.7647 0 0 1.7647 156 204.5306)">
			<stop  offset="3.683036e-02" style="stop-color:#EB423D"/>
			<stop  offset="0.5299" style="stop-color:#BC2132"/>
			<stop  offset="0.7962" style="stop-color:#AE1E2D"/>
			<stop  offset="1" style="stop-color:#951B25"/>
		</linearGradient>
		<path class="st5" d="M93.3,165.8c1.4-2.9,2.9-5.8,4.7-9.2c-1.3-0.1-2.7-0.2-4-0.2C93.7,159.7,93.4,162.9,93.3,165.8z"/>
		<path class="st6" d="M93.3,165.8c1.4-2.9,2.9-5.8,4.7-9.2c-1.3-0.1-2.7-0.2-4-0.2C93.7,159.7,93.4,162.9,93.3,165.8z"/>
		
			<linearGradient id="SVGID_5_" gradientUnits="userSpaceOnUse" x1="-45.2086" y1="40.4993" x2="-37.1733" y2="149.9205" gradientTransform="matrix(1.7647 0 0 1.7647 156 204.5306)">
			<stop  offset="3.683036e-02" style="stop-color:#EB423D"/>
			<stop  offset="0.5299" style="stop-color:#BC2132"/>
			<stop  offset="0.7962" style="stop-color:#AE1E2D"/>
			<stop  offset="1" style="stop-color:#951B25"/>
		</linearGradient>
		<path class="st7" d="M88,178.7c-0.1,0-0.7-0.3-0.2-1.1h-8.5c0,0,0.6-8.9,1.1-21.1c-14.4,0.7-26.1,3.6-30.8,7.4v7.3
			c5.5,4.4,20.4,7.6,38.1,7.6C87.9,178.7,87.9,178.7,88,178.7z"/>
		<path class="st6" d="M88,178.7c-0.1,0-0.7-0.3-0.2-1.1h-8.5c0,0,0.6-8.9,1.1-21.1c-14.4,0.7-26.1,3.6-30.8,7.4v7.3
			c5.5,4.4,20.4,7.6,38.1,7.6C87.9,178.7,87.9,178.7,88,178.7z"/>
		
			<linearGradient id="SVGID_6_" gradientUnits="userSpaceOnUse" x1="-23.0354" y1="38.871" x2="-15.0002" y2="148.2923" gradientTransform="matrix(1.7647 0 0 1.7647 156 204.5306)">
			<stop  offset="3.683036e-02" style="stop-color:#EB423D"/>
			<stop  offset="0.5299" style="stop-color:#BC2132"/>
			<stop  offset="0.7962" style="stop-color:#AE1E2D"/>
			<stop  offset="1" style="stop-color:#951B25"/>
		</linearGradient>
		<path class="st8" d="M93.4,173.9c0.2,1.7,0.4,2.9,0.8,3.7h0.2v0.3c-0.1-0.1-0.1-0.2-0.2-0.3h-5.8c-0.1,0.4-0.3,0.8-0.4,1.1
			c22.1,0,40-5,40-11.2c0-4.5-9.7-8.4-23.5-10.2C100.2,162.1,96.7,167.7,93.4,173.9C93.5,173.9,93.4,173.9,93.4,173.9z"/>
		<path class="st6" d="M93.4,173.9c0.2,1.7,0.4,2.9,0.8,3.7h0.2v0.3c-0.1-0.1-0.1-0.2-0.2-0.3h-5.8c-0.1,0.4-0.3,0.8-0.4,1.1
			c22.1,0,40-5,40-11.2c0-4.5-9.7-8.4-23.5-10.2C100.2,162.1,96.7,167.7,93.4,173.9C93.5,173.9,93.4,173.9,93.4,173.9z"/>
		
			<linearGradient id="SVGID_7_" gradientUnits="userSpaceOnUse" x1="87.6516" y1="87.8534" x2="357.3028" y2="87.8534" gradientTransform="matrix(1 0 0 -1 0 192)">
			<stop  offset="0" style="stop-color:#096133"/>
			<stop  offset="0.5151" style="stop-color:#3D9549"/>
			<stop  offset="0.8962" style="stop-color:#0A6A00"/>
			<stop  offset="1" style="stop-color:#3D9549"/>
		</linearGradient>
		<path class="st9" d="M211.2,65.1c-45.7,0-80.3,25.6-96.9,61.3c-3.4,6.6-6.2,12-8.7,16.6c5.5-0.1,11.9-0.3,19-0.4
			c4.4-2,9.3-3.7,14.8-4.9c20.4-9.5,40.8,14.7,104.1,1.4c26.7-6,66-31.8,91.4-52.3v-5c0-3.9-0.7-7.6-2.1-11.1
			C313.6,73.9,282.8,74.9,211.2,65.1z"/>
		
			<linearGradient id="SVGID_8_" gradientUnits="userSpaceOnUse" x1="-20.2052" y1="38.6632" x2="-12.1701" y2="148.0845" gradientTransform="matrix(1.7647 0 0 1.7647 156 204.5306)">
			<stop  offset="3.683036e-02" style="stop-color:#EB423D"/>
			<stop  offset="0.5299" style="stop-color:#BC2132"/>
			<stop  offset="0.7962" style="stop-color:#AE1E2D"/>
			<stop  offset="1" style="stop-color:#951B25"/>
		</linearGradient>
		<path class="st10" d="M98.1,156.7c2.2,0.2,4.4,0.4,6.4,0.6c5.4-6.1,11.9-11,20-14.8c-7.1,0.1-13.5,0.3-19,0.4
			C102.5,148.5,100.1,152.9,98.1,156.7z"/>
		
			<linearGradient id="SVGID_9_" gradientUnits="userSpaceOnUse" x1="87.6516" y1="42.1" x2="357.3028" y2="42.1" gradientTransform="matrix(1 0 0 -1 0 192)">
			<stop  offset="0" style="stop-color:#096133"/>
			<stop  offset="0.5151" style="stop-color:#3D9549"/>
			<stop  offset="0.8962" style="stop-color:#0A6A00"/>
			<stop  offset="1" style="stop-color:#3D9549"/>
		</linearGradient>
		<path class="st11" d="M98.1,156.7c2.2,0.2,4.4,0.4,6.4,0.6c5.4-6.1,11.9-11,20-14.8c-7.1,0.1-13.5,0.3-19,0.4
			C102.5,148.5,100.1,152.9,98.1,156.7z"/>
		
			<linearGradient id="SVGID_10_" gradientUnits="userSpaceOnUse" x1="-38.5335" y1="-14.6374" x2="-38.5335" y2="-14.6374" gradientTransform="matrix(1.7647 0 0 1.7647 156 204.5306)">
			<stop  offset="3.683036e-02" style="stop-color:#EB423D"/>
			<stop  offset="0.5299" style="stop-color:#BC2132"/>
			<stop  offset="0.7962" style="stop-color:#AE1E2D"/>
			<stop  offset="1" style="stop-color:#951B25"/>
		</linearGradient>
		<path class="st12" d="M88,178.7L88,178.7L88,178.7z"/>
		
			<linearGradient id="SVGID_11_" gradientUnits="userSpaceOnUse" x1="88" y1="13.3" x2="88" y2="13.3" gradientTransform="matrix(1 0 0 -1 0 192)">
			<stop  offset="0" style="stop-color:#096133"/>
			<stop  offset="0.5151" style="stop-color:#3D9549"/>
			<stop  offset="0.8962" style="stop-color:#0A6A00"/>
			<stop  offset="1" style="stop-color:#3D9549"/>
		</linearGradient>
		<path class="st13" d="M88,178.7L88,178.7L88,178.7z"/>
		
			<linearGradient id="SVGID_12_" gradientUnits="userSpaceOnUse" x1="-34.4649" y1="39.7103" x2="-26.4297" y2="149.1317" gradientTransform="matrix(1.7647 0 0 1.7647 156 204.5306)">
			<stop  offset="3.683036e-02" style="stop-color:#EB423D"/>
			<stop  offset="0.5299" style="stop-color:#BC2132"/>
			<stop  offset="0.7962" style="stop-color:#AE1E2D"/>
			<stop  offset="1" style="stop-color:#951B25"/>
		</linearGradient>
		<path class="st14" d="M87.9,177.6c-0.6,0.9,0.1,1.1,0.2,1.1l0,0c0.1-0.4,0.3-0.8,0.4-1.1H87.9z"/>
		<path class="st6" d="M87.9,177.6c-0.6,0.9,0.1,1.1,0.2,1.1l0,0c0.1-0.4,0.3-0.8,0.4-1.1H87.9z"/>
		
			<linearGradient id="SVGID_13_" gradientUnits="userSpaceOnUse" x1="87.6516" y1="13.85" x2="357.3028" y2="13.85" gradientTransform="matrix(1 0 0 -1 0 192)">
			<stop  offset="0" style="stop-color:#096133"/>
			<stop  offset="0.5151" style="stop-color:#3D9549"/>
			<stop  offset="0.8962" style="stop-color:#0A6A00"/>
			<stop  offset="1" style="stop-color:#3D9549"/>
		</linearGradient>
		<path class="st15" d="M87.9,177.6c-0.6,0.9,0.1,1.1,0.2,1.1l0,0c0.1-0.4,0.3-0.8,0.4-1.1H87.9z"/>
		
			<linearGradient id="SVGID_14_" gradientUnits="userSpaceOnUse" x1="-27.8295" y1="39.223" x2="-19.7944" y2="148.6443" gradientTransform="matrix(1.7647 0 0 1.7647 156 204.5306)">
			<stop  offset="3.683036e-02" style="stop-color:#EB423D"/>
			<stop  offset="0.5299" style="stop-color:#BC2132"/>
			<stop  offset="0.7962" style="stop-color:#AE1E2D"/>
			<stop  offset="1" style="stop-color:#951B25"/>
		</linearGradient>
		<path class="st16" d="M93.3,165.8c-0.1,3.2-0.1,5.9,0.1,8.1c0,0,0.1,0,0.1-0.1c3.1-6.2,6.7-11.7,11-16.5c-2.1-0.3-4.2-0.5-6.4-0.6
			C96.2,160.1,94.7,163,93.3,165.8z"/>
		<path class="st6" d="M93.3,165.8c-0.1,3.2-0.1,5.9,0.1,8.1c0,0,0.1,0,0.1-0.1c3.1-6.2,6.7-11.7,11-16.5c-2.1-0.3-4.2-0.5-6.4-0.6
			C96.2,160.1,94.7,163,93.3,165.8z"/>
		
			<linearGradient id="SVGID_15_" gradientUnits="userSpaceOnUse" x1="87.6516" y1="26.7" x2="357.3028" y2="26.7" gradientTransform="matrix(1 0 0 -1 0 192)">
			<stop  offset="0" style="stop-color:#096133"/>
			<stop  offset="0.5151" style="stop-color:#3D9549"/>
			<stop  offset="0.8962" style="stop-color:#0A6A00"/>
			<stop  offset="1" style="stop-color:#3D9549"/>
		</linearGradient>
		<path class="st17" d="M93.3,165.8c-0.1,3.2-0.1,5.9,0.1,8.1c0,0,0.1,0,0.1-0.1c3.1-6.2,6.7-11.7,11-16.5c-2.1-0.3-4.2-0.5-6.4-0.6
			C96.2,160.1,94.7,163,93.3,165.8z"/>
		
			<linearGradient id="SVGID_16_" gradientUnits="userSpaceOnUse" x1="90.753" y1="10.8172" x2="99.5899" y2="111.4793" gradientTransform="matrix(1 0 0 -1 0 192)">
			<stop  offset="0" style="stop-color:#463311"/>
			<stop  offset="0.161" style="stop-color:#593E18"/>
			<stop  offset="0.7697" style="stop-color:#AA7100"/>
			<stop  offset="0.7961" style="stop-color:#AB7305"/>
			<stop  offset="0.8265" style="stop-color:#AF7813"/>
			<stop  offset="0.8587" style="stop-color:#B5802A"/>
			<stop  offset="0.878" style="stop-color:#B9863B"/>
			<stop  offset="1" style="stop-color:#93762F"/>
		</linearGradient>
		<path class="st18" d="M95.7,143.2c0.8-5.5,1.8-10.3,2.7-13.4c3.2-10.9,15.5-25.6,17-33.7c5.8-10.9,5.8-19.3-7.2-19.3
			c-12.7,0-32.2-0.3-28.8,15c2.2,9.6,2.2,31.4,1.6,50.6l3.9,0.3C85.5,143.3,89.4,143.3,95.7,143.2z"/>
		
			<linearGradient id="SVGID_17_" gradientUnits="userSpaceOnUse" x1="-33.2917" y1="39.6242" x2="-25.2565" y2="149.0455" gradientTransform="matrix(1.7647 0 0 1.7647 156 204.5306)">
			<stop  offset="3.683036e-02" style="stop-color:#EB423D"/>
			<stop  offset="0.5299" style="stop-color:#BC2132"/>
			<stop  offset="0.7962" style="stop-color:#AE1E2D"/>
			<stop  offset="1" style="stop-color:#951B25"/>
		</linearGradient>
		<path class="st19" d="M94,156.4c0.4-4.4,1-9,1.7-13.2c-6.3,0.1-10.2,0.1-10.8-0.4l-3.9-0.3c-0.1,4.9-0.3,9.7-0.5,14
			c2.4-0.1,4.8-0.2,7.2-0.2C89.9,156.3,92,156.3,94,156.4z"/>
		
			<linearGradient id="SVGID_18_" gradientUnits="userSpaceOnUse" x1="85.029" y1="11.3197" x2="93.8658" y2="111.9817" gradientTransform="matrix(1 0 0 -1 0 192)">
			<stop  offset="0" style="stop-color:#463311"/>
			<stop  offset="0.161" style="stop-color:#593E18"/>
			<stop  offset="0.7697" style="stop-color:#AA7100"/>
			<stop  offset="0.7961" style="stop-color:#AB7305"/>
			<stop  offset="0.8265" style="stop-color:#AF7813"/>
			<stop  offset="0.8587" style="stop-color:#B5802A"/>
			<stop  offset="0.878" style="stop-color:#B9863B"/>
			<stop  offset="1" style="stop-color:#93762F"/>
		</linearGradient>
		<path class="st20" d="M94,156.4c0.4-4.4,1-9,1.7-13.2c-6.3,0.1-10.2,0.1-10.8-0.4l-3.9-0.3c-0.1,4.9-0.3,9.7-0.5,14
			c2.4-0.1,4.8-0.2,7.2-0.2C89.9,156.3,92,156.3,94,156.4z"/>
		
			<linearGradient id="SVGID_19_" gradientUnits="userSpaceOnUse" x1="-30.9457" y1="39.452" x2="-22.9106" y2="148.8732" gradientTransform="matrix(1.7647 0 0 1.7647 156 204.5306)">
			<stop  offset="3.683036e-02" style="stop-color:#EB423D"/>
			<stop  offset="0.5299" style="stop-color:#BC2132"/>
			<stop  offset="0.7962" style="stop-color:#AE1E2D"/>
			<stop  offset="1" style="stop-color:#951B25"/>
		</linearGradient>
		<path class="st21" d="M94.4,177.6h-0.2c0.1,0.1,0.1,0.2,0.2,0.3V177.6z"/>
		<path class="st6" d="M94.4,177.6h-0.2c0.1,0.1,0.1,0.2,0.2,0.3V177.6z"/>
		
			<linearGradient id="SVGID_20_" gradientUnits="userSpaceOnUse" x1="93.9738" y1="10.5344" x2="102.8107" y2="111.1965" gradientTransform="matrix(1 0 0 -1 0 192)">
			<stop  offset="0" style="stop-color:#463311"/>
			<stop  offset="0.161" style="stop-color:#593E18"/>
			<stop  offset="0.7697" style="stop-color:#AA7100"/>
			<stop  offset="0.7961" style="stop-color:#AB7305"/>
			<stop  offset="0.8265" style="stop-color:#AF7813"/>
			<stop  offset="0.8587" style="stop-color:#B5802A"/>
			<stop  offset="0.878" style="stop-color:#B9863B"/>
			<stop  offset="1" style="stop-color:#93762F"/>
		</linearGradient>
		<path class="st22" d="M94.4,177.6h-0.2c0.1,0.1,0.1,0.2,0.2,0.3V177.6z"/>
		
			<linearGradient id="SVGID_21_" gradientUnits="userSpaceOnUse" x1="-32.5803" y1="39.572" x2="-24.5452" y2="148.9932" gradientTransform="matrix(1.7647 0 0 1.7647 156 204.5306)">
			<stop  offset="3.683036e-02" style="stop-color:#EB423D"/>
			<stop  offset="0.5299" style="stop-color:#BC2132"/>
			<stop  offset="0.7962" style="stop-color:#AE1E2D"/>
			<stop  offset="1" style="stop-color:#951B25"/>
		</linearGradient>
		<path class="st23" d="M88.5,177.6h5.8c-0.4-0.7-0.7-2-0.8-3.7c-2.3,1.2-3.8,2.1-4.6,2.8C88.7,177,88.6,177.3,88.5,177.6z"/>
		<path class="st6" d="M88.5,177.6h5.8c-0.4-0.7-0.7-2-0.8-3.7c-2.3,1.2-3.8,2.1-4.6,2.8C88.7,177,88.6,177.3,88.5,177.6z"/>
		
			<linearGradient id="SVGID_22_" gradientUnits="userSpaceOnUse" x1="91.0829" y1="10.7882" x2="99.9198" y2="111.4502" gradientTransform="matrix(1 0 0 -1 0 192)">
			<stop  offset="0" style="stop-color:#463311"/>
			<stop  offset="0.161" style="stop-color:#593E18"/>
			<stop  offset="0.7697" style="stop-color:#AA7100"/>
			<stop  offset="0.7961" style="stop-color:#AB7305"/>
			<stop  offset="0.8265" style="stop-color:#AF7813"/>
			<stop  offset="0.8587" style="stop-color:#B5802A"/>
			<stop  offset="0.878" style="stop-color:#B9863B"/>
			<stop  offset="1" style="stop-color:#93762F"/>
		</linearGradient>
		<path class="st24" d="M88.5,177.6h5.8c-0.4-0.7-0.7-2-0.8-3.7c-2.3,1.2-3.8,2.1-4.6,2.8C88.7,177,88.6,177.3,88.5,177.6z"/>
		
			<linearGradient id="SVGID_23_" gradientUnits="userSpaceOnUse" x1="-34.7947" y1="39.7346" x2="-26.7596" y2="149.1558" gradientTransform="matrix(1.7647 0 0 1.7647 156 204.5306)">
			<stop  offset="3.683036e-02" style="stop-color:#EB423D"/>
			<stop  offset="0.5299" style="stop-color:#BC2132"/>
			<stop  offset="0.7962" style="stop-color:#AE1E2D"/>
			<stop  offset="1" style="stop-color:#951B25"/>
		</linearGradient>
		<path class="st25" d="M88.8,176.7c1.5-4,2.9-7.4,4.5-10.8c0.1-2.9,0.4-6.1,0.7-9.4c-2-0.1-4.1-0.1-6.3-0.1c-2.5,0-4.9,0.1-7.2,0.2
			c-0.5,12.2-1.1,21.1-1.1,21.1h8.5C88.1,177.3,88.3,177,88.8,176.7z"/>
		<path class="st6" d="M88.8,176.7c1.5-4,2.9-7.4,4.5-10.8c0.1-2.9,0.4-6.1,0.7-9.4c-2-0.1-4.1-0.1-6.3-0.1c-2.5,0-4.9,0.1-7.2,0.2
			c-0.5,12.2-1.1,21.1-1.1,21.1h8.5C88.1,177.3,88.3,177,88.8,176.7z"/>
		
			<linearGradient id="SVGID_24_" gradientUnits="userSpaceOnUse" x1="85.193" y1="11.3053" x2="94.0299" y2="111.9674" gradientTransform="matrix(1 0 0 -1 0 192)">
			<stop  offset="0" style="stop-color:#463311"/>
			<stop  offset="0.161" style="stop-color:#593E18"/>
			<stop  offset="0.7697" style="stop-color:#AA7100"/>
			<stop  offset="0.7961" style="stop-color:#AB7305"/>
			<stop  offset="0.8265" style="stop-color:#AF7813"/>
			<stop  offset="0.8587" style="stop-color:#B5802A"/>
			<stop  offset="0.878" style="stop-color:#B9863B"/>
			<stop  offset="1" style="stop-color:#93762F"/>
		</linearGradient>
		<path class="st26" d="M88.8,176.7c1.5-4,2.9-7.4,4.5-10.8c0.1-2.9,0.4-6.1,0.7-9.4c-2-0.1-4.1-0.1-6.3-0.1c-2.5,0-4.9,0.1-7.2,0.2
			c-0.5,12.2-1.1,21.1-1.1,21.1h8.5C88.1,177.3,88.3,177,88.8,176.7z"/>
		
			<linearGradient id="SVGID_25_" gradientUnits="userSpaceOnUse" x1="-32.5127" y1="39.567" x2="-24.4776" y2="148.9883" gradientTransform="matrix(1.7647 0 0 1.7647 156 204.5306)">
			<stop  offset="3.683036e-02" style="stop-color:#EB423D"/>
			<stop  offset="0.5299" style="stop-color:#BC2132"/>
			<stop  offset="0.7962" style="stop-color:#AE1E2D"/>
			<stop  offset="1" style="stop-color:#951B25"/>
		</linearGradient>
		<path class="st27" d="M93.4,173.9c-0.2-2.1-0.2-4.9-0.1-8.1c-1.7,3.4-3.1,6.8-4.5,10.8C89.6,176,91,175.1,93.4,173.9z"/>
		<path class="st6" d="M93.4,173.9c-0.2-2.1-0.2-4.9-0.1-8.1c-1.7,3.4-3.1,6.8-4.5,10.8C89.6,176,91,175.1,93.4,173.9z"/>
		
			<linearGradient id="SVGID_26_" gradientUnits="userSpaceOnUse" x1="87.6516" y1="20.8" x2="357.3028" y2="20.8" gradientTransform="matrix(1 0 0 -1 0 192)">
			<stop  offset="0" style="stop-color:#096133"/>
			<stop  offset="0.5151" style="stop-color:#3D9549"/>
			<stop  offset="0.8962" style="stop-color:#0A6A00"/>
			<stop  offset="1" style="stop-color:#3D9549"/>
		</linearGradient>
		<path class="st28" d="M93.4,173.9c-0.2-2.1-0.2-4.9-0.1-8.1c-1.7,3.4-3.1,6.8-4.5,10.8C89.6,176,91,175.1,93.4,173.9z"/>
		
			<linearGradient id="SVGID_27_" gradientUnits="userSpaceOnUse" x1="90.5805" y1="10.8324" x2="99.4174" y2="111.4944" gradientTransform="matrix(1 0 0 -1 0 192)">
			<stop  offset="0" style="stop-color:#463311"/>
			<stop  offset="0.161" style="stop-color:#593E18"/>
			<stop  offset="0.7697" style="stop-color:#AA7100"/>
			<stop  offset="0.7961" style="stop-color:#AB7305"/>
			<stop  offset="0.8265" style="stop-color:#AF7813"/>
			<stop  offset="0.8587" style="stop-color:#B5802A"/>
			<stop  offset="0.878" style="stop-color:#B9863B"/>
			<stop  offset="1" style="stop-color:#93762F"/>
		</linearGradient>
		<path class="st29" d="M93.4,173.9c-0.2-2.1-0.2-4.9-0.1-8.1c-1.7,3.4-3.1,6.8-4.5,10.8C89.6,176,91,175.1,93.4,173.9z"/>
		
			<linearGradient id="SVGID_28_" gradientUnits="userSpaceOnUse" x1="-34.2807" y1="39.6968" x2="-26.2455" y2="149.1181" gradientTransform="matrix(1.7647 0 0 1.7647 156 204.5306)">
			<stop  offset="3.683036e-02" style="stop-color:#EB423D"/>
			<stop  offset="0.5299" style="stop-color:#BC2132"/>
			<stop  offset="0.7962" style="stop-color:#AE1E2D"/>
			<stop  offset="1" style="stop-color:#951B25"/>
		</linearGradient>
		<path class="st30" d="M88.8,176.7c-0.4,0.4-0.7,0.7-0.9,0.9h0.6C88.6,177.3,88.7,177,88.8,176.7z"/>
		<path class="st6" d="M88.8,176.7c-0.4,0.4-0.7,0.7-0.9,0.9h0.6C88.6,177.3,88.7,177,88.8,176.7z"/>
		
			<linearGradient id="SVGID_29_" gradientUnits="userSpaceOnUse" x1="87.6516" y1="14.85" x2="357.3028" y2="14.85" gradientTransform="matrix(1 0 0 -1 0 192)">
			<stop  offset="0" style="stop-color:#096133"/>
			<stop  offset="0.5151" style="stop-color:#3D9549"/>
			<stop  offset="0.8962" style="stop-color:#0A6A00"/>
			<stop  offset="1" style="stop-color:#3D9549"/>
		</linearGradient>
		<path class="st31" d="M88.8,176.7c-0.4,0.4-0.7,0.7-0.9,0.9h0.6C88.6,177.3,88.7,177,88.8,176.7z"/>
		
			<linearGradient id="SVGID_30_" gradientUnits="userSpaceOnUse" x1="88.0171" y1="11.0573" x2="96.854" y2="111.7195" gradientTransform="matrix(1 0 0 -1 0 192)">
			<stop  offset="0" style="stop-color:#463311"/>
			<stop  offset="0.161" style="stop-color:#593E18"/>
			<stop  offset="0.7697" style="stop-color:#AA7100"/>
			<stop  offset="0.7961" style="stop-color:#AB7305"/>
			<stop  offset="0.8265" style="stop-color:#AF7813"/>
			<stop  offset="0.8587" style="stop-color:#B5802A"/>
			<stop  offset="0.878" style="stop-color:#B9863B"/>
			<stop  offset="1" style="stop-color:#93762F"/>
		</linearGradient>
		<path class="st32" d="M88.8,176.7c-0.4,0.4-0.7,0.7-0.9,0.9h0.6C88.6,177.3,88.7,177,88.8,176.7z"/>
	</g>
</g>
<g id="Layer_2">
	<path class="st33" d="M119.1,133.2c0,0,41.3-39.5,64.6-44.4c24.8-5.2,39.6-6.5,68.2,2.8c18.6,6,33.2,5,47,0
		c-21.2,13.7-37,13.3-56,7.3s-36.5-1.5-59,1.5S129.3,127.9,119.1,133.2z"/>
</g>
<g id="Layer_3">
	<path class="st34" d="M193.9,169.8c-14.6-5.4,70.6-4.5,96.1,29.2c25.9,34.2,14.5,66.2,15.5,79.7c-6.5-41.2-27.4-58.1-41.5-73.7
		C251.8,191.6,197.4,171.1,193.9,169.8z"/>
</g>
</svg>
