<?xml version="1.0" encoding="utf-8"?>
<!-- Generator: Adobe Illustrator 19.2.1, SVG Export Plug-In . SVG Version: 6.00 Build 0)  -->
<svg version="1.1" id="Layer_1" xmlns="http://www.w3.org/2000/svg" xmlns:xlink="http://www.w3.org/1999/xlink" x="0px" y="0px"
	 viewBox="0 0 385 385" style="enable-background:new 0 0 385 385;" xml:space="preserve">
<style type="text/css">
	.st0{fill:url(#square_1_);stroke:#3B61AD;stroke-width:2;stroke-miterlimit:10;}
	.st1{fill:none;}
	.st2{fill:#D8A344;}
	.st3{fill:#DDDDDD;}
	.st4{fill:#F7D079;}
	.st5{fill:#A58958;stroke:#B2AFA8;stroke-width:2;stroke-miterlimit:10;}
	.st6{fill:none;stroke:#5A6E5C;stroke-width:2;stroke-miterlimit:10;}
</style>
<linearGradient id="square_1_" gradientUnits="userSpaceOnUse" x1="192.25" y1="50.5" x2="192.25" y2="335.6">
	<stop  offset="0" style="stop-color:#FFFFFF"/>
	<stop  offset="1" style="stop-color:#D0D2D3"/>
</linearGradient>
<path id="square_12_" class="st0" d="M49.7,304.3V81.8c0-17.2,14.1-31.3,31.3-31.3h222.5c17.2,0,31.3,14.1,31.3,31.3v222.5
	c0,17.2-14.1,31.3-31.3,31.3H81C63.7,335.5,49.7,321.5,49.7,304.3z"/>
<g id="Layer_13">
	<g>
		<path class="st1" d="M52.9,98v-4.1c0-6.8,5.5-21.4,12.2-21.4h131.7c6.9,0,12.4,14.6,12.4,21.4V98h125.6V81.8
			c0-17.2-14.1-31.3-31.3-31.3H81c-17.2,0-31.3,14.1-31.3,31.3V98H52.9z"/>
		<path class="st2" d="M209.2,93.9c0-6.8-5.5-21.4-12.4-21.4H65.1c-6.8,0-12.2,14.6-12.2,21.4V98h-3.2v8.9h285.1V98H209.2V93.9z"/>
		<rect x="49.7" y="106.9" class="st3" width="285.1" height="14.3"/>
		<path class="st4" d="M49.7,304.3c0,17.2,14,31.2,31.3,31.3h222.5c17.2,0,31.3-14.1,31.3-31.3V121.1H49.7V304.3z"/>
	</g>
	<g>
		<g>
			<g>
				<path class="st5" d="M267,250.1l-5.3-35l-71.9,43.8l-71.9-43.8l-5.3,36.7l0,0c0,1.8-1.8,3.5-1.8,3.5c0,12.3,54.3,52.6,73.7,52.6
					c17.6,0,84.2-40.3,84.2-52.6C268.7,255.4,268.7,253.6,267,250.1z"/>
			</g>
			<g>
				<polygon class="st5" points="189.8,251.9 77.5,183.5 189.8,148.5 302,183.5 				"/>
			</g>
		</g>
		<g>
			<polygon class="st5" points="79.2,190.5 72.2,264.2 79.2,287 84.5,264.2 			"/>
		</g>
	</g>
</g>
<path id="square_9_" class="st6" d="M303.4,335.5H80.9c-17.2,0-31.3-14.1-31.3-31.3V81.8c0-17.2,14.1-31.3,31.3-31.3h222.5
	c17.2,0,31.3,14.1,31.3,31.3v222.5C334.7,321.5,320.6,335.5,303.4,335.5z"/>
</svg>
