<?xml version="1.0" encoding="utf-8"?>
<!-- Generator: Adobe Illustrator 19.2.1, SVG Export Plug-In . SVG Version: 6.00 Build 0)  -->
<svg version="1.1" id="Layer_1" xmlns="http://www.w3.org/2000/svg" xmlns:xlink="http://www.w3.org/1999/xlink" x="0px" y="0px"
	 viewBox="0 0 385 385" style="enable-background:new 0 0 385 385;" xml:space="preserve">
<style type="text/css">
	.st0{fill:#597A74;}
	.st1{fill:none;stroke:#5A6E5C;stroke-width:2;stroke-miterlimit:10;}
	.st2{fill:#F7F777;}
	.st3{fill:none;stroke:#231F20;stroke-width:7.0751;stroke-miterlimit:10;}
</style>
<path id="square_16_" class="st0" d="M335.8,304.3c0,17.2-14.1,31.3-31.3,31.3H82c-17.3-0.1-31.3-14.1-31.3-31.3V81.8
	c0-17.2,14.1-31.3,31.3-31.3h222.5c17.2,0,31.3,14.1,31.3,31.3"/>
<path id="square_17_" class="st1" d="M303.4,335.5H80.9c-17.2,0-31.3-14.1-31.3-31.3V81.8c0-17.2,14.1-31.3,31.3-31.3h222.5
	c17.2,0,31.3,14.1,31.3,31.3v222.5C334.7,321.5,320.6,335.5,303.4,335.5z"/>
<path class="st2" d="M236.9,137.3c0,0,2.6,0,6.2,0.8c1.8,0.8,3.6,0.8,6.2,2.6c2.6,1.8,5.2,2.6,8,5.2c2.6,2.6,6.2,4.4,8.8,8
	c1.8,1.8,2.6,3.6,4.4,5.2c0.8,1.8,2.6,3.6,3.6,6.2c0.8,1.8,1.8,4.4,2.6,7c0.8,1.8,1.8,4.4,2.6,7c0.8,2.6,0.8,5.2,1.8,8
	c0,2.6,0.8,5.2,0.8,8c0,5.2,0,10.6-1.8,15.7c-0.8,5.2-2.6,9.8-4.4,15c-1.8,4.4-4.4,8.8-7,11.3c-1.8,1.8-2.6,3.6-4.4,4.4
	c-1.8,0.8-2.6,2.6-4.4,3.6c-2.6,2.6-5.2,3.6-8,5.2c-2.6,1.8-4.4,1.8-7,2.6c-3.6,0.8-6.2,0.8-6.2,0.8l-0.8-1.8c0,0,1.8-1.8,3.6-3.6
	c0.8-0.8,2.6-2.6,4.4-4.4c1.8-1.8,3.6-3.6,5.2-6.2c1.8-2.6,3.6-5.2,5.2-8.8c1.8-2.6,2.6-6.2,4.4-10.6c0.8-3.6,1.8-8,2.6-11.3
	c0.8-4.4,0.8-8,0.8-12.4v-6.2l-0.8-6.2c-0.8-3.6-1.8-8-3.6-11.3c-0.8-1.8-1.8-3.6-1.8-5.2c-0.8-1.8-1.8-3.6-2.6-4.4
	c-1.8-3.6-3.6-6.2-5.2-8c-1.8-2.6-3.6-4.4-5.2-6.2c-1.8-1.8-2.6-3.6-4.4-4.4c-3.6-3.6-4.4-4.4-4.4-4.4L236.9,137.3z"/>
<path class="st2" d="M266.8,111c0,0,2.6,0.8,8,2.6c2.6,0.8,5.2,1.8,8.8,4.4c3.6,2.6,7,4.4,10.6,8c3.6,4.4,8,8,10.6,12.4
	c1.8,2.6,3.6,4.4,5.2,7c1.8,2.6,2.6,5.2,4.4,8.8c1.8,2.6,2.6,6.2,4.4,9.8c0.8,3.6,2.6,6.2,3.6,9.8c0.8,3.6,1.8,7,1.8,10.6
	c0.8,3.6,0.8,7,0.8,10.6c0,3.6,0,7-0.8,10.6c0,3.6-0.8,7-1.8,10.6c-0.8,7-3.6,14.2-6.2,20.4c-2.6,6.2-5.2,11.3-9.8,16.8
	c-1.8,2.6-3.6,4.4-5.2,7c-1.8,1.8-3.6,3.6-5.2,5.2c-3.6,3.6-7,6.2-10.6,8c-3.6,2.6-6.2,3.6-8.8,4.4c-3.6,2.6-7,3.6-7,3.6l-0.8-0.8
	c0,0,1.8-1.8,6.2-5.2c1.8-1.8,4.4-3.6,6.2-7c2.6-2.6,5.2-5.2,7-9.8c0.8-1.8,2.6-3.6,3.6-5.2c0.8-1.8,2.6-4.4,3.6-6.2
	c2.6-4.4,4.4-9.8,6.2-15c1.8-5.2,3.6-11.3,3.6-16.8c0.8-2.6,0.8-6.2,0.8-8.8s0-6.2,0-8.8c0-2.6,0-6.2-0.8-8.8
	c-0.8-2.6-0.8-6.2-1.8-8.8c0-2.6-1.8-6.2-1.8-8.8c-0.8-2.6-1.8-5.2-2.6-8s-1.8-5.2-2.6-8c-0.8-2.6-2.6-4.4-3.6-7
	c-1.8-4.4-5.2-8.8-8-12.4c-1.8-5.2-4.4-8-6.2-10.6c-1.8-2.6-4.4-5.2-6.2-7c-4.4-3.6-6.2-5.2-6.2-5.2L266.8,111z"/>
<path class="st3" d="M-41.8-55.3"/>
<path class="st2" d="M148.3,138.3c0,0-0.8,0.8-4.4,4.4c-1.8,0.8-2.6,2.6-4.4,4.4c-1.5,1.8-3.4,3.6-5.2,6.2c-1.5,1.8-3.4,4.4-5.2,8
	c-0.8,0.8-1.8,2.6-2.6,4.4c0,1.5-1,3.4-1.8,5.2c-1.8,3.4-2.8,7.7-3.6,11.3l-0.8,6.2v6.2c0,4.4,0,8,0.8,12.4
	c0.8,3.4,1.8,7.7,2.6,11.3c1.8,4.4,2.6,8,4.4,10.6c1.5,3.6,3.4,6.2,5.2,8.8c1.5,2.6,3.4,4.4,5.2,6.2c1.8,1.8,3.6,3.6,4.4,4.4
	c1.8,1.8,3.6,3.6,3.6,3.6l-0.8,1.8c0,0-2.6,0-6.2-0.8c-2.6-0.8-4.4-0.8-7-2.6c-2.8-1.5-5.4-2.6-8-5.2c-1.8-1-2.6-2.8-4.4-3.6
	c-1.8-0.8-2.6-2.6-4.4-4.4c-2.6-2.6-5.2-7-7-11.3c-1.8-5.2-3.6-9.8-4.4-15c-1.8-5.2-1.8-10.6-1.8-15.7c0-2.8,0.8-5.4,0.8-8
	c1-2.8,1-5.4,1.8-8c0.8-2.6,1.8-5.2,2.6-7c0.8-2.6,1.8-5.2,2.6-7c1-2.6,2.8-4.4,3.6-6.2c1.8-1.5,2.6-3.4,4.4-5.2
	c2.6-3.6,6.2-5.4,8.8-8c2.8-2.6,5.4-3.4,8-5.2c2.6-1.8,4.4-1.8,6.2-2.6c3.6-0.8,6.2-0.8,6.2-0.8L148.3,138.3z"/>
<path class="st2" d="M118.1,113.6c0,0-1.8,1.5-6.2,5.2c-1.8,1.8-4.4,4.4-6.2,7c-1.8,2.6-4.4,5.4-6.2,10.6c-2.8,3.6-6.2,8-8,12.4
	c-1,2.6-2.8,4.4-3.6,7c-0.8,2.8-1.8,5.2-2.6,8c-0.8,2.8-1.8,5.4-2.6,8c0,2.6-1.8,6.2-1.8,8.8c-1,2.6-1,6.2-1.8,8.8
	c-0.8,2.6-0.8,6.2-0.8,8.8c0,2.6,0,6.2,0,8.8s0,6.2,0.8,8.8c0,5.4,1.8,11.6,3.6,16.8c1.8,5.2,3.6,10.6,6.2,15c1,1.8,2.8,4.4,3.6,6.2
	c1,1.5,2.8,3.4,3.6,5.2c1.8,4.6,4.4,7.2,7,9.8c1.8,3.4,4.4,5.2,6.2,7c4.4,3.4,6.2,5.2,6.2,5.2l-0.8,0.8c0,0-3.4-1-7-3.6
	c-2.6-0.8-5.2-1.8-8.8-4.4c-3.6-1.8-7-4.4-10.6-8c-1.5-1.5-3.4-3.4-5.2-5.2c-1.5-2.6-3.4-4.4-5.2-7c-4.6-5.4-7.2-10.6-9.8-16.8
	c-2.6-6.2-5.4-13.4-6.2-20.4c-1-3.6-1.8-7-1.8-10.6c-0.8-3.6-0.8-7-0.8-10.6c0-3.6,0-7,0.8-10.6c0-3.6,1-7,1.8-10.6
	c1-3.6,2.8-6.2,3.6-9.8c1.8-3.6,2.6-7.2,4.4-9.8c1.8-3.6,2.6-6.2,4.4-8.8c1.5-2.6,3.4-4.4,5.2-7c2.6-4.4,7-8,10.6-12.4
	c3.6-3.6,7-5.4,10.6-8c3.6-2.6,6.2-3.6,8.8-4.4c5.4-1.8,8-2.6,8-2.6L118.1,113.6z"/>
<circle class="st2" cx="190.3" cy="198.3" r="45.3"/>
</svg>
