<?xml version="1.0" encoding="utf-8"?>
<!-- Generator: Adobe Illustrator 18.1.1, SVG Export Plug-In . SVG Version: 6.00 Build 0)  -->
<svg version="1.1" id="Layer_1" xmlns="http://www.w3.org/2000/svg" xmlns:xlink="http://www.w3.org/1999/xlink" x="0px" y="0px"
	 viewBox="0 0 40 40" enable-background="new 0 0 40 40" xml:space="preserve">
<g id="Layer_3_copy">
	<linearGradient id="SVGID_1_" gradientUnits="userSpaceOnUse" x1="19.3004" y1="3.2993" x2="20.5504" y2="33.1327">
		<stop  offset="0" style="stop-color:#FEFFDD"/>
		<stop  offset="1" style="stop-color:#F9FFBF"/>
	</linearGradient>
	<path fill="url(#SVGID_1_)" stroke="#838384" stroke-width="0.5" stroke-miterlimit="10" d="M38.6,20c0,10.3-8.3,18.6-18.6,18.6
		S1.4,30.2,1.4,20S9.7,1.4,20,1.4S38.6,9.7,38.6,20z M20,6.2C12.4,6.2,6.3,12.4,6.3,20S12.4,33.8,20,33.8S33.8,27.6,33.8,20
		S27.6,6.2,20,6.2z"/>
</g>
<g id="Layer_2">
	
		<linearGradient id="SVGID_2_" gradientUnits="userSpaceOnUse" x1="20.2552" y1="19.6729" x2="20.064" y2="11.5153" gradientTransform="matrix(1 0 0 -1 0 40)">
		<stop  offset="0" style="stop-color:#FEFFDD"/>
		<stop  offset="1" style="stop-color:#F9FFBF"/>
	</linearGradient>
	<path fill="url(#SVGID_2_)" stroke="#838384" stroke-width="0.5" stroke-miterlimit="10" d="M20.1,13.3c-2.5,0-3.9,1.4-4,4.3
		c0.2,2.4,1.5,2.5,1.3,4s-3.2,3.6-3.2,5.6c0,1.5,3.3,2.5,5.8,2.4s6-0.9,6-2.9c0-1.8-3.1-3.4-3.2-5.1c-0.1-1.5,0.9-1.7,1-3.9
		C23.7,15.2,22.7,13.3,20.1,13.3z"/>
</g>
</svg>
